<svg width="15" height="15" viewBox="0 0 15 15" fill="none" xmlns="http://www.w3.org/2000/svg">
  <path  d="M10.75 8.40995V10.36C10.75 12.96 9.71 14 7.11 14H4.64C2.04 14 1 12.96 1 10.36V7.88995C1 5.28995 2.04 4.24995 4.64 4.24995H6.59" stroke="white" stroke-linecap="round" stroke-linejoin="round"/>
  <path  d="M10.7496 8.40995H8.6696C7.1096 8.40995 6.5896 7.88995 6.5896 6.32995V4.24995L10.7496 8.40995Z" stroke="white" stroke-linecap="round" stroke-linejoin="round"/>
  <path  d="M7.23975 1H9.83975" stroke="white" stroke-linecap="round" stroke-linejoin="round"/>
  <path  d="M4.25 2.95C4.25 1.871 5.121 1 6.2 1H7.903" stroke="white" stroke-linecap="round" stroke-linejoin="round"/>
  <path  d="M13.9996 4.90007V8.92357C13.9996 9.93107 13.1806 10.7501 12.1731 10.7501" stroke="white" stroke-linecap="round" stroke-linejoin="round"/>
  <path  d="M13.9999 4.9H12.0499C10.5874 4.9 10.0999 4.4125 10.0999 2.95V1L13.9999 4.9Z" stroke="white" stroke-linecap="round" stroke-linejoin="round"/>
</svg>
