<svg width="14" height="14" viewBox="0 0 14 14" fill="none" xmlns="http://www.w3.org/2000/svg">
  <path d="M13.1183 2.646L10.2611 0.145986C10.2079 0.0993163 10.1446 0.0624316 10.0748 0.0375C10.0059 0.0128613 9.93217 0.000117187 9.85771 0H2.42913C1.48235 0 0.714844 0.671572 0.714844 1.5V12.5C0.714844 13.3284 1.48235 14 2.42913 14H11.572C12.5188 14 13.2863 13.3284 13.2863 12.5V3C13.2855 2.86728 13.2251 2.74016 13.1183 2.646ZM10.4291 1.70701L11.3354 2.50002H10.4291V1.70701ZM12.1434 12.5C12.1434 12.7762 11.8876 13 11.572 13H2.42913C2.11353 13 1.85769 12.7762 1.85769 12.5V1.5C1.85769 1.22385 2.11353 0.99999 2.42913 0.99999H9.28627V3C9.28627 3.27615 9.5421 3.50001 9.85771 3.50001H12.1434V12.5H12.1434Z" fill="white"/>
</svg>
