<svg width="14" height="14" viewBox="0 0 14 14" fill="none" xmlns="http://www.w3.org/2000/svg">
  <g clip-path="url(#clip0_61_1328)">
    <path d="M13.4999 4.50059C13.2238 4.50059 13 4.72439 13 5.00047V6.50009H11.5004V5.00047C11.5004 4.72439 11.2766 4.50059 11.0005 4.50059C10.7244 4.50059 10.5006 4.72439 10.5006 5.00047V6.50009H5.95679C5.6807 4.86682 4.1329 3.76659 2.49963 4.04267C0.866354 4.31873 -0.233878 5.86656 0.0421762 7.49983C0.31823 9.1331 1.86606 10.2333 3.49934 9.95725C4.75797 9.74449 5.74403 8.75843 5.95676 7.49983H13.4999C13.776 7.49983 13.9998 7.27603 13.9998 6.99995V5.00044C13.9998 4.72439 13.776 4.50059 13.4999 4.50059ZM3.00253 8.99946C1.89822 8.99946 1.00302 8.10425 1.00302 6.99995C1.00302 5.89565 1.89822 5.00044 3.00253 5.00044C4.10683 5.00044 5.00204 5.89565 5.00204 6.99995C5.00204 8.10425 4.10683 8.99946 3.00253 8.99946Z" fill="#727A84"/>
  </g>
  <defs>
    <clipPath id="clip0_61_1328">
      <rect width="14" height="14" fill="white"/>
    </clipPath>
  </defs>
</svg>
