<svg width="16" height="16" viewBox="0 0 16 16" fill="none" xmlns="http://www.w3.org/2000/svg">
  <path d="M5.9 15H10.1C13.6 15 15 13.6 15 10.1V5.9C15 2.4 13.6 1 10.1 1H5.9C2.4 1 1 2.4 1 5.9V10.1C1 13.6 2.4 15 5.9 15Z" stroke="#AA1A17" stroke-linecap="round" stroke-linejoin="round"/>
  <path d="M9.16876 4.85698C8.81876 4.75198 8.43376 4.68198 7.99976 4.68198C6.06776 4.68198 4.49976 6.24998 4.49976 8.18197C4.49976 10.114 6.06776 11.682 7.99976 11.682C9.93176 11.682 11.4998 10.114 11.4998 8.18197C11.4998 7.46097 11.2828 6.79597 10.9118 6.23598" stroke="#AA1A17" stroke-linecap="round" stroke-linejoin="round"/>
  <path d="M9.66591 4.95498L8.50391 3.61798" stroke="#AA1A17" stroke-linecap="round" stroke-linejoin="round"/>
  <path d="M9.66562 4.95496L8.30762 5.94896" stroke="#AA1A17" stroke-linecap="round" stroke-linejoin="round"/>
</svg>
