<svg width="24" height="24" viewBox="0 0 24 24" fill="none" xmlns="http://www.w3.org/2000/svg">
  <path d="M12 24C5.38047 24 0 18.6195 0 12C0 5.38047 5.38047 0 12 0C18.6195 0 24 5.38047 24 12C24 18.6195 18.6195 24 12 24ZM12 1.67442C6.30698 1.67442 1.67442 6.30698 1.67442 12C1.67442 17.693 6.30698 22.3256 12 22.3256C17.693 22.3256 22.3256 17.693 22.3256 12C22.3256 6.30698 17.693 1.67442 12 1.67442Z" fill="#292D32"/>
  <path d="M10.4144 15.9963C10.1912 15.9963 9.97909 15.907 9.82282 15.7507L6.66369 12.5916C6.33997 12.2679 6.33997 11.7321 6.66369 11.4084C6.98741 11.0847 7.52322 11.0847 7.84695 11.4084L10.4144 13.9758L16.1521 8.23815C16.4758 7.91443 17.0117 7.91443 17.3354 8.23815C17.6591 8.56187 17.6591 9.09769 17.3354 9.42141L11.0061 15.7507C10.8498 15.907 10.6377 15.9963 10.4144 15.9963Z" fill="#292D32"/>
</svg>
