<svg width="24" height="24" viewBox="0 0 24 24" fill="none" xmlns="http://www.w3.org/2000/svg">
<path d="M20.6263 4.8457H3.37321C3.21053 4.84589 3.05457 4.91062 2.93956 5.02567C2.82456 5.14072 2.75989 5.29671 2.75977 5.45938V6.69394C2.75977 6.75082 2.82145 6.8161 2.87185 6.8425L11.9405 12.0224C11.9637 12.0357 11.9901 12.0426 12.0168 12.0423C12.0442 12.0424 12.071 12.0351 12.0946 12.0212L20.8891 6.84754C20.9386 6.81994 21.0696 6.74698 21.1188 6.71338C21.1783 6.67282 21.2398 6.6361 21.2398 6.56338V5.45914C21.2396 5.29651 21.1749 5.14059 21.0599 5.02559C20.9449 4.91059 20.789 4.84589 20.6263 4.8457Z" fill="white"/>
<path d="M21.1627 8.55546C21.1391 8.54199 21.1123 8.53499 21.0851 8.53516C21.058 8.53533 21.0313 8.54266 21.0079 8.55642L16.031 11.4847C16.0112 11.4962 15.9942 11.5121 15.9813 11.5311C15.9685 11.5501 15.9601 11.5718 15.9567 11.5945C15.9534 11.6172 15.9552 11.6404 15.962 11.6623C15.9688 11.6842 15.9805 11.7043 15.9962 11.7211L20.9738 17.0867C20.988 17.1022 21.0054 17.1146 21.0247 17.123C21.044 17.1314 21.0648 17.1358 21.0859 17.1357C21.1265 17.1356 21.1655 17.1195 21.1942 17.0907C21.223 17.062 21.2392 17.023 21.2392 16.9823V8.68866C21.2393 8.66168 21.2323 8.63515 21.2189 8.61176C21.2054 8.58837 21.186 8.56895 21.1627 8.55546Z" fill="white"/>
<path d="M14.5981 12.4674C14.5745 12.4416 14.5427 12.4248 14.5082 12.4196C14.4736 12.4145 14.4384 12.4213 14.4083 12.4391L12.4134 13.6129C12.2965 13.6804 12.1641 13.7164 12.0291 13.7173C11.8941 13.7182 11.7612 13.6839 11.6435 13.6179L9.88785 12.615C9.85951 12.5988 9.82677 12.5921 9.79436 12.5958C9.76196 12.5996 9.73157 12.6135 9.70761 12.6356L3.04089 18.8195C3.02342 18.8358 3.01 18.856 3.00171 18.8784C2.99341 18.9009 2.99048 18.9249 2.99314 18.9487C2.9958 18.9725 3.00397 18.9953 3.01701 19.0154C3.03005 19.0354 3.0476 19.0522 3.06825 19.0643C3.17193 19.1252 3.27201 19.1543 3.37377 19.1543H20.4505C20.4804 19.1543 20.5096 19.1456 20.5346 19.1292C20.5595 19.1127 20.5791 19.0893 20.5909 19.0619C20.6029 19.0345 20.6066 19.0043 20.6015 18.9749C20.5965 18.9455 20.583 18.9183 20.5626 18.8965L14.5981 12.4674Z" fill="white"/>
<path d="M8.23993 11.9035C8.25759 11.8871 8.27116 11.8669 8.27955 11.8444C8.28793 11.8218 8.29091 11.7976 8.28822 11.7737C8.28553 11.7498 8.27726 11.7269 8.26408 11.7068C8.2509 11.6867 8.23317 11.6699 8.21233 11.6579L2.98849 8.67426C2.96517 8.66103 2.9388 8.65414 2.91199 8.6543C2.88518 8.65446 2.85888 8.66165 2.83573 8.67516C2.81257 8.68867 2.79337 8.70802 2.78004 8.73128C2.76671 8.75454 2.75972 8.78089 2.75977 8.8077V16.6365C2.7596 16.6664 2.7682 16.6957 2.78451 16.7208C2.80082 16.7458 2.82412 16.7655 2.85153 16.7775C2.87893 16.7895 2.90924 16.7931 2.93871 16.788C2.96817 16.7829 2.99549 16.7693 3.01729 16.7488L8.23993 11.9035Z" fill="white"/>
</svg>
