<svg width="421" height="490" viewBox="0 0 421 490" fill="none" xmlns="http://www.w3.org/2000/svg">
  <path d="M178.525 333.995L178.551 333.762L178.32 333.721L155.134 329.6L154.511 329.489L154.89 329.996L162.348 339.977L157.109 359.525L156.923 360.221L157.5 359.79L170.118 350.376L175.457 357.521L175.836 358.027L175.906 357.399L178.525 333.995Z" fill="url(#paint0_linear_999_1177)" fill-opacity="0.3" stroke="#AA1A17" stroke-width="0.5"/>
  <path d="M132.54 367.922L132.514 368.155L132.745 368.196L155.932 372.317L156.554 372.428L156.176 371.921L148.777 362.02L153.957 342.391L154.139 341.698L153.565 342.127L140.947 351.541L135.608 344.396L135.23 343.89L135.159 344.518L132.54 367.922Z" stroke="#AA1A17" stroke-width="0.5"/>
  <path d="M140.233 55.1692L140.259 54.9363L140.028 54.8953L116.842 50.7741L116.219 50.6635L116.598 51.1699L124.056 61.1518L118.817 80.6994L118.631 81.3954L119.208 80.9645L131.826 71.5501L137.165 78.6952L137.544 79.2017L137.614 78.5734L140.233 55.1692Z" fill="url(#paint1_linear_999_1177)" fill-opacity="0.3" stroke="#AA1A17" stroke-width="0.5"/>
  <path d="M94.2484 89.0961L94.2223 89.3291L94.4531 89.3701L117.64 93.4912L118.262 93.6018L117.884 93.0954L110.485 83.1942L115.665 63.5649L115.847 62.8726L115.273 63.3008L102.655 72.7152L97.316 65.5702L96.9376 65.0638L96.8673 65.692L94.2484 89.0961Z" stroke="#AA1A17" stroke-width="0.5"/>
  <path d="M299.59 248.18C299.674 248.556 299.836 248.912 300.058 249.224L304.262 255.145L294.432 262.126L291.575 258.102L291.574 258.101C290.396 256.461 289.553 254.607 289.09 252.644C288.627 250.681 288.552 248.65 288.873 246.663L288.873 246.662L299.834 248.124M299.59 248.18C299.59 248.179 299.59 248.179 299.59 248.178L299.834 248.124M299.59 248.18C299.59 248.18 299.59 248.18 299.591 248.181L299.834 248.124M299.59 248.18C299.502 247.804 299.491 247.417 299.556 247.036M299.834 248.124C299.754 247.78 299.743 247.427 299.802 247.077M299.556 247.036C299.556 247.036 299.556 247.036 299.556 247.037L299.802 247.077M299.556 247.036C299.556 247.036 299.556 247.035 299.556 247.035L299.802 247.077M299.556 247.036L299.802 247.077M316.503 261.937L316.648 262.141C316.716 262.093 316.783 262.044 316.85 261.994L316.705 261.79C316.639 261.84 316.571 261.889 316.503 261.937ZM295.028 236.706C295.028 236.706 295.029 236.706 295.029 236.706L294.883 236.503L295.028 236.706C295.028 236.706 295.028 236.706 295.028 236.706ZM290.745 240.934L290.958 241.066C290.958 241.066 290.958 241.066 290.958 241.066C290.958 241.066 290.958 241.066 290.958 241.066L290.745 240.934Z" fill="url(#paint2_linear_999_1177)" fill-opacity="0.3" stroke="#AA1A17" stroke-width="0.5"/>
  <path d="M318.96 272.715L318.591 272.977C318.305 273.181 317.982 273.323 317.64 273.402C317.297 273.479 316.943 273.489 316.596 273.428C316.249 273.367 315.918 273.241 315.618 273.053C315.32 272.864 315.06 272.621 314.857 272.334L303.198 255.916C301.854 256.871 300.71 258.084 299.836 259.483C298.962 260.882 298.372 262.441 298.099 264.071C297.827 265.702 297.88 267.372 298.251 268.986C298.622 270.6 299.309 272.128 300.268 273.478L303.227 277.645C304.399 279.333 305.892 280.772 307.619 281.878C309.348 282.986 311.274 283.74 313.293 284.098C315.309 284.457 317.374 284.41 319.369 283.963C321.363 283.516 323.248 282.678 324.914 281.495C326.58 280.312 327.993 278.811 329.072 277.073C330.151 275.337 330.874 273.4 331.201 271.38C331.526 269.358 331.451 267.29 330.975 265.293C330.498 263.295 329.632 261.411 328.426 259.751L325.467 255.584L315.229 262.854L319.578 268.978C319.781 269.265 319.929 269.591 320.006 269.934C320.086 270.278 320.094 270.633 320.037 270.981C319.98 271.329 319.854 271.659 319.669 271.958C319.489 272.256 319.246 272.512 318.96 272.715Z" fill="url(#paint3_linear_999_1177)" fill-opacity="0.3" stroke="#AA1A17" stroke-width="0.5"/>
  <path d="M85.5697 244.171C85.654 244.548 85.8159 244.904 86.0377 245.216L90.2419 251.136L80.4114 258.117L77.5543 254.094L77.5535 254.093C76.3759 252.453 75.5327 250.599 75.0694 248.636C74.606 246.673 74.5313 244.641 74.8527 242.654L74.8528 242.654L85.8134 244.115M85.5697 244.171C85.5696 244.171 85.5695 244.17 85.5695 244.17L85.8134 244.115M85.5697 244.171C85.5698 244.172 85.5699 244.172 85.57 244.172L85.8134 244.115M85.5697 244.171C85.4819 243.795 85.4707 243.409 85.5352 243.027M85.8134 244.115C85.733 243.772 85.7226 243.418 85.7818 243.069M85.5352 243.027C85.5352 243.028 85.5351 243.028 85.5351 243.028L85.7818 243.069M85.5352 243.027C85.5353 243.027 85.5353 243.027 85.5353 243.027L85.7818 243.069M85.5352 243.027L85.7818 243.069M102.483 257.929L102.627 258.132C102.695 258.084 102.763 258.035 102.83 257.986L102.685 257.782C102.618 257.831 102.551 257.88 102.483 257.929ZM81.0078 232.698C81.0079 232.697 81.0081 232.697 81.0082 232.697L80.8624 232.494L81.0074 232.698C81.0075 232.698 81.0077 232.698 81.0078 232.698ZM76.7249 236.926L76.9375 237.058C76.9375 237.058 76.9376 237.057 76.9377 237.057C76.9377 237.057 76.9377 237.057 76.9377 237.057L76.7249 236.926Z" fill="url(#paint4_linear_999_1177)" fill-opacity="0.3" stroke="#AA1A17" stroke-width="0.5"/>
  <path d="M103.676 269.637L103.674 269.638C103.3 269.721 102.913 269.733 102.532 269.666C102.153 269.6 101.793 269.462 101.465 269.257L101.463 269.256C101.139 269.05 100.855 268.785 100.632 268.471L89.1198 252.258C87.8902 253.17 86.8403 254.306 86.0278 255.607C85.171 256.979 84.5922 258.506 84.3252 260.104C84.0582 261.702 84.1101 263.339 84.474 264.922C84.8378 266.504 85.5111 268.001 86.4513 269.325L89.4105 273.492L89.4121 273.494L89.4121 273.494C90.5649 275.155 92.0341 276.571 93.7337 277.659L93.7338 277.659C95.4352 278.749 97.33 279.491 99.3157 279.843L99.3159 279.843C101.299 280.197 103.331 280.151 105.294 279.711C107.256 279.271 109.11 278.447 110.749 277.283C112.388 276.119 113.778 274.642 114.839 272.933L114.839 272.932C115.901 271.225 116.612 269.319 116.934 267.332C117.254 265.343 117.18 263.308 116.711 261.342C116.242 259.377 115.39 257.523 114.203 255.889L114.202 255.887L111.387 251.924L101.557 258.905L105.761 264.825C105.983 265.137 106.145 265.494 106.229 265.87M103.676 269.637L105.985 265.926M103.676 269.637C104.048 269.551 104.401 269.395 104.715 269.172L105.084 268.911C105.397 268.689 105.663 268.408 105.861 268.08M103.676 269.637L105.648 267.95M106.229 265.87C106.229 265.87 106.229 265.871 106.229 265.871L105.985 265.926M106.229 265.87C106.229 265.87 106.229 265.869 106.229 265.869L105.985 265.926M106.229 265.87C106.317 266.247 106.326 266.635 106.264 267.013C106.201 267.394 106.063 267.755 105.861 268.08M105.985 265.926C106.066 266.27 106.074 266.625 106.017 266.973C105.96 267.32 105.834 267.651 105.648 267.95M105.861 268.08C105.862 268.079 105.862 268.079 105.862 268.079L105.648 267.95M105.861 268.08C105.861 268.08 105.861 268.081 105.86 268.081L105.648 267.95" fill="url(#paint5_linear_999_1177)" fill-opacity="0.3" stroke="#AA1A17" stroke-width="0.5"/>
  <path d="M415.255 335.845L391.894 347.325L390.278 366.6L415.255 335.845Z" fill="url(#paint6_linear_999_1177)" fill-opacity="0.3" stroke="#AA1A17" stroke-width="0.5"/>
  <path d="M369.662 332.022L391.525 347.294L389.909 366.57L369.662 332.022Z" stroke="#AA1A17" stroke-width="0.5"/>
  <path d="M369.758 326.43L396.313 290.208L391.898 342.846L369.758 326.43Z" stroke="#AA1A17" stroke-width="0.5"/>
  <path d="M416.833 330.378L397.053 290.27L392.638 342.907L416.833 330.378Z" fill="url(#paint7_linear_999_1177)" fill-opacity="0.3" stroke="#AA1A17" stroke-width="0.5"/>
  <path d="M394.394 318.878L371.124 326.805L391.917 342.556L394.394 318.878Z" stroke="#AA1A17" stroke-width="0.5"/>
  <path d="M394.634 319.119L416.39 330.275L393.406 342.149L394.634 319.119Z" stroke="#AA1A17" stroke-width="0.5"/>
  <path d="M383.989 146.649L365.954 154.275L363.919 168.684L383.989 146.649Z" fill="url(#paint8_linear_999_1177)" fill-opacity="0.3" stroke="#AA1A17" stroke-width="0.5"/>
  <path d="M349.908 141.835L365.679 154.237L363.643 168.645L349.908 141.835Z" stroke="#AA1A17" stroke-width="0.5"/>
  <path d="M350.218 137.639L371.706 111.565L366.148 150.912L350.218 137.639Z" stroke="#AA1A17" stroke-width="0.5"/>
  <path d="M385.407 142.61L372.259 111.643L366.701 150.99L385.407 142.61Z" fill="url(#paint9_linear_999_1177)" fill-opacity="0.3" stroke="#AA1A17" stroke-width="0.5"/>
  <path d="M369.044 133.016L351.229 137.978L366.175 150.695L369.044 133.016Z" stroke="#AA1A17" stroke-width="0.5"/>
  <path d="M369.213 133.207L385.078 142.514L367.31 150.452L369.213 133.207Z" stroke="#AA1A17" stroke-width="0.5"/>
  <path d="M149.128 449.536L140.765 467.241L148.85 479.34L149.128 449.536Z" fill="url(#paint10_linear_999_1177)" fill-opacity="0.3" stroke="#AA1A17" stroke-width="0.5"/>
  <path d="M120.511 468.66L140.534 467.396L148.619 479.495L120.511 468.66Z" stroke="#AA1A17" stroke-width="0.5"/>
  <path d="M117.946 465.325L116.59 431.565L138.668 464.604L117.946 465.325Z" stroke="#AA1A17" stroke-width="0.5"/>
  <path d="M147.494 445.58L117.054 431.255L139.132 464.294L147.494 445.58Z" fill="url(#paint11_linear_999_1177)" fill-opacity="0.3" stroke="#AA1A17" stroke-width="0.5"/>
  <path d="M128.901 449.332L118.926 464.905L138.544 464.425L128.901 449.332Z" stroke="#AA1A17" stroke-width="0.5"/>
  <path d="M129.155 449.362L147.186 445.727L139.229 463.488L129.155 449.362Z" stroke="#AA1A17" stroke-width="0.5"/>
  <path d="M193.571 182.354L193.571 182.354C194.853 184.799 196.489 187.026 198.448 188.998L198.448 188.998C203.108 193.694 209.392 196.595 216.019 197.111C225.892 197.869 235.522 193.24 241.07 185.056L241.07 185.056C241.821 183.952 242.364 182.996 243.042 181.609L243.042 181.609C243.959 179.741 244.517 178.256 244.992 176.413L244.992 176.413C246.852 169.229 245.78 161.669 241.994 155.255C237.686 147.964 230.135 142.998 221.688 141.908L221.688 141.908C218.16 141.452 214.727 141.662 211.214 142.559C210.328 142.787 208.068 143.552 207.226 143.908C200.328 146.853 194.915 152.482 192.215 159.507C189.358 166.946 189.855 175.272 193.571 182.354ZM212.347 146.261L212.347 146.261C216.744 145.145 221.476 145.338 225.814 146.816C234.144 149.65 240.23 156.81 241.694 165.486L241.448 165.528L241.694 165.486C242.711 171.513 241.34 177.764 237.887 182.858L237.887 182.858C237.015 184.139 236.191 185.135 235.059 186.279L235.058 186.28C232.932 188.414 230.7 189.956 227.836 191.272L227.835 191.272C226.987 191.658 224.614 192.457 223.648 192.68C219.268 193.692 214.977 193.514 210.745 192.142C209.58 191.766 208.765 191.43 207.605 190.863L207.605 190.863C200.649 187.454 195.847 180.987 194.563 173.311L194.563 173.311C193.938 169.571 194.227 165.744 195.41 162.068C196.059 160.045 197.169 157.79 198.383 156.003L198.383 156.003C201.71 151.114 206.557 147.732 212.347 146.261Z" fill="url(#paint12_linear_999_1177)" fill-opacity="0.3" stroke="#AA1A17" stroke-width="0.5"/>
  <path d="M215.638 157.096L215.626 157.09C215.589 157.072 215.557 157.067 215.552 157.066C215.54 157.065 215.53 157.064 215.524 157.063C215.511 157.062 215.497 157.062 215.486 157.062C215.464 157.062 215.435 157.062 215.403 157.063C215.339 157.066 215.25 157.07 215.146 157.076C214.935 157.088 214.653 157.107 214.349 157.129C214.044 157.15 213.767 157.171 213.564 157.187C213.462 157.195 213.379 157.202 213.321 157.207L213.251 157.213L213.229 157.215L213.218 157.217L213.207 157.218C213.205 157.219 213.201 157.22 213.196 157.221C213.193 157.221 213.182 157.224 213.168 157.228C213.069 157.262 213.031 157.343 213.024 157.356L213.024 157.356C213.013 157.38 213.008 157.4 213.006 157.408C213.002 157.425 213 157.439 213 157.443L213 157.443C212.999 157.453 212.999 157.462 212.999 157.464C212.999 157.471 212.999 157.478 212.999 157.482C212.999 157.488 213 157.495 213 157.503C213 157.507 213 157.512 213.001 157.516C213.002 157.542 213.004 157.58 213.007 157.628C213.013 157.724 213.022 157.862 213.033 158.031C213.055 158.369 213.087 158.835 213.124 159.345L213.124 159.347C213.163 159.857 213.197 160.326 213.219 160.669C213.228 160.814 213.236 160.936 213.241 161.029C213.151 161.04 213.027 161.052 212.856 161.067C212.401 161.107 211.639 161.164 210.403 161.253C210.004 161.28 209.633 161.309 209.358 161.332C209.22 161.343 209.106 161.354 209.023 161.362C208.982 161.366 208.947 161.369 208.921 161.373C208.908 161.374 208.896 161.376 208.885 161.378L208.884 161.378C208.879 161.378 208.853 161.382 208.828 161.391C208.704 161.433 208.665 161.544 208.658 161.566L208.658 161.566C208.644 161.605 208.638 161.644 208.635 161.674C208.628 161.737 208.627 161.818 208.629 161.915C208.634 162.112 208.652 162.412 208.685 162.838L208.685 162.839C208.711 163.163 208.734 163.461 208.751 163.681C208.759 163.791 208.766 163.882 208.771 163.947C208.774 163.989 208.776 164.016 208.777 164.03C208.777 164.039 208.777 164.043 208.777 164.043C208.778 164.122 208.815 164.181 208.846 164.215C208.877 164.247 208.908 164.263 208.923 164.271C208.954 164.286 208.983 164.292 208.995 164.294C209.023 164.3 209.053 164.302 209.076 164.303C209.127 164.306 209.195 164.307 209.271 164.305C209.425 164.303 209.635 164.292 209.864 164.273C210.319 164.235 210.785 164.206 210.913 164.213L210.92 164.213L210.92 164.213C211.347 164.222 211.711 164.479 211.825 164.793C211.826 164.797 211.827 164.802 211.828 164.811C211.831 164.833 211.835 164.866 211.84 164.91C211.85 164.996 211.862 165.118 211.876 165.27C211.904 165.574 211.94 165.997 211.981 166.5C212.062 167.504 212.162 168.824 212.258 170.144C212.354 171.464 212.446 172.782 212.511 173.784C212.543 174.285 212.569 174.706 212.585 175.008C212.593 175.159 212.599 175.28 212.601 175.365C212.603 175.407 212.604 175.44 212.604 175.461C212.604 175.465 212.604 175.467 212.604 175.47C212.584 175.535 212.535 175.631 212.496 175.678L212.492 175.682L212.492 175.682C212.444 175.743 212.378 175.795 212.196 175.839C212.002 175.887 211.706 175.919 211.216 175.948L211.216 175.948L210.373 175.999L210.159 176.012L210.139 176.226L210.014 177.576L210.014 177.576C209.98 177.946 209.951 178.288 209.929 178.542C209.919 178.669 209.91 178.774 209.904 178.849C209.899 178.914 209.895 178.976 209.895 178.998L209.895 179.02L209.899 179.042C209.922 179.163 210.017 179.212 210.032 179.22L210.033 179.22C210.061 179.235 210.086 179.241 210.097 179.244C210.122 179.25 210.146 179.252 210.162 179.254C210.196 179.256 210.24 179.257 210.287 179.258C210.384 179.258 210.522 179.254 210.692 179.246C211.034 179.232 211.517 179.203 212.093 179.161C213.439 179.064 214.111 179.016 214.45 178.999C214.496 178.996 214.535 178.995 214.568 178.994C214.576 179.089 214.586 179.217 214.598 179.37C214.621 179.669 214.651 180.061 214.684 180.492L214.699 180.689C214.699 180.689 214.699 180.69 214.699 180.69C214.735 181.198 214.771 181.665 214.802 182.006C214.817 182.176 214.831 182.317 214.842 182.417C214.847 182.466 214.853 182.508 214.858 182.539C214.86 182.554 214.863 182.571 214.866 182.587C214.868 182.594 214.871 182.608 214.876 182.623C214.879 182.63 214.884 182.644 214.893 182.661L214.893 182.661C214.899 182.671 214.922 182.716 214.974 182.751L214.98 182.755L214.986 182.759C215.018 182.778 215.047 182.785 215.058 182.788C215.072 182.792 215.084 182.794 215.093 182.795C215.11 182.797 215.126 182.798 215.14 182.799C215.167 182.8 215.2 182.8 215.235 182.799C215.306 182.798 215.4 182.794 215.509 182.788C215.726 182.775 216.008 182.755 216.288 182.731C216.568 182.708 216.848 182.682 217.06 182.658C217.165 182.646 217.257 182.634 217.324 182.624C217.357 182.619 217.389 182.613 217.416 182.606C217.429 182.603 217.448 182.598 217.468 182.591C217.478 182.587 217.496 182.579 217.516 182.567L217.517 182.566C217.529 182.559 217.586 182.523 217.617 182.449C217.627 182.424 217.631 182.404 217.632 182.398L217.632 182.398C217.634 182.387 217.635 182.378 217.636 182.372C217.637 182.362 217.637 182.352 217.638 182.345C217.638 182.332 217.638 182.316 217.637 182.301C217.637 182.27 217.635 182.228 217.633 182.178C217.628 182.077 217.62 181.935 217.609 181.763C217.587 181.419 217.554 180.95 217.516 180.44C217.478 179.934 217.444 179.472 217.42 179.135C217.412 179.015 217.405 178.911 217.399 178.827C217.447 178.824 217.5 178.822 217.555 178.82L217.561 178.819L217.561 178.819L217.584 178.818C217.81 178.804 218.191 178.781 218.446 178.76C218.548 178.752 218.645 178.745 218.725 178.741C218.734 178.83 218.746 178.944 218.759 179.079C218.79 179.42 218.829 179.888 218.867 180.402C218.905 180.916 218.94 181.384 218.967 181.724C218.98 181.894 218.991 182.033 219 182.129C219.004 182.177 219.007 182.216 219.01 182.243C219.011 182.256 219.012 182.268 219.014 182.278C219.014 182.282 219.015 182.29 219.017 182.297C219.017 182.301 219.019 182.31 219.022 182.321C219.023 182.325 219.026 182.339 219.033 182.355C219.037 182.363 219.044 182.378 219.056 182.396C219.065 182.409 219.095 182.453 219.154 182.482L219.164 182.487L219.164 182.486C219.21 182.507 219.255 182.509 219.257 182.509C219.271 182.51 219.286 182.51 219.299 182.51C219.325 182.51 219.357 182.509 219.392 182.508C219.462 182.505 219.557 182.499 219.666 182.491C219.885 182.475 220.169 182.451 220.451 182.425C220.732 182.398 221.013 182.37 221.226 182.346C221.331 182.334 221.422 182.323 221.488 182.313C221.52 182.308 221.55 182.304 221.574 182.299C221.585 182.297 221.601 182.293 221.617 182.288C221.625 182.286 221.64 182.281 221.658 182.273C221.667 182.268 221.683 182.26 221.7 182.247C221.715 182.237 221.752 182.207 221.777 182.155L221.783 182.143L221.788 182.13C221.796 182.106 221.799 182.087 221.8 182.081C221.802 182.072 221.802 182.065 221.803 182.06C221.803 182.051 221.804 182.042 221.804 182.036C221.804 182.023 221.804 182.008 221.804 181.992C221.803 181.961 221.802 181.919 221.799 181.869C221.795 181.767 221.787 181.625 221.776 181.452C221.756 181.107 221.724 180.638 221.685 180.127C221.647 179.621 221.614 179.158 221.592 178.82C221.583 178.683 221.575 178.566 221.57 178.476C221.57 178.476 221.571 178.476 221.571 178.476C221.698 178.451 221.873 178.42 222.067 178.387C223.175 178.204 223.735 178.057 224.639 177.717L224.639 177.717C225.794 177.281 226.433 176.87 227.061 176.135L227.061 176.135C227.603 175.496 227.948 174.599 228.084 173.651C228.22 172.702 228.15 171.68 227.841 170.78C227.727 170.447 227.623 170.197 227.481 169.967C227.338 169.736 227.163 169.536 226.92 169.293L226.92 169.293C226.411 168.785 225.71 168.429 224.833 168.211C225.308 167.821 225.666 167.375 225.904 166.863C226.185 166.256 226.289 165.573 226.231 164.809C226.231 164.809 226.231 164.809 226.231 164.809L225.982 164.828C225.939 164.264 225.712 163.433 225.482 163.016L215.638 157.096ZM215.638 157.096L215.65 157.103C215.694 157.131 215.718 157.167 215.727 157.18C215.738 157.196 215.744 157.211 215.748 157.22C215.755 157.237 215.76 157.252 215.762 157.26C215.767 157.278 215.771 157.297 215.774 157.313C215.779 157.345 215.786 157.388 215.792 157.437C215.805 157.537 215.82 157.677 215.836 157.846C215.869 158.185 215.908 158.647 215.946 159.153C215.983 159.658 216.019 160.116 216.047 160.448C216.057 160.565 216.066 160.666 216.073 160.748C216.09 160.746 216.108 160.745 216.127 160.743C216.298 160.728 216.522 160.708 216.747 160.686C216.971 160.665 217.194 160.642 217.36 160.625C217.375 160.623 217.39 160.622 217.404 160.62C217.398 160.537 217.391 160.433 217.382 160.313C217.367 160.095 217.347 159.825 217.326 159.524C217.315 159.365 217.303 159.197 217.29 159.024C217.254 158.521 217.222 158.062 217.199 157.729C217.188 157.562 217.179 157.427 217.173 157.332C217.172 157.311 217.17 157.291 217.169 157.274C217.168 157.253 217.167 157.235 217.166 157.221L217.165 157.189L217.164 157.174L217.164 157.172C217.164 157.17 217.164 157.165 217.164 157.161C217.165 157.158 217.165 157.151 217.166 157.142C217.166 157.138 217.167 157.13 217.169 157.12C217.17 157.114 217.175 157.088 217.19 157.058L217.414 157.168L217.19 157.058C217.225 156.987 217.282 156.955 217.292 156.95L217.293 156.949C217.312 156.939 217.328 156.933 217.335 156.931C217.35 156.925 217.363 156.922 217.369 156.921C217.382 156.918 217.396 156.916 217.406 156.915C217.427 156.912 217.456 156.908 217.487 156.905C217.552 156.898 217.641 156.89 217.747 156.881C217.958 156.863 218.239 156.842 218.52 156.822C218.801 156.802 219.084 156.783 219.299 156.77C219.407 156.764 219.499 156.759 219.566 156.756C219.6 156.755 219.629 156.754 219.652 156.754C219.663 156.754 219.675 156.754 219.687 156.755C219.693 156.755 219.702 156.755 219.712 156.757L219.712 156.757C219.717 156.757 219.747 156.76 219.781 156.774L219.789 156.777L219.796 156.781C219.854 156.809 219.884 156.851 219.893 156.865C219.906 156.883 219.914 156.899 219.918 156.908C219.926 156.926 219.93 156.942 219.933 156.95C219.938 156.968 219.941 156.987 219.944 157.002C219.95 157.034 219.956 157.075 219.962 157.123C219.974 157.22 219.989 157.357 220.005 157.522C220.037 157.853 220.075 158.306 220.112 158.803L220.112 158.803C220.147 159.296 220.182 159.754 220.208 160.094C220.222 160.264 220.233 160.405 220.241 160.506L220.243 160.534C220.313 160.542 220.418 160.549 220.575 160.557C223.141 160.67 224.886 161.414 225.701 162.896L215.638 157.096ZM210.529 150.774L210.528 150.775C207.26 152.127 204.417 154.279 202.277 157.019C199.714 160.299 198.21 164.321 198.024 168.38L198.024 168.38C197.864 171.875 198.559 175.27 200.059 178.311L200.059 178.312C200.806 179.831 201.681 181.152 202.809 182.48C203.791 183.632 204.692 184.487 205.962 185.455L205.962 185.455C209.547 188.194 213.883 189.615 218.451 189.55L218.451 189.55C222.24 189.498 226.026 188.333 229.179 186.249L229.179 186.249C235.969 181.763 239.399 173.712 237.916 165.753L237.915 165.753C237.704 164.606 237.583 164.156 237.132 162.854L237.131 162.853C236.804 161.899 236.607 161.396 236.393 160.951L236.393 160.95C235.3 158.662 234.038 156.874 232.304 155.15L232.304 155.15C227.205 150.069 219.791 148.115 212.806 150.008C212.201 150.172 211.026 150.566 210.529 150.774ZM212.603 175.485C212.603 175.485 212.603 175.484 212.603 175.482C212.603 175.484 212.603 175.484 212.603 175.485ZM214.716 178.993C214.715 178.993 214.715 178.993 214.715 178.993L214.716 178.993Z" fill="url(#paint13_linear_999_1177)" fill-opacity="0.3" stroke="#AA1A17" stroke-width="0.5"/>
  <path d="M216.658 168.082C216.682 168.082 216.71 168.083 216.741 168.083C216.928 168.082 217.193 168.066 217.492 168.039C218.091 167.985 218.802 167.886 219.264 167.779C220.08 167.586 220.641 167.296 220.983 166.931C221.317 166.574 221.463 166.125 221.405 165.556L221.405 165.556C221.347 164.98 221.065 164.558 220.544 164.272C220.008 163.979 219.209 163.825 218.127 163.843C217.68 163.853 217.18 163.884 216.793 163.923C216.614 163.941 216.464 163.959 216.355 163.978C216.364 164.094 216.375 164.258 216.39 164.459C216.42 164.863 216.46 165.414 216.506 166.013C216.551 166.613 216.591 167.166 216.621 167.575L216.656 168.066L216.658 168.082Z" fill="url(#paint14_linear_999_1177)" fill-opacity="0.3" stroke="#AA1A17" stroke-width="0.5"/>
  <path d="M217.178 174.993C217.197 175.212 217.214 175.391 217.228 175.517C217.235 175.517 217.244 175.516 217.252 175.516C217.391 175.51 217.58 175.499 217.788 175.485C218.204 175.457 218.687 175.416 218.995 175.38C219.906 175.268 220.429 175.159 221.088 174.937L221.088 174.937C221.8 174.7 222.281 174.424 222.584 174.097C222.881 173.778 223.026 173.393 223.033 172.895L223.033 172.895L223.033 172.893C223.036 172.731 222.993 172.502 222.917 172.275C222.84 172.045 222.741 171.854 222.655 171.754L222.654 171.753C222.103 171.107 221.075 170.76 219.349 170.761C219.024 170.762 218.341 170.8 217.735 170.844C217.433 170.867 217.154 170.89 216.953 170.91C216.921 170.913 216.892 170.916 216.866 170.919C216.875 171.047 216.888 171.225 216.904 171.44C216.938 171.897 216.984 172.527 217.034 173.219C217.086 173.907 217.137 174.536 217.178 174.993ZM216.849 170.703C216.848 170.692 216.847 170.681 216.845 170.67C216.845 170.67 216.845 170.67 216.845 170.67C216.845 170.671 216.845 170.671 216.845 170.672L216.847 170.681L216.848 170.69L216.849 170.703ZM216.678 170.945C216.676 170.945 216.677 170.945 216.678 170.944L216.678 170.945ZM217.25 175.698L217.25 175.698L217.25 175.698Z" fill="url(#paint15_linear_999_1177)" fill-opacity="0.3" stroke="#AA1A17" stroke-width="0.5"/>
  <path d="M260.954 49.0401L260.954 49.0402C262.236 51.485 263.872 53.7123 265.831 55.6849L265.831 55.685C270.49 60.3806 276.775 63.282 283.401 63.797C293.275 64.5557 302.905 59.9264 308.453 51.7426L308.453 51.7422C309.204 50.6381 309.746 49.683 310.425 48.2957L310.425 48.2953C311.342 46.4272 311.9 44.9423 312.375 43.0997L312.375 43.0994C314.235 35.9153 313.163 28.3553 309.377 21.9419C305.069 14.6505 297.518 9.68414 289.071 8.59442L289.071 8.59442C285.543 8.13852 282.11 8.34868 278.596 9.24584C277.711 9.47307 275.451 10.2389 274.609 10.5949C267.711 13.5399 262.297 19.1688 259.597 26.1934C256.741 33.6321 257.238 41.9581 260.954 49.0401ZM279.729 12.9471L279.73 12.9471C284.127 11.8312 288.859 12.0247 293.197 13.5026C301.526 16.3366 307.613 23.4962 309.077 32.1725L308.831 32.2141L309.077 32.1725C310.094 38.1995 308.723 44.4504 305.27 49.5443L305.27 49.5446C304.398 50.8257 303.574 51.8215 302.442 52.9655L302.441 52.9661C300.315 55.1 298.082 56.6423 295.219 57.9584L295.218 57.9589C294.37 58.344 291.997 59.1434 291.031 59.3661C286.651 60.3782 282.36 60.2002 278.128 58.8289C276.962 58.4527 276.148 58.1164 274.988 57.5492L274.988 57.5491C268.032 54.1404 263.23 47.6737 261.946 39.9972L261.946 39.9972C261.321 36.2571 261.609 32.4303 262.793 28.7543C263.441 26.732 264.552 24.4766 265.766 22.6895L265.766 22.6894C269.093 17.8005 273.94 14.4182 279.729 12.9471Z" fill="url(#paint16_linear_999_1177)" fill-opacity="0.3" stroke="#AA1A17" stroke-width="0.5"/>
  <path d="M283.021 23.7822L283.008 23.7761C282.972 23.7585 282.94 23.7537 282.935 23.7529C282.923 23.751 282.913 23.7502 282.907 23.7497C282.893 23.7487 282.88 23.7484 282.869 23.7484C282.846 23.7482 282.818 23.7488 282.786 23.7499C282.722 23.7521 282.633 23.7565 282.528 23.7626C282.318 23.7747 282.035 23.7936 281.731 23.8152C281.427 23.8368 281.149 23.8578 280.947 23.8739C280.845 23.8819 280.762 23.8886 280.704 23.8936L280.634 23.8997L280.612 23.902L280.601 23.9033L280.59 23.905C280.588 23.9054 280.584 23.9061 280.579 23.9071C280.576 23.9078 280.565 23.9103 280.551 23.915C280.452 23.949 280.413 24.0293 280.407 24.0421L280.407 24.0428C280.395 24.0667 280.39 24.0869 280.389 24.0946C280.385 24.1118 280.383 24.1257 280.383 24.1296L280.383 24.1296C280.382 24.14 280.382 24.1484 280.382 24.151C280.382 24.1579 280.382 24.1645 280.382 24.1685C280.382 24.1747 280.382 24.1819 280.383 24.1899C280.383 24.1939 280.383 24.1981 280.383 24.2024C280.385 24.2289 280.387 24.267 280.39 24.3147C280.396 24.4105 280.404 24.5482 280.416 24.7174C280.438 25.0559 280.47 25.5216 280.507 26.0319L280.507 26.0332C280.546 26.5439 280.58 27.0124 280.602 27.3558C280.611 27.5006 280.619 27.6224 280.623 27.7155C280.534 27.7261 280.41 27.7386 280.239 27.7537C279.784 27.7938 279.022 27.8505 277.786 27.9392C277.386 27.9668 277.016 27.9952 276.741 28.0183C276.603 28.0298 276.489 28.04 276.406 28.0482C276.365 28.0523 276.33 28.056 276.304 28.0591C276.291 28.0607 276.278 28.0623 276.267 28.064L276.267 28.0641C276.262 28.0648 276.236 28.0687 276.21 28.0774C276.087 28.1199 276.048 28.2304 276.04 28.2523L276.04 28.2523C276.027 28.2912 276.021 28.3306 276.018 28.3605C276.011 28.4231 276.01 28.5049 276.012 28.6017C276.017 28.7985 276.035 29.0984 276.067 29.5245L276.067 29.5258C276.094 29.8494 276.117 30.1472 276.134 30.3676C276.142 30.4779 276.149 30.5686 276.154 30.6334C276.157 30.6753 276.158 30.7021 276.159 30.7166C276.16 30.7252 276.16 30.7294 276.16 30.7298C276.161 30.809 276.198 30.8677 276.229 30.901C276.259 30.9331 276.291 30.9497 276.306 30.957C276.337 30.9721 276.366 30.9781 276.377 30.9805C276.406 30.9861 276.436 30.9886 276.459 30.99C276.51 30.993 276.578 30.9934 276.654 30.992C276.808 30.9891 277.018 30.9782 277.246 30.9592C277.702 30.9212 278.168 30.893 278.296 30.8993L278.303 30.8997L278.303 30.8996C278.73 30.909 279.094 31.1654 279.208 31.4798C279.209 31.4834 279.21 31.489 279.211 31.4971C279.214 31.5199 279.218 31.5528 279.223 31.5962C279.233 31.6826 279.245 31.8041 279.259 31.9564C279.287 32.2608 279.323 32.6837 279.364 33.1862C279.445 34.191 279.545 35.5109 279.641 36.8305C279.737 38.15 279.829 39.4685 279.894 40.4704C279.926 40.9714 279.952 41.3925 279.968 41.6946C279.976 41.8459 279.981 41.9661 279.984 42.0512C279.986 42.094 279.986 42.126 279.986 42.148C279.986 42.1511 279.986 42.1539 279.986 42.1563C279.967 42.2215 279.918 42.318 279.879 42.3645L279.875 42.3686L279.875 42.3686C279.826 42.4292 279.761 42.4814 279.579 42.526C279.385 42.5738 279.088 42.6056 278.599 42.6347L278.598 42.6347L277.756 42.6858L277.542 42.6987L277.522 42.9123L277.397 44.2625L277.397 44.2626C277.363 44.6321 277.334 44.9747 277.312 45.2286C277.302 45.3555 277.293 45.4606 277.287 45.5359C277.282 45.601 277.277 45.6628 277.278 45.6843L277.278 45.7068L277.282 45.7289C277.305 45.8497 277.4 45.8989 277.415 45.9067L277.415 45.9068C277.444 45.9215 277.469 45.928 277.48 45.9306C277.505 45.9364 277.529 45.9389 277.545 45.9402C277.579 45.943 277.623 45.944 277.67 45.9441C277.767 45.9442 277.905 45.9403 278.075 45.9329C278.417 45.9182 278.9 45.889 279.475 45.8475C280.822 45.7505 281.494 45.7023 281.833 45.6853C281.879 45.683 281.918 45.6813 281.951 45.6802C281.959 45.776 281.969 45.9038 281.981 46.0568C282.004 46.3552 282.034 46.7472 282.067 47.179L282.082 47.3756C282.082 47.3758 282.082 47.3761 282.082 47.3763C282.117 47.8849 282.154 48.3511 282.185 48.6924C282.2 48.8628 282.214 49.0035 282.225 49.1032C282.23 49.1525 282.236 49.1945 282.24 49.2258C282.243 49.2407 282.245 49.2578 282.249 49.2736C282.251 49.2808 282.254 49.2942 282.259 49.3094C282.262 49.3167 282.267 49.3309 282.276 49.3474L282.276 49.3478C282.282 49.3579 282.305 49.4023 282.357 49.4372L282.363 49.4413L282.369 49.4451C282.401 49.4642 282.43 49.4719 282.441 49.4746C282.455 49.4781 282.467 49.4801 282.476 49.4812C282.493 49.4835 282.509 49.4846 282.522 49.4852C282.55 49.4864 282.583 49.4864 282.618 49.4857C282.689 49.4845 282.783 49.4803 282.892 49.4742C283.109 49.4619 283.391 49.4413 283.671 49.418C283.951 49.3946 284.23 49.3682 284.442 49.3444C284.548 49.3325 284.64 49.321 284.707 49.3103C284.74 49.3052 284.772 49.2994 284.799 49.293C284.811 49.29 284.831 49.285 284.851 49.2772C284.86 49.2735 284.879 49.266 284.899 49.2532L284.9 49.253C284.912 49.2453 284.969 49.2098 285 49.1353C285.01 49.1105 285.014 49.0902 285.015 49.0844L285.015 49.0841C285.017 49.0733 285.018 49.0642 285.019 49.0589C285.02 49.048 285.02 49.0382 285.02 49.0318C285.021 49.0182 285.021 49.0028 285.02 48.9877C285.02 48.9567 285.018 48.9148 285.016 48.8646C285.011 48.7636 285.003 48.6216 284.992 48.4496C284.97 48.1052 284.937 47.6367 284.898 47.1268C284.861 46.6202 284.827 46.1583 284.803 45.8218C284.795 45.7016 284.787 45.5975 284.782 45.5131C284.83 45.5105 284.882 45.5081 284.938 45.5062L284.944 45.506L284.944 45.5059L284.967 45.5045C285.193 45.4908 285.574 45.4676 285.828 45.4469C285.931 45.4386 286.027 45.4319 286.107 45.4277C286.117 45.5161 286.129 45.6302 286.141 45.7654C286.173 46.1064 286.212 46.575 286.25 47.0882C286.288 47.6027 286.323 48.0709 286.35 48.411C286.363 48.5809 286.374 48.7194 286.382 48.8157C286.387 48.8637 286.39 48.9022 286.393 48.9292C286.394 48.9424 286.395 48.9547 286.397 48.9645C286.397 48.9688 286.398 48.9762 286.399 48.984C286.4 48.987 286.402 48.9962 286.404 49.0073C286.406 49.012 286.409 49.0253 286.416 49.0413C286.419 49.0491 286.427 49.0649 286.439 49.0829C286.447 49.0959 286.477 49.1395 286.537 49.1684L286.546 49.1732L286.546 49.173C286.593 49.1931 286.638 49.195 286.639 49.1952C286.654 49.1963 286.669 49.1967 286.682 49.1967C286.708 49.1969 286.74 49.196 286.774 49.1945C286.845 49.1915 286.94 49.1855 287.049 49.1776C287.267 49.1617 287.552 49.1373 287.833 49.1111C288.115 49.0848 288.396 49.0564 288.609 49.0323C288.714 49.0203 288.805 49.0091 288.871 48.9996C288.903 48.9949 288.933 48.9902 288.957 48.9854C288.968 48.9831 288.984 48.9797 289 48.9748C289.008 48.9725 289.023 48.9676 289.041 48.9591C289.05 48.9549 289.066 48.9468 289.083 48.9337C289.098 48.923 289.135 48.894 289.16 48.8416L289.166 48.8292L289.171 48.8161C289.179 48.7927 289.182 48.7732 289.183 48.7673C289.184 48.7586 289.185 48.7512 289.186 48.7465C289.186 48.7371 289.187 48.7284 289.187 48.7221C289.187 48.7091 289.187 48.6942 289.187 48.679C289.186 48.6479 289.184 48.606 289.182 48.5554C289.178 48.4537 289.17 48.3112 289.159 48.1387C289.138 47.7932 289.107 47.3242 289.068 46.8139C289.03 46.3075 288.997 45.8445 288.975 45.5068C288.965 45.3691 288.958 45.2526 288.953 45.1627C288.953 45.1626 288.953 45.1625 288.954 45.1624C289.081 45.138 289.256 45.1066 289.45 45.0739C290.558 44.8904 291.118 44.7437 292.022 44.4038L292.022 44.4037C293.176 43.9677 293.816 43.5566 294.444 42.8216L294.444 42.8211C294.986 42.1824 295.331 41.2854 295.467 40.338C295.603 39.3887 295.533 38.3668 295.224 37.4663C295.11 37.1333 295.006 36.8838 294.863 36.6536C294.721 36.423 294.546 36.2226 294.303 35.9798L294.303 35.9797C293.794 35.4711 293.093 35.1159 292.216 34.8972C292.691 34.5074 293.049 34.0611 293.286 33.5496C293.568 32.9426 293.672 32.2591 293.614 31.4954C293.614 31.4953 293.614 31.4952 293.614 31.4952L293.365 31.5143C293.322 30.9506 293.095 30.1196 292.864 29.703L283.021 23.7822ZM283.021 23.7822L283.032 23.7896C283.077 23.818 283.101 23.8531 283.11 23.8662C283.12 23.8829 283.127 23.8976 283.131 23.9061C283.138 23.9233 283.143 23.9385 283.145 23.9468C283.15 23.9647 283.154 23.9835 283.156 23.9991C283.162 24.0317 283.168 24.0746 283.175 24.1239C283.188 24.2236 283.203 24.3635 283.219 24.5326C283.252 24.8713 283.291 25.3338 283.328 25.84C283.366 26.3442 283.402 26.8024 283.43 27.1348C283.44 27.2516 283.448 27.3525 283.456 27.4342C283.473 27.4327 283.491 27.4312 283.51 27.4296C283.68 27.4148 283.905 27.3941 284.129 27.3727C284.354 27.3512 284.576 27.329 284.743 27.3112C284.758 27.3096 284.772 27.3081 284.786 27.3066C284.781 27.2231 284.773 27.1194 284.765 26.9992C284.75 26.782 284.73 26.5116 284.709 26.2104C284.697 26.0511 284.685 25.8833 284.673 25.7102C284.637 25.2073 284.605 24.749 284.582 24.4156C284.571 24.2489 284.562 24.1131 284.556 24.0185C284.554 23.9971 284.553 23.9777 284.552 23.9605C284.551 23.9397 284.55 23.922 284.549 23.9077L284.548 23.8751L284.547 23.8607L284.547 23.8588C284.547 23.8561 284.547 23.8519 284.547 23.8471C284.547 23.8443 284.548 23.8374 284.549 23.8288C284.549 23.8246 284.55 23.8165 284.552 23.8065C284.553 23.8009 284.558 23.7749 284.573 23.7447L284.797 23.8546L284.573 23.7447C284.607 23.6735 284.665 23.6417 284.675 23.6361L284.676 23.6357C284.695 23.6254 284.71 23.6196 284.717 23.6172C284.733 23.6118 284.746 23.6089 284.752 23.6077C284.765 23.6048 284.778 23.6027 284.788 23.6012C284.81 23.5981 284.838 23.5948 284.87 23.5915C284.934 23.5847 285.024 23.5765 285.13 23.5676C285.341 23.5497 285.622 23.5283 285.903 23.5083C286.184 23.4882 286.467 23.4694 286.682 23.4568C286.79 23.4505 286.882 23.4457 286.949 23.443C286.983 23.4417 287.012 23.4408 287.035 23.4406C287.046 23.4405 287.058 23.4406 287.07 23.4411C287.076 23.4413 287.085 23.4418 287.095 23.443L287.095 23.4431C287.1 23.4436 287.13 23.4468 287.164 23.4607L287.172 23.4638L287.179 23.4675C287.236 23.4955 287.267 23.5371 287.276 23.5511C287.289 23.5695 287.297 23.5859 287.301 23.5947C287.309 23.6128 287.313 23.6288 287.315 23.6369C287.32 23.6547 287.324 23.6734 287.327 23.6883C287.332 23.72 287.338 23.7617 287.345 23.8096C287.357 23.9066 287.372 24.0432 287.388 24.2084C287.42 24.5395 287.458 24.9925 287.495 25.4894L287.495 25.4897C287.53 25.9824 287.565 26.4403 287.591 26.7807C287.604 26.951 287.616 27.0916 287.624 27.1925L287.626 27.2208C287.696 27.2286 287.801 27.2358 287.957 27.2433C290.523 27.3561 292.269 28.101 293.083 29.5823L283.021 23.7822ZM277.912 17.461L277.91 17.4615C274.643 18.8132 271.8 20.9652 269.659 23.706C267.097 26.986 265.592 31.0072 265.407 35.0668L265.407 35.0669C265.247 38.5615 265.942 41.957 267.441 44.998L267.442 44.9982C268.188 46.5173 269.064 47.8384 270.192 49.1667C271.173 50.3186 272.075 51.1735 273.345 52.1416L273.345 52.1418C276.929 54.8809 281.266 56.3016 285.834 56.237L285.834 56.237C289.622 56.185 293.409 55.02 296.562 52.9352L296.562 52.9351C303.352 48.4493 306.781 40.3982 305.298 32.4399L305.298 32.4393C305.087 31.2926 304.966 30.8423 304.515 29.5407L304.514 29.5399C304.187 28.5858 303.99 28.0827 303.776 27.6373L303.776 27.6367C302.683 25.3484 301.421 23.5604 299.687 21.8363L299.687 21.8361C294.588 16.7554 287.173 14.8015 280.189 16.694C279.584 16.8586 278.409 17.2523 277.912 17.461ZM279.986 42.1711C279.986 42.1713 279.986 42.1705 279.986 42.1686C279.986 42.1701 279.986 42.171 279.986 42.1711ZM282.098 45.6798C282.098 45.6798 282.098 45.6797 282.098 45.6797L282.098 45.6798Z" fill="url(#paint17_linear_999_1177)" fill-opacity="0.3" stroke="#AA1A17" stroke-width="0.5"/>
  <path d="M284.04 34.7683C284.065 34.769 284.093 34.7693 284.124 34.7692C284.311 34.7685 284.576 34.7529 284.875 34.7256C285.474 34.6711 286.185 34.5723 286.647 34.4656C287.462 34.2729 288.024 33.9824 288.366 33.6171C288.7 33.2609 288.845 32.8115 288.788 32.2423L288.788 32.2421C288.73 31.6662 288.448 31.2442 287.927 30.9589C287.391 30.6652 286.592 30.5119 285.509 30.5299C285.063 30.5396 284.563 30.5709 284.176 30.6094C283.997 30.6271 283.847 30.6459 283.738 30.6641C283.746 30.7807 283.758 30.9449 283.773 31.1451C283.802 31.5496 283.843 32.1004 283.888 32.6994C283.934 33.299 283.974 33.8528 284.004 34.2614L284.039 34.7529L284.04 34.7683Z" fill="url(#paint18_linear_999_1177)" fill-opacity="0.3" stroke="#AA1A17" stroke-width="0.5"/>
  <path d="M284.56 41.6798C284.58 41.8987 284.597 42.0771 284.61 42.2035C284.618 42.2032 284.626 42.2028 284.635 42.2025C284.774 42.1969 284.963 42.186 285.17 42.1718C285.586 42.1433 286.07 42.1023 286.377 42.0661C287.289 41.9547 287.811 41.8453 288.471 41.6238L288.471 41.6236C289.183 41.3865 289.663 41.1104 289.967 40.7837C290.264 40.4648 290.409 40.0796 290.416 39.5812L290.416 39.5812L290.416 39.5795C290.419 39.4178 290.376 39.1885 290.3 38.9611C290.223 38.7313 290.124 38.5401 290.038 38.4408L290.037 38.4395C289.485 37.7938 288.458 37.4466 286.732 37.4473C286.407 37.4481 285.724 37.4866 285.118 37.531C284.816 37.5531 284.537 37.5764 284.335 37.5968C284.304 37.5999 284.275 37.603 284.248 37.6059C284.258 37.7339 284.271 37.9112 284.287 38.1264C284.321 38.5838 284.367 39.2132 284.417 39.9054C284.469 40.5939 284.52 41.2227 284.56 41.6798ZM284.232 37.3891C284.231 37.3786 284.23 37.3678 284.228 37.3567C284.228 37.3567 284.228 37.3567 284.228 37.3567C284.228 37.3572 284.228 37.3577 284.228 37.3581L284.229 37.3676L284.23 37.3764L284.232 37.3891ZM284.061 37.6312C284.059 37.6315 284.06 37.6314 284.061 37.631L284.061 37.6312ZM284.633 42.3842L284.633 42.3841L284.633 42.3842Z" fill="url(#paint19_linear_999_1177)" fill-opacity="0.3" stroke="#AA1A17" stroke-width="0.5"/>
  <path d="M271.295 408.53L271.44 408.492L271.402 408.347L269.894 402.639L269.855 402.493L269.71 402.532L248.286 408.193L242.047 384.58L242.009 384.435L241.864 384.473L235.465 386.164L235.32 386.203L235.358 386.348L243.144 415.813L243.182 415.958L243.327 415.92L271.295 408.53Z" fill="url(#paint20_linear_999_1177)" fill-opacity="0.3" stroke="#AA1A17" stroke-width="0.3"/>
  <path d="M263.75 386.296C266.981 385.442 268.909 382.129 268.055 378.896C267.201 375.664 263.888 373.736 260.656 374.589C257.423 375.444 255.495 378.757 256.35 381.989C257.204 385.222 260.517 387.15 263.75 386.296Z" fill="url(#paint21_linear_999_1177)" fill-opacity="0.3" stroke="#AA1A17" stroke-width="0.3"/>
  <path d="M48.0246 350.564L48.1696 350.525L48.1313 350.38L46.623 344.672L46.5847 344.527L46.4397 344.566L25.0158 350.226L18.7766 326.614L18.7382 326.469L18.5932 326.507L12.1941 328.198L12.0491 328.236L12.0874 328.381L19.8732 357.847L19.9115 357.992L20.0566 357.954L48.0246 350.564Z" fill="url(#paint22_linear_999_1177)" fill-opacity="0.3" stroke="#AA1A17" stroke-width="0.3"/>
  <path d="M40.4791 328.329C43.7108 327.475 45.6388 324.162 44.7847 320.93C43.9305 317.697 40.6176 315.769 37.3859 316.623C34.153 317.477 32.2249 320.79 33.0791 324.023C33.9332 327.255 37.2461 329.184 40.4791 328.329Z" fill="url(#paint23_linear_999_1177)" fill-opacity="0.3" stroke="#AA1A17" stroke-width="0.3"/>
  <defs>
    <linearGradient id="paint0_linear_999_1177" x1="155.135" y1="329.812" x2="175.703" y2="357.337" gradientUnits="userSpaceOnUse">
      <stop stop-color="#AA1A17"/>
      <stop offset="1" stop-color="#AA1A17" stop-opacity="0"/>
    </linearGradient>
    <linearGradient id="paint1_linear_999_1177" x1="116.843" y1="50.9862" x2="137.411" y2="78.5115" gradientUnits="userSpaceOnUse">
      <stop stop-color="#AA1A17"/>
      <stop offset="1" stop-color="#AA1A17" stop-opacity="0"/>
    </linearGradient>
    <linearGradient id="paint2_linear_999_1177" x1="294.885" y1="236.501" x2="314.284" y2="263.819" gradientUnits="userSpaceOnUse">
      <stop stop-color="#AA1A17"/>
      <stop offset="1" stop-color="#AA1A17" stop-opacity="0"/>
    </linearGradient>
    <linearGradient id="paint3_linear_999_1177" x1="305.559" y1="254.239" x2="324.914" y2="281.495" gradientUnits="userSpaceOnUse">
      <stop stop-color="#AA1A17"/>
      <stop offset="1" stop-color="#AA1A17" stop-opacity="0"/>
    </linearGradient>
    <linearGradient id="paint4_linear_999_1177" x1="80.8645" y1="232.493" x2="100.264" y2="259.811" gradientUnits="userSpaceOnUse">
      <stop stop-color="#AA1A17"/>
      <stop offset="1" stop-color="#AA1A17" stop-opacity="0"/>
    </linearGradient>
    <linearGradient id="paint5_linear_999_1177" x1="91.5387" y1="250.231" x2="110.894" y2="277.487" gradientUnits="userSpaceOnUse">
      <stop stop-color="#AA1A17"/>
      <stop offset="1" stop-color="#AA1A17" stop-opacity="0"/>
    </linearGradient>
    <linearGradient id="paint6_linear_999_1177" x1="404.134" y1="334.913" x2="401.398" y2="367.533" gradientUnits="userSpaceOnUse">
      <stop stop-color="#AA1A17"/>
      <stop offset="1" stop-color="#AA1A17" stop-opacity="0"/>
    </linearGradient>
    <linearGradient id="paint7_linear_999_1177" x1="408.544" y1="291.234" x2="404.129" y2="343.871" gradientUnits="userSpaceOnUse">
      <stop stop-color="#AA1A17"/>
      <stop offset="1" stop-color="#AA1A17" stop-opacity="0"/>
    </linearGradient>
    <linearGradient id="paint8_linear_999_1177" x1="375.676" y1="145.474" x2="372.231" y2="169.858" gradientUnits="userSpaceOnUse">
      <stop stop-color="#AA1A17"/>
      <stop offset="1" stop-color="#AA1A17" stop-opacity="0"/>
    </linearGradient>
    <linearGradient id="paint9_linear_999_1177" x1="380.849" y1="112.857" x2="375.29" y2="152.203" gradientUnits="userSpaceOnUse">
      <stop stop-color="#AA1A17"/>
      <stop offset="1" stop-color="#AA1A17" stop-opacity="0"/>
    </linearGradient>
    <linearGradient id="paint10_linear_999_1177" x1="142.148" y1="454.201" x2="155.83" y2="474.676" gradientUnits="userSpaceOnUse">
      <stop stop-color="#AA1A17"/>
      <stop offset="1" stop-color="#AA1A17" stop-opacity="0"/>
    </linearGradient>
    <linearGradient id="paint11_linear_999_1177" x1="124.267" y1="426.435" x2="146.345" y2="459.474" gradientUnits="userSpaceOnUse">
      <stop stop-color="#AA1A17"/>
      <stop offset="1" stop-color="#AA1A17" stop-opacity="0"/>
    </linearGradient>
    <linearGradient id="paint12_linear_999_1177" x1="227.22" y1="195.917" x2="209.053" y2="142.972" gradientUnits="userSpaceOnUse">
      <stop stop-color="#AA1A17"/>
      <stop offset="1" stop-color="#AA1A17" stop-opacity="0"/>
    </linearGradient>
    <linearGradient id="paint13_linear_999_1177" x1="224.73" y1="188.705" x2="211.5" y2="150.153" gradientUnits="userSpaceOnUse">
      <stop stop-color="#AA1A17"/>
      <stop offset="1" stop-color="#AA1A17" stop-opacity="0"/>
    </linearGradient>
    <linearGradient id="paint14_linear_999_1177" x1="219.446" y1="168.012" x2="217.796" y2="163.201" gradientUnits="userSpaceOnUse">
      <stop stop-color="#AA1A17"/>
      <stop offset="1" stop-color="#AA1A17" stop-opacity="0"/>
    </linearGradient>
    <linearGradient id="paint15_linear_999_1177" x1="220.563" y1="175.382" x2="218.71" y2="169.983" gradientUnits="userSpaceOnUse">
      <stop stop-color="#AA1A17"/>
      <stop offset="1" stop-color="#AA1A17" stop-opacity="0"/>
    </linearGradient>
    <linearGradient id="paint16_linear_999_1177" x1="294.603" y1="62.6034" x2="276.435" y2="9.65899" gradientUnits="userSpaceOnUse">
      <stop stop-color="#AA1A17"/>
      <stop offset="1" stop-color="#AA1A17" stop-opacity="0"/>
    </linearGradient>
    <linearGradient id="paint17_linear_999_1177" x1="292.112" y1="55.3916" x2="278.883" y2="16.8395" gradientUnits="userSpaceOnUse">
      <stop stop-color="#AA1A17"/>
      <stop offset="1" stop-color="#AA1A17" stop-opacity="0"/>
    </linearGradient>
    <linearGradient id="paint18_linear_999_1177" x1="286.829" y1="34.6986" x2="285.178" y2="29.8878" gradientUnits="userSpaceOnUse">
      <stop stop-color="#AA1A17"/>
      <stop offset="1" stop-color="#AA1A17" stop-opacity="0"/>
    </linearGradient>
    <linearGradient id="paint19_linear_999_1177" x1="287.946" y1="42.0685" x2="286.093" y2="36.6697" gradientUnits="userSpaceOnUse">
      <stop stop-color="#AA1A17"/>
      <stop offset="1" stop-color="#AA1A17" stop-opacity="0"/>
    </linearGradient>
    <linearGradient id="paint20_linear_999_1177" x1="244" y1="416" x2="259" y2="385.5" gradientUnits="userSpaceOnUse">
      <stop stop-color="#AA1A17"/>
      <stop offset="1" stop-color="#AA1A17" stop-opacity="0"/>
    </linearGradient>
    <linearGradient id="paint21_linear_999_1177" x1="260.694" y1="374.735" x2="263.711" y2="386.151" gradientUnits="userSpaceOnUse">
      <stop stop-color="#AA1A17"/>
      <stop offset="1" stop-color="#AA1A17" stop-opacity="0"/>
    </linearGradient>
    <linearGradient id="paint22_linear_999_1177" x1="19.5" y1="358" x2="38" y2="327" gradientUnits="userSpaceOnUse">
      <stop stop-color="#AA1A17"/>
      <stop offset="1" stop-color="#AA1A17" stop-opacity="0"/>
    </linearGradient>
    <linearGradient id="paint23_linear_999_1177" x1="37.4236" y1="316.768" x2="40.4401" y2="328.184" gradientUnits="userSpaceOnUse">
      <stop stop-color="#AA1A17"/>
      <stop offset="1" stop-color="#AA1A17" stop-opacity="0"/>
    </linearGradient>
  </defs>
</svg>
