<svg width="196" height="155" viewBox="0 0 196 155" fill="none" xmlns="http://www.w3.org/2000/svg">
  <path d="M72.6797 179.153C40.5507 176.14 16.9416 147.645 19.9547 115.516C22.9677 83.3869 51.4533 59.7769 83.5921 62.7909C99.0703 64.2424 112.566 71.6091 122.071 82.4438L144.177 63.0558C129.894 46.767 109.599 35.6926 86.3379 33.5113C38.0328 28.9813 -4.78527 64.466 -9.31436 112.761C-13.8434 161.057 21.6404 203.885 69.9357 208.414C93.1966 210.595 115.196 203.497 132.258 190.147L114.142 166.987C102.788 175.876 88.1579 180.605 72.6797 179.153Z" fill="white"/>
  <path d="M161.838 147.664C158.618 157.814 153.611 167.102 147.238 175.216L124.129 157.024C128.371 151.624 131.699 145.434 133.838 138.674L161.838 147.664Z" fill="white"/>
  <path d="M132.246 190.158L146.075 207.841C124.656 224.595 97.0394 233.513 67.8277 230.774C7.19431 225.087 -37.3634 171.319 -31.6763 110.676C-25.9893 50.0325 27.7893 5.47576 88.4323 11.1628C117.644 13.9022 143.121 27.7993 161.051 48.2434L144.176 63.0475C129.893 46.7684 109.597 35.694 86.3363 33.5126C38.0313 28.9826 -4.78683 64.4673 -9.31592 112.763C-13.845 161.058 21.6388 203.886 69.9342 208.415C93.1942 210.606 115.194 203.508 132.246 190.158ZM165.289 109.925L187.577 107.155C185.914 93.9176 181.884 81.3181 175.88 69.8631L155.96 80.2264C160.746 89.3477 163.97 99.3784 165.289 109.925ZM161.838 147.664C158.617 157.814 153.611 167.102 147.237 175.216L164.884 189.102C172.888 178.922 179.172 167.27 183.222 154.529L161.838 147.664Z" fill="url(#paint0_linear_289_496)"/>
  <path d="M165.292 109.925L136.108 113.553C135.221 106.538 133.07 99.8736 129.875 93.8054L155.963 80.227C160.749 89.3482 163.973 99.379 165.292 109.925Z" fill="white"/>
  <defs>
    <linearGradient id="paint0_linear_289_496" x1="-31.6761" y1="110.673" x2="185.42" y2="131.032" gradientUnits="userSpaceOnUse">
      <stop stop-color="#B50400"/>
      <stop offset="0.5133" stop-color="#B50300"/>
      <stop offset="1" stop-color="#970000"/>
    </linearGradient>
  </defs>
</svg>
