<svg width="23" height="18" viewBox="0 0 23 18" fill="none" xmlns="http://www.w3.org/2000/svg">
  <path d="M19.1812 1.79731C17.7465 1.13898 16.2079 0.653959 14.5993 0.376165C14.57 0.370804 14.5407 0.384202 14.5256 0.410999C14.3277 0.76293 14.1086 1.22205 13.9551 1.58292C12.2249 1.32389 10.5035 1.32389 8.80878 1.58292C8.65527 1.21403 8.42813 0.76293 8.22937 0.410999C8.21428 0.385096 8.18502 0.371698 8.15572 0.376165C6.54795 0.653072 5.0094 1.1381 3.57376 1.79731C3.56133 1.80267 3.55068 1.81161 3.54361 1.82321C0.625291 6.18311 -0.174157 10.4359 0.218025 14.6359C0.2198 14.6564 0.231335 14.6761 0.247306 14.6886C2.17273 16.1025 4.03783 16.961 5.86829 17.5299C5.89759 17.5389 5.92863 17.5282 5.94727 17.504C6.38027 16.9127 6.76624 16.2893 7.09718 15.6336C7.11671 15.5952 7.09807 15.5496 7.05815 15.5344C6.44593 15.3022 5.86297 15.0191 5.3022 14.6975C5.25784 14.6716 5.25429 14.6082 5.29509 14.5778C5.4131 14.4894 5.53114 14.3973 5.64382 14.3044C5.66421 14.2875 5.69261 14.2839 5.71658 14.2946C9.40059 15.9766 13.389 15.9766 17.0295 14.2946C17.0535 14.283 17.0819 14.2866 17.1032 14.3036C17.2159 14.3965 17.3339 14.4894 17.4528 14.5778C17.4936 14.6082 17.4909 14.6716 17.4466 14.6975C16.8858 15.0253 16.3028 15.3022 15.6897 15.5336C15.6498 15.5487 15.632 15.5952 15.6516 15.6336C15.9896 16.2883 16.3756 16.9118 16.8006 17.5031C16.8184 17.5282 16.8503 17.5389 16.8796 17.5299C18.7189 16.961 20.584 16.1025 22.5094 14.6886C22.5263 14.6761 22.537 14.6573 22.5387 14.6368C23.0081 9.78108 21.7526 5.56321 19.2105 1.8241C19.2043 1.81161 19.1936 1.80267 19.1812 1.79731ZM7.64733 12.0785C6.53819 12.0785 5.62429 11.0602 5.62429 9.80967C5.62429 8.55913 6.52047 7.54085 7.64733 7.54085C8.78304 7.54085 9.6881 8.56807 9.67034 9.80967C9.67034 11.0602 8.77416 12.0785 7.64733 12.0785ZM15.1272 12.0785C14.0181 12.0785 13.1042 11.0602 13.1042 9.80967C13.1042 8.55913 14.0003 7.54085 15.1272 7.54085C16.2629 7.54085 17.1679 8.56807 17.1502 9.80967C17.1502 11.0602 16.2629 12.0785 15.1272 12.0785Z" fill="white"/>
</svg>
