<svg width="128" height="50" viewBox="0 0 128 50" fill="none" xmlns="http://www.w3.org/2000/svg">
  <g clip-path="url(#clip0_33_367)">
    <path d="M125.688 19.722V11.7483H117.754V2.04089L109.784 6.86898V31.7483C109.784 36.218 111.119 39.7365 113.744 42.2093C117.485 45.7205 122.691 46.0497 124.522 46.0497C124.901 46.0497 125.134 46.0351 125.185 46.0351L125.681 45.9986V38.493L125.12 38.5222C125.09 38.5222 122.101 38.6539 119.964 36.6202C118.491 35.2157 117.747 33.109 117.747 30.3584V19.722H125.688Z" fill="white"/>
    <path d="M122.458 14.8135C123.391 15.3548 124.631 15.5889 125.689 15.2963V11.7484H119.636C120.307 12.9847 121.255 14.1113 122.458 14.8135Z" fill="white"/>
    <path d="M25.7343 12.1141L25.3915 12.18H25.3769C23.7727 12.5604 22.3288 13.3651 21.0818 14.221V11.8362H13.1406V46.218H21.0818V28.9905C21.0818 26.3716 21.4319 23.9064 22.4746 22.3775C23.831 20.3804 26.1572 19.7659 29.2273 19.7659H29.7596V11.7996H29.2273C28.0557 11.798 26.8867 11.9033 25.7343 12.1141Z" fill="white"/>
    <path d="M49.5869 11.7629C44.8322 11.7629 40.734 13.4381 37.4015 16.73C34.0691 20.0219 32.3772 24.1477 32.3772 28.9612C32.3772 33.7747 34.0691 37.8932 37.4015 41.1924C40.734 44.4915 44.8322 46.1595 49.5869 46.1595C54.3851 46.1595 58.4979 44.4842 61.8086 41.1851C65.1193 37.8859 66.7964 33.7747 66.7964 28.9612C66.7964 24.1477 65.1193 20.0292 61.8086 16.73C58.4979 13.4308 54.3779 11.7629 49.5869 11.7629ZM58.9136 28.9685C58.9136 31.6825 58.0093 33.9648 56.2229 35.757C54.4361 37.5494 52.2047 38.4564 49.5869 38.4564C46.9689 38.4564 44.7302 37.5494 42.951 35.757C41.1716 33.9648 40.2602 31.6825 40.2602 28.9685C40.2602 26.2545 41.1643 23.9722 42.951 22.1799C44.7374 20.3877 46.9689 19.4806 49.5869 19.4806C52.2047 19.4806 54.4434 20.3877 56.2229 22.1799C58.002 23.9722 58.9064 26.2545 58.9136 28.9685Z" fill="white"/>
    <path d="M88.4179 11.7922C83.6635 11.7922 79.5653 13.4674 76.2328 16.7593C72.9001 20.0512 71.2085 24.177 71.2085 28.9905C71.2085 33.804 72.9001 37.9225 76.2328 41.2217C79.5653 44.5208 83.6635 46.1888 88.4179 46.1888C93.2161 46.1888 97.3291 44.5135 100.64 41.2144C103.95 37.9152 105.628 33.804 105.628 28.9832C105.628 24.1624 103.95 20.0512 100.64 16.752C97.3291 13.4528 93.2161 11.7922 88.4179 11.7922ZM97.7447 28.9905C97.7447 31.7045 96.8406 33.9868 95.0539 35.779C93.2674 37.5714 91.0359 38.4784 88.4179 38.4784C85.8002 38.4784 83.5615 37.5714 81.782 35.779C80.0029 33.9868 79.0912 31.7045 79.0912 28.9905C79.0912 26.2765 79.9956 23.9941 81.782 22.2019C83.5687 20.4097 85.8002 19.5025 88.4179 19.5025C91.0359 19.5025 93.2747 20.4097 95.0539 22.2019C96.8333 23.9941 97.7447 26.2838 97.7447 28.9905Z" fill="white"/>
    <path d="M7.94121 11.8362H0V19.8025H7.94121V11.8362Z" fill="white"/>
    <path d="M7.94121 38.2662H0V46.2325H7.94121V38.2662Z" fill="white"/>
    <path d="M32.4795 29.5464C35.9215 31.3826 44.5628 35.4059 53.2551 32.9408C55.078 32.4287 57.9074 31.4924 61.1088 28.9101C61.8526 28.3101 62.5598 27.6592 67.6134 21.1924C72.2657 15.2451 72.8639 14.2722 74.7379 12.6994C78.3255 9.69281 80.6591 9.48064 81.9862 9.54649C83.0072 9.59039 84.0791 9.6562 85.2679 10.5999C87.0253 11.9898 88.1628 14.594 89.1472 16.8398C89.3734 17.3519 90.0368 18.9101 91.0725 20.8632C91.2694 21.229 91.364 21.4119 91.4736 21.6021C91.9111 22.3409 92.9172 23.8625 94.2809 24.8208C97.1396 26.8252 99.8886 25.1573 100.421 24.8208C99.757 25.1556 99.0303 25.3467 98.288 25.382C97.5453 25.4173 96.8041 25.2959 96.1114 25.0256C94.9591 24.5867 94.1061 23.8479 93.7048 23.4748C92.509 22.3409 91.809 21.0535 91.087 19.6928C90.0223 17.6884 90.1537 17.33 88.8556 14.6526C87.9439 12.7652 87.4846 11.8215 86.6606 10.8267C85.3627 9.25387 84.1084 8.63938 83.6781 8.44918C83.2698 8.26632 82.3948 7.93713 80.9363 7.99564C80.0684 8.03221 77.9465 8.25898 75.0513 10.2707C73.5856 11.2875 72.6888 12.2531 70.9751 14.0893C68.9188 16.2985 68.2551 17.3665 66.0456 20.022C63.7338 22.8018 62.5746 24.1917 61.1526 25.4645C60.3723 26.1668 57.1127 29.0051 52.2414 30.161C47.9901 31.1632 44.5773 30.395 41.7114 29.7146C38.3644 28.9174 35.6006 27.6665 33.6535 26.6277C33.2598 27.5933 32.866 28.5736 32.4795 29.5464Z" fill="#AA1A17"/>
    <path d="M37.9048 27.3153C40.3114 27.3446 46.2981 27.6445 51.8841 30.5559C53.6664 31.4545 55.3237 32.5835 56.8137 33.9138C57.2657 34.3233 57.6887 34.7402 60.5982 38.4492C63.2744 41.8655 63.6099 42.3849 64.7402 43.4382C66.9134 45.4427 68.4374 46.0424 69.3197 46.3059C69.9979 46.518 70.7124 46.7228 71.5585 46.6129C72.8125 46.4447 73.7462 45.6548 74.5482 44.9672C75.039 44.541 75.5555 44.1452 76.0942 43.782C76.2473 43.6795 76.3201 43.6284 76.415 43.5773C77.0522 43.2082 77.7608 42.9809 78.4933 42.9115C80.5204 42.7433 82.2268 44.016 82.555 44.2722C81.7039 43.7017 80.7285 43.3452 79.7112 43.2334C79.1459 43.1756 78.5753 43.2054 78.0193 43.3211C77.1514 43.5113 76.6046 43.8697 76.0284 44.2576C75.1899 44.8281 75.2482 44.9964 74.2127 45.7865C73.4835 46.3424 73.119 46.6202 72.5063 46.8326C71.8209 47.0725 71.0944 47.1722 70.3697 47.125C70.0855 47.1104 69.4873 47.0447 68.525 46.7009C67.9488 46.4961 66.5631 45.9326 64.784 44.4843C63.8871 43.7528 63.3548 43.1674 62.3411 42.0483C61.1305 40.7096 60.7585 40.1318 59.4752 38.5736C58.1335 36.9495 57.4553 36.1304 56.602 35.3037C56.1354 34.85 54.1664 32.9846 51.0235 31.4483C48.2817 30.1026 45.9702 29.6562 44.0231 29.2978C42.1949 28.9542 40.3407 28.7705 38.4809 28.7492C38.284 28.2736 38.0944 27.7908 37.9048 27.3153Z" fill="#AA1A17"/>
    <path d="M69.9248 44.7256C69.4842 44.6034 69.0743 44.3888 68.7218 44.0966C68.6641 44.0497 68.6105 43.9983 68.5612 43.943C68.2887 43.6815 68.033 43.4028 67.7957 43.109C67.4164 42.6407 66.9716 42.0995 66.1986 41.8436C65.6735 41.6753 65.1849 41.6899 64.7036 41.7118C64.2443 41.7337 63.5223 41.807 62.4431 42.1655C62.4504 42.0264 62.4649 41.8874 62.4724 41.7483C63.0583 41.5767 63.6587 41.4593 64.2661 41.3972C64.9515 41.3388 65.3453 41.3826 65.5277 41.4118C65.987 41.4781 66.4312 41.6242 66.8403 41.8436C67.1903 42.041 67.3727 42.2312 67.7299 42.6261C68.2405 43.1823 68.1674 43.2627 68.5977 43.6722C68.8894 43.9503 69.1739 44.2135 69.6914 44.4332C70.033 44.5697 70.3911 44.6607 70.7561 44.7037C71.4349 44.7736 72.1209 44.7113 72.7763 44.5208C72.5284 44.6233 71.1937 45.0843 69.9248 44.7256Z" fill="#AA1A17"/>
    <path d="M86.4856 16.3716C87.0252 17.4982 87.6448 18.7198 88.622 19.5318C89.5746 19.5423 90.5205 19.6926 91.4296 19.9781C91.7235 19.7904 91.9826 19.5528 92.1954 19.2758C92.9609 18.2956 93.3694 17.0154 93.5588 15.801C93.7266 14.6891 93.6246 13.5918 93.4567 12.4945C90.4338 11.66 87.2513 11.5921 84.1958 12.297C85.202 13.4821 85.8074 14.9744 86.4856 16.3716Z" fill="white"/>
    <path d="M62.9536 2.52378C62.636 3.07548 62.4118 3.67615 62.2899 4.30138C62.2754 4.38185 62.2606 4.46233 62.2461 4.60862C62.1806 5.09143 62.1441 5.49379 62.1296 5.77907C62.1148 5.99121 62.1148 6.13753 62.1148 6.1741C62.1003 6.56913 61.9544 8.01756 61.0721 9.50989C60.5908 10.3219 60.2335 10.5852 59.8178 11.5216C59.7043 11.7803 59.6092 12.0467 59.5333 12.3189C59.395 12.7944 59.2126 13.6576 59.3292 13.7015C59.5116 13.7674 60.1532 11.4777 61.1962 10.0439C61.5657 9.52388 61.8671 8.9584 62.093 8.36138C62.2754 7.82736 62.3117 7.4616 62.3775 6.72275C62.4723 5.67666 62.3482 5.66202 62.4648 4.83539C62.5451 4.27214 62.6181 3.73812 62.9461 3.02854C63.1622 2.57248 63.4263 2.14087 63.7336 1.74104C64.271 1.04599 64.9311 0.455857 65.6807 0C65.3817 0.146306 63.8577 0.965618 62.9536 2.52378Z" fill="#AA1A17"/>
    <path d="M90.8244 26.2399C90.0096 26.9919 89.0344 27.5474 87.973 27.8639C87.8272 27.9078 87.6961 27.9298 87.4334 27.9883C86.5151 28.1843 85.5842 28.3163 84.6478 28.3834C83.1383 28.5076 81.3881 28.6466 79.8861 29.9124C78.9162 30.7315 78.3618 31.7848 77.8005 32.875C77.5891 33.2919 77.4285 33.6503 77.3264 33.8992C75.9627 34.7778 74.4463 35.3907 72.8564 35.7059C75.4669 33.6065 77.0857 31.9093 78.1139 30.6876C78.6535 30.0438 79.4193 29.2098 80.6664 28.5517C81.5267 28.098 82.1832 28.0029 83.4958 27.8054C85.3553 27.5274 85.4573 27.8054 86.8938 27.4982C87.8782 27.286 88.8043 27.0812 89.9128 26.2912C90.6328 25.7687 91.2695 25.1397 91.8016 24.4258C93.1142 22.692 93.6173 20.812 93.8141 19.8976C93.7266 20.5852 93.1432 24.0893 90.8244 26.2399Z" fill="#AA1A17"/>
    <path d="M86.5074 10.1537C85.9436 10.1534 85.3839 10.0569 84.8521 9.86838C84.7865 9.84644 84.7207 9.81717 84.6042 9.76597C84.1923 9.59358 83.7929 9.39316 83.4084 9.16611C82.7957 8.81498 82.081 8.41265 81.0601 8.36875C80.3746 8.33951 79.784 8.4931 79.2154 8.63942C78.3177 8.87779 77.4532 9.22672 76.6411 9.67819C76.6046 9.5392 76.5681 9.40751 76.5391 9.26852C77.1972 8.93855 77.8829 8.66687 78.5882 8.45653C79.0862 8.29734 79.5994 8.18951 80.1194 8.13467C80.6936 8.07813 81.2731 8.10276 81.8403 8.20782C82.3289 8.3029 82.6133 8.44192 83.175 8.7272C83.977 9.12223 83.9187 9.22465 84.5749 9.50993C85.02 9.70012 85.45 9.88302 86.143 9.94886C86.6017 9.99203 87.0638 9.98467 87.5211 9.92692C88.3474 9.82054 89.1505 9.57832 89.8985 9.21001C89.614 9.36363 88.1483 10.161 86.5074 10.1537Z" fill="#AA1A17"/>
    <path d="M34.1931 32.6115C37.8393 34.4258 47.115 38.6101 57.8781 38.859C60.1317 38.9101 63.6683 38.9174 67.9999 37.9882C69.0136 37.7688 69.976 37.5202 77.3411 34.6014C84.1156 31.9165 85.0345 31.4486 87.5867 30.8632C92.4652 29.7587 95.2508 30.0952 96.7968 30.4022C97.9926 30.6365 99.2325 30.8924 100.421 31.7045C102.178 32.9042 102.951 34.7185 103.608 36.284C104.007 37.2595 104.469 38.2078 104.993 39.1222C105.139 39.3856 105.212 39.5171 105.307 39.6561C105.985 40.6719 106.87 41.532 107.903 42.18C110.82 43.9795 114.429 43.5188 115.122 43.4163C114.167 43.4893 112.161 43.5261 110.003 42.6702C109.108 42.3208 108.27 41.8401 107.516 41.2435C106.357 40.3146 105.825 39.3929 105.27 38.4126C104.454 36.9789 104.687 36.7887 103.753 34.9014C103.097 33.5699 102.762 32.9042 102.018 32.1286C101.162 31.262 100.15 30.5671 99.0356 30.0806C98.598 29.8904 97.6426 29.5098 95.907 29.2539C94.8788 29.1002 92.3338 28.8148 88.4835 29.4514C86.5368 29.7733 85.2752 30.1828 82.854 30.9584C79.9519 31.8873 78.9309 32.4067 75.7516 33.5772C72.4188 34.7988 70.7562 35.4134 68.8019 35.9033C67.73 36.1741 63.2672 37.2494 57.2948 36.9643C52.0738 36.7154 48.2307 35.5595 45.0076 34.5722C41.9855 33.6469 39.0443 32.475 36.2132 31.0679C35.535 31.58 34.8641 32.0921 34.1931 32.6115Z" fill="#AA1A17"/>
    <path d="M122.494 22.3701C121.757 22.8623 121.128 23.5024 120.649 24.2501C120.591 24.3452 120.54 24.4403 120.438 24.6232C120.095 25.2609 119.8 25.9235 119.556 26.6057C119.147 27.6883 118.673 28.9466 117.39 29.8828C116.522 30.5193 115.581 30.7901 114.67 31.046C113.496 31.3752 111.359 31.8435 107.516 31.5289C105.504 31.3679 104.76 31.1339 99.3489 29.9488C98.1383 29.6853 97.1467 29.4733 96.3299 29.2977C96.0164 29.5609 95.6955 29.8171 95.36 30.0511L95.1414 30.2047C96.184 30.3803 97.278 30.5924 98.1821 30.7679C100.72 31.2654 101.537 31.5143 103.848 31.88C105.773 32.18 106.78 32.341 108.304 32.3848C111.323 32.4797 113.27 32.0702 114.057 31.88C115.377 31.5654 116.092 31.2362 116.42 31.0679C116.763 30.8924 117.762 30.373 118.593 29.466C119.118 28.8955 119.329 28.4272 119.76 27.4981C120.358 26.1814 120.168 26.0716 120.708 25.0621C121.072 24.3745 121.43 23.7234 122.261 23.0139C122.816 22.5497 123.432 22.1633 124.091 21.8653C125.703 21.1192 127.256 20.9729 128 20.9436C127.453 20.9363 124.631 20.9436 122.494 22.3701Z" fill="#AA1A17"/>
    <path d="M63.5298 6.97149C61.2107 8.3614 59.9564 10.3731 59.4533 11.3314C59.322 11.5801 59.2272 11.8142 59.023 12.2897C58.31 13.9632 57.7202 15.6869 57.2584 17.447C56.4708 20.3073 55.5592 23.6357 52.6571 25.6182C50.688 26.9569 48.4858 27.2275 46.3494 27.4689C44.2927 27.703 40.975 27.8566 35.5859 26.7008C35.8921 27.4616 36.1986 28.2152 36.5048 28.9759C40.8072 29.6927 43.6658 29.6124 45.0295 29.5245C48.143 29.327 49.7911 28.7711 50.5497 28.4857C51.3444 28.1784 53.6415 27.2202 55.4717 25.0988C56.6312 23.7528 57.0542 22.5457 57.9073 20.1244C59.1106 16.6862 58.6293 16.2912 59.7305 13.6942C60.4815 11.9239 61.2107 10.2634 63.0923 8.69059C63.7119 8.17121 65.0903 7.13241 67.2705 6.4009C70.997 5.14267 74.694 5.55963 76.4734 5.86688C75.1608 5.55963 68.4008 4.06 63.5298 6.97149Z" fill="#AA1A17"/>
    <path d="M82.3947 48.6904C82.1398 48.698 81.8849 48.6733 81.6361 48.6174C81.3439 48.5494 81.0684 48.4224 80.8269 48.2444C80.5204 48.0393 80.5424 47.9736 80.2214 47.725C80.2069 47.7907 80.1849 47.8491 80.1704 47.9151C80.1888 47.9278 80.2061 47.9427 80.2214 47.959C80.4044 48.1224 80.5993 48.2716 80.8048 48.4053C80.8631 48.4418 80.8924 48.4637 80.9289 48.4856C81.1983 48.6387 81.4961 48.7359 81.804 48.771C82.7081 48.8806 83.6125 48.471 83.7801 48.398C83.3386 48.5753 82.8698 48.6741 82.3947 48.6904Z" fill="#AA1A17"/>
    <path d="M85.749 34.5061C85.1311 34.5261 84.5131 34.4646 83.9113 34.3233C83.0069 34.1112 82.4894 33.7674 81.9498 33.3944C81.2133 32.8896 81.2571 32.7359 80.4913 32.114C80.4548 32.2677 80.411 32.4213 80.3672 32.5823C80.411 32.6188 80.4548 32.6629 80.4985 32.6994C80.9442 33.1019 81.4168 33.4736 81.9132 33.8112C82.0591 33.9064 82.1246 33.9576 82.2122 34.0087C82.8645 34.3795 83.5831 34.6182 84.3271 34.7109C86.5073 34.9817 88.6805 33.9941 89.096 33.7966C88.0307 34.2295 86.8977 34.4696 85.749 34.5061Z" fill="#AA1A17"/>
    <path d="M82.5039 27.3153C82.314 27.6365 82.0864 27.9337 81.8257 28.2005C81.4247 28.5954 81.0892 28.7491 80.732 28.9101C80.2434 29.1294 80.1776 29.0564 79.6162 29.2466C79.6817 29.3196 79.7473 29.3856 79.8131 29.4587C79.8496 29.4513 79.8786 29.4367 79.9152 29.4294C80.2632 29.3275 80.6042 29.203 80.9361 29.0564C81.0309 29.0123 81.0819 28.9904 81.133 28.9685C81.5306 28.7508 81.8823 28.4575 82.1684 28.1053C82.9997 27.0739 83.1966 25.6401 83.2259 25.3694C83.1456 25.7425 82.978 26.5252 82.5039 27.3153Z" fill="#AA1A17"/>
    <path d="M67.3289 20.4536C68.83 19.573 70.4444 18.9035 72.127 18.4638C73.2793 18.1639 75.095 17.8128 80.8997 18.0908C86.0916 18.3395 88.3448 18.8004 91.116 18.2444C92.471 17.9532 93.8001 17.552 95.0904 17.0447C95.8391 16.7388 96.5695 16.3895 97.2778 15.9986C97.876 15.6694 98.4373 15.3183 102.572 11.8728C106.371 8.70525 106.874 8.18587 108.369 7.3373C111.235 5.70598 113.022 5.55236 114.035 5.55969C114.816 5.55969 115.625 5.57432 116.493 6.03516C117.776 6.7155 118.535 8.03957 119.191 9.18075C119.586 9.88438 120.019 10.5657 120.489 11.2217C120.62 11.4046 120.686 11.4997 120.766 11.5948C121.072 11.9679 121.772 12.736 122.772 13.2042C124.864 14.1844 127.045 13.2627 127.46 13.0798C126.4 13.4557 125.255 13.5241 124.157 13.2773C123.529 13.1252 122.931 12.8707 122.385 12.5238C121.517 11.9606 121.043 11.3095 120.547 10.6219C119.818 9.60502 119.935 9.42216 119.06 8.06151C118.44 7.1032 118.134 6.62772 117.55 6.13028C116.918 5.58792 116.177 5.18868 115.377 4.95983C115.071 4.87205 114.422 4.71842 113.306 4.78427C112.643 4.82084 111.009 4.98177 108.719 6.07907C107.56 6.63502 106.831 7.1471 105.445 8.13466C103.783 9.31974 103.228 9.88303 101.427 11.3022C99.5458 12.7872 98.598 13.526 97.4602 14.221C96.833 14.6014 94.2225 16.1376 90.4598 16.8326C88.5855 17.1764 86.5146 17.0666 82.4384 16.8179C76.4369 16.4522 73.8917 15.8742 70.8144 17.3958C70.1343 17.7315 69.4915 18.1386 68.8967 18.6102C68.3643 19.2173 67.8467 19.8318 67.3289 20.4536Z" fill="#AA1A17"/>
    <path d="M108.821 10.417C108.042 10.3125 107.249 10.3875 106.503 10.6364C106.4 10.673 106.313 10.7096 106.138 10.7827C105.521 11.0414 104.924 11.3446 104.351 11.6898C103.425 12.2312 102.346 12.8676 100.96 12.7432C100.607 12.7112 100.258 12.6325 99.925 12.5091C99.8739 12.692 99.8229 12.8676 99.7571 13.0431C100.474 13.2378 101.222 13.2924 101.959 13.2041C102.645 13.1163 103.068 12.9042 103.914 12.4872C105.11 11.8873 105.059 11.6898 106.021 11.2802C106.677 11.0022 107.305 10.7388 108.267 10.7462C108.899 10.7546 109.527 10.8607 110.127 11.0607C111.592 11.5362 112.657 12.4214 113.138 12.8749C112.81 12.5238 111.046 10.7242 108.821 10.417Z" fill="#AA1A17"/>
    <path d="M106.561 11.9166C106.312 11.8253 106.052 11.7663 105.788 11.7411C105.477 11.7144 105.165 11.7517 104.869 11.8508C104.505 11.9532 104.497 12.0264 104.104 12.1727C104.111 12.1068 104.111 12.0337 104.118 11.9678C104.14 11.9605 104.162 11.9459 104.184 11.9386C104.418 11.8351 104.659 11.7495 104.906 11.6826C104.954 11.6677 105.002 11.6555 105.051 11.646C105.367 11.5807 105.692 11.5807 106.007 11.646C106.933 11.8289 107.684 12.5311 107.822 12.6701C107.454 12.3402 107.026 12.0844 106.561 11.9166Z" fill="#AA1A17"/>
    <path d="M53.9771 30.7241C56.5513 32.4432 63.1359 36.5399 71.3251 38.3101C73.0387 38.6831 75.7443 39.2098 79.1643 39.2539C79.9591 39.2612 80.7321 39.239 86.7043 38.4491C92.1955 37.7177 92.9537 37.5494 94.9739 37.5494C98.8314 37.5567 100.917 38.1929 102.069 38.6247C102.951 38.9539 103.87 39.305 104.68 40.0073C105.883 41.046 106.255 42.3407 106.568 43.4528C106.76 44.1519 107.001 44.8365 107.29 45.5011C107.371 45.6913 107.414 45.7862 107.465 45.8887C107.878 46.6758 108.452 47.3663 109.15 47.9151C111.162 49.5171 113.977 49.7511 114.517 49.7952C113.773 49.7 112.242 49.4295 110.696 48.5514C110.064 48.2 109.483 47.7646 108.967 47.2567C108.194 46.4811 107.895 45.8011 107.582 45.0839C107.13 44.0306 107.334 43.9429 106.838 42.575C106.496 41.6092 106.32 41.1337 105.839 40.5193C105.081 39.5536 104.133 38.9466 103.805 38.7418C103.491 38.5514 102.806 38.1637 101.515 37.7396C100.749 37.4834 98.8387 36.9202 95.8197 36.7665C94.2957 36.6862 93.282 36.7592 91.3349 36.9056C89.0086 37.0738 88.1701 37.264 85.5961 37.5494C82.905 37.8491 81.5634 37.9955 80.0101 38.0247C79.1571 38.0396 75.6275 38.0761 71.0917 37.0005C67.132 36.0643 64.3392 34.7401 61.9911 33.6137C59.8068 32.5702 57.6988 31.3722 55.6834 30.0292C55.1218 30.2486 54.5532 30.4828 53.9771 30.7241Z" fill="#AA1A17"/>
    <path d="M102.886 43.6795C102.375 43.2828 101.79 42.9941 101.165 42.8312C101.085 42.809 101.004 42.7944 100.851 42.7651C100.324 42.6626 99.7904 42.5991 99.2541 42.575C98.3938 42.5166 97.3946 42.4505 96.4613 41.7848C95.8269 41.3314 95.4403 40.7609 95.0759 40.2121C94.7184 39.6781 94.2008 38.8076 93.734 37.3154C93.5809 37.4396 93.4278 37.5567 93.2747 37.6812C93.5574 38.4784 93.9191 39.2455 94.3539 39.9708C94.6537 40.4809 95.0109 40.9545 95.4186 41.3826C95.879 41.8483 96.4169 42.2295 97.0081 42.5092C97.526 42.7432 97.9052 42.7944 98.6562 42.8896C99.7282 43.0286 99.7575 42.875 100.596 43.0286C101.165 43.1309 101.705 43.2407 102.382 43.6503C102.824 43.9236 103.226 44.2556 103.579 44.6379C104.221 45.3365 104.717 46.1573 105.037 47.0519C104.92 46.6862 104.344 44.8208 102.886 43.6795Z" fill="#AA1A17"/>
    <path d="M107.451 38.0688C107.173 37.8348 106.867 37.6379 106.539 37.4834C106.043 37.2494 105.686 37.2129 105.299 37.1764C104.774 37.125 104.745 37.2129 104.162 37.2056C104.198 37.125 104.235 37.0447 104.278 36.9567H104.38C104.733 36.9449 105.086 36.9548 105.438 36.9862C105.54 36.9935 105.591 37.0008 105.649 37.0081C106.082 37.0854 106.498 37.2416 106.874 37.4688C107.976 38.1418 108.61 39.3562 108.727 39.5977C108.399 39.0132 107.966 38.4949 107.451 38.0688Z" fill="#AA1A17"/>
    <path d="M91.1742 35.6255C90.5075 36.0137 89.757 36.2348 88.9868 36.2691C88.8847 36.2691 88.7972 36.2691 88.6148 36.2545C87.9818 36.2247 87.3524 36.1413 86.7333 36.0059C85.7344 35.8084 84.5749 35.5741 83.3353 36.2107C82.533 36.6202 81.9424 37.2859 81.3445 37.9809C81.1183 38.2444 80.9362 38.4783 80.8193 38.6393C80.2228 38.8533 79.6038 38.998 78.9746 39.071C78.5003 39.1292 78.0218 39.1413 77.5452 39.1076C79.6818 38.0688 81.0965 37.1396 82.0299 36.4446C82.5185 36.0789 83.1967 35.6109 84.1373 35.3694C84.7938 35.2011 85.2313 35.2595 86.1209 35.3694C87.3825 35.523 87.3825 35.7424 88.3814 35.7938C89.0596 35.8303 89.7085 35.8522 90.5911 35.4938C91.1779 35.2438 91.7239 34.9059 92.21 34.4916C93.4278 33.4747 94.1643 32.1946 94.4922 31.5654C94.2663 32.041 93.1361 34.4989 91.1742 35.6255Z" fill="#AA1A17"/>
    <path d="M85.2679 8.02491C85.0124 7.94058 84.7481 7.8866 84.4804 7.86398C84.1747 7.8444 83.8688 7.89182 83.5832 8.00297C83.2333 8.11999 83.2405 8.19317 82.876 8.3541C82.8688 8.28095 82.8615 8.21511 82.854 8.14196C82.876 8.13463 82.8978 8.11999 82.9198 8.11269C83.1379 7.99946 83.3646 7.90404 83.598 7.82738C83.6432 7.81025 83.6895 7.79561 83.7363 7.78351C84.0476 7.71075 84.3702 7.70328 84.6845 7.76157C85.6251 7.92249 86.4784 8.61744 86.6388 8.74912C86.2236 8.43547 85.7606 8.19092 85.2679 8.02491Z" fill="#AA1A17"/>
    <path d="M93.4058 16.8544C94.0985 17.2787 95.8634 18.2736 98.0146 18.5589C98.6931 18.656 99.3805 18.6756 100.064 18.6174C100.268 18.5955 100.472 18.5735 102.018 18.1858C103.44 17.8274 103.637 17.7615 104.162 17.7103C105.168 17.6079 105.715 17.7396 106.021 17.8274C106.255 17.9005 106.495 17.9737 106.721 18.1566C107.05 18.4199 107.159 18.7857 107.254 19.0929C107.312 19.285 107.383 19.4732 107.465 19.6562C107.487 19.7074 107.502 19.7367 107.516 19.7659C107.629 19.9749 107.786 20.157 107.976 20.2999C108.523 20.7023 109.252 20.695 109.398 20.695C109.048 20.6841 108.704 20.5967 108.391 20.4389C108.223 20.3526 108.066 20.2444 107.925 20.1171C107.756 19.9519 107.624 19.7524 107.538 19.5319C107.407 19.2392 107.458 19.21 107.312 18.8369C107.21 18.5735 107.159 18.4346 107.028 18.2736C106.871 18.0908 106.683 17.9372 106.474 17.8201C106.281 17.7213 106.078 17.6452 105.868 17.5933C105.379 17.4783 104.875 17.4364 104.373 17.4689C103.98 17.4836 103.71 17.5348 103.207 17.6299C102.601 17.7396 102.39 17.8128 101.719 17.9664C101.019 18.12 100.676 18.2005 100.275 18.2517C99.4982 18.3404 98.7129 18.3207 97.9415 18.1931C96.8989 18.0322 96.1551 17.725 95.5352 17.4689C94.951 17.231 94.3877 16.9447 93.8506 16.613C93.6975 16.6935 93.5516 16.774 93.4058 16.8544Z" fill="#AA1A17"/>
    <path d="M92.2682 43.4747C91.94 42.1093 91.5657 40.7511 91.1452 39.4C91.0214 38.9977 90.9045 38.5882 90.788 38.1711C90.0116 38.3559 89.2157 38.4466 88.4179 38.4418C85.8001 38.4418 83.5614 37.5348 81.782 35.7424C80.0028 33.9503 79.0912 31.668 79.0912 28.9539C79.0912 28.6101 79.1057 28.2809 79.1349 27.9517C78.708 27.8245 78.2746 27.7195 77.8368 27.6371C75.6346 27.2128 73.4106 27.3957 71.2374 27.82C71.2157 28.193 71.2012 28.5736 71.2012 28.9539C71.2012 33.7674 72.8928 37.8859 76.2252 41.1851C76.2763 41.2362 76.3276 41.28 76.3786 41.3315C77.312 40.7461 78.2454 40.1609 79.2735 39.7365C80.9216 39.0562 82.7956 38.8514 84.2614 40.0438C84.801 40.4829 85.2605 41.0534 85.4209 41.7483C85.5667 42.3994 85.4574 43.0652 85.2092 43.6795C84.9251 44.389 84.4948 45.0329 83.9989 45.6256C85.4449 45.982 86.929 46.159 88.4179 46.1522C89.8738 46.1573 91.3253 45.9902 92.7423 45.6548C92.6037 44.9379 92.4433 44.2062 92.2682 43.4747Z" fill="white"/>
    <path d="M96.0381 30.4683C95.2768 30.4559 94.5191 30.5773 93.7993 30.8267C93.7048 30.8632 93.6245 30.8924 93.4566 30.9657C92.8933 31.2037 92.3431 31.4722 91.8088 31.7702C90.9555 32.2458 89.9711 32.7944 88.6074 32.8236C87.6885 32.8455 86.9083 32.6188 86.1645 32.3994C85.4425 32.1874 84.3268 31.7994 82.8028 30.8924L82.6279 31.4629C83.4807 31.9362 84.3739 32.3329 85.2967 32.648C85.9531 32.8756 86.6294 33.0396 87.3168 33.1382C88.0859 33.2329 88.8648 33.2132 89.6283 33.0798C90.2845 32.9553 90.6783 32.7725 91.4585 32.3921C92.567 31.8582 92.4942 31.7191 93.3911 31.3388C94.0037 31.0826 94.5871 30.8413 95.5278 30.7607C96.1407 30.7121 96.7573 30.7343 97.3652 30.8267C98.4592 30.9921 99.5153 31.3486 100.486 31.8801C100.129 31.6461 98.233 30.4975 96.0381 30.4683Z" fill="#AA1A17"/>
    <path d="M43.1042 34.4258C43.7387 35.5011 45.4158 38.1272 48.2086 39.8609C49.0885 40.4258 50.0402 40.8688 51.038 41.1778C51.3445 41.2727 51.6434 41.3534 54.1153 41.6604C56.3906 41.9458 56.7188 41.9531 57.4991 42.1873C58.9866 42.6261 59.6575 43.1528 60.0148 43.482C60.2847 43.7306 60.5691 43.9941 60.7367 44.4109C60.9847 45.0256 60.8533 45.6548 60.744 46.2034C60.6729 46.539 60.6219 46.8784 60.5909 47.2202C60.5836 47.3152 60.5764 47.3666 60.5764 47.4177C60.5675 47.8031 60.6447 48.1854 60.8023 48.5368C61.2474 49.4952 62.2828 49.9267 62.4797 50C61.9981 49.7739 61.5817 49.4292 61.2691 48.9977C61.0959 48.7576 60.9629 48.4907 60.8753 48.2076C60.7367 47.7615 60.766 47.4177 60.795 47.0593C60.8388 46.5253 60.9409 46.5107 61.0357 45.8303C61.1015 45.3475 61.1378 45.1132 61.0795 44.777C61.0145 44.4031 60.8728 44.0469 60.664 43.7306C60.4791 43.4579 60.2529 43.216 59.993 43.0138C59.7523 42.809 59.1324 42.3334 58.0022 41.9239C57.4333 41.7118 57.025 41.6312 56.2448 41.4775C55.3114 41.2947 54.9466 41.28 53.8967 41.1191C52.7954 40.9508 52.2413 40.8705 51.6434 40.7095C50.4962 40.3896 49.4061 39.8907 48.413 39.2317C47.0784 38.3539 46.2764 37.4323 45.6127 36.6567C44.9807 35.925 44.4169 35.1365 43.9283 34.3014C43.6511 34.3379 43.3739 34.3817 43.1042 34.4258Z" fill="#AA1A17"/>
    <path d="M81.8623 26.0791C80.5965 26.29 79.3014 26.2403 78.0557 25.9328C77.8879 25.8889 77.7493 25.8377 77.4576 25.7426C76.4531 25.4074 75.4715 25.0066 74.5189 24.5429C72.9876 23.8113 71.2084 22.9627 68.9404 23.248C67.4019 23.4382 66.1693 24.0893 64.9808 24.7184C63.8357 25.3256 62.0783 26.3863 59.774 28.5956C59.6282 28.2298 59.4896 27.864 59.3438 27.4982C61.2618 25.8084 62.7565 24.8794 63.493 24.4478C65.1632 23.4748 66.2276 23.1164 66.7309 22.9627C67.2633 22.8018 68.8091 22.3702 70.5885 22.4873C71.7115 22.5677 72.4115 22.8457 73.7972 23.4017C75.766 24.1917 75.6784 24.4916 77.2682 25.0257C78.3474 25.3914 79.3829 25.7206 80.9652 25.6402C82.0014 25.5758 83.0243 25.3716 84.0062 25.033C86.4125 24.221 88.1334 22.8384 88.9282 22.1361C88.3741 22.6775 85.5082 25.4646 81.8623 26.0791Z" fill="#AA1A17"/>
    <path d="M102.747 6.4228C102.498 6.80586 102.332 7.23696 102.259 7.68836C102.251 7.74687 102.244 7.80541 102.237 7.9078C102.202 8.28474 102.195 8.6637 102.215 9.04168C102.237 9.64884 102.259 10.3438 101.85 11.0461C101.573 11.5216 101.187 11.8361 100.815 12.1361C100.457 12.4213 99.8667 12.8529 98.8237 13.2919C98.9185 13.387 99.0209 13.4894 99.123 13.5845C99.6757 13.3276 100.203 13.019 100.698 12.6627C101.044 12.4186 101.36 12.1338 101.639 11.8142C101.937 11.4589 102.174 11.0558 102.339 10.6218C102.47 10.2414 102.477 9.97805 102.492 9.44404C102.514 8.69055 102.404 8.67592 102.455 8.08339C102.492 7.68103 102.528 7.29334 102.776 6.78859C102.94 6.45679 103.151 6.15109 103.403 5.88148C103.865 5.37926 104.42 4.97182 105.037 4.68176C104.774 4.77688 103.469 5.31819 102.747 6.4228Z" fill="#AA1A17"/>
    <path d="M58.6948 23.2188C57.3228 23.8268 55.8415 24.1479 54.3414 24.1624C54.1446 24.1624 53.9697 24.1478 53.6122 24.1259C52.3793 24.0469 51.1537 23.8807 49.9443 23.6284C48.0045 23.248 45.744 22.8091 43.2573 23.7967C41.5729 24.4624 40.3551 25.545 39.1956 26.6058C38.0726 27.6226 36.388 29.327 34.4047 32.4871C34.1347 32.1141 33.8723 31.7483 33.6096 31.3753C35.3015 28.9101 36.7234 27.4324 37.4309 26.7374C39.0425 25.15 40.1435 24.4404 40.6686 24.1185C41.2227 23.782 42.8563 22.8384 44.8982 22.4653C46.196 22.2239 47.0566 22.3336 48.792 22.5604C51.2496 22.8749 51.2349 23.2407 53.1819 23.3797C54.5093 23.4748 55.7706 23.5479 57.5356 22.992C58.692 22.6199 59.7933 22.0933 60.8097 21.4265C63.2964 19.8098 64.8569 17.7542 65.5569 16.7301C65.0973 17.4909 62.6472 21.4631 58.6948 23.2188Z" fill="#AA1A17"/>
    <path d="M122.684 8.50036C122.066 8.5203 121.448 8.45881 120.847 8.31749C119.942 8.10533 119.424 7.76153 118.885 7.38844C118.148 6.8837 118.192 6.73007 117.426 6.10828C117.39 6.2619 117.346 6.4155 117.302 6.57645C117.346 6.61302 117.39 6.6569 117.434 6.6935C117.879 7.09606 118.352 7.46757 118.849 7.80541C118.994 7.90052 119.06 7.95173 119.147 8.00294C119.8 8.37364 120.518 8.61224 121.262 8.70519C123.443 8.97586 125.616 7.9883 126.031 7.79078C124.967 8.22628 123.833 8.46662 122.684 8.50036Z" fill="#AA1A17"/>
    <path d="M125.127 38.5222C125.098 38.5222 122.108 38.6539 119.971 36.6202C118.498 35.2157 117.754 33.109 117.754 30.3584V19.722H125.681V16.0423C124.587 16.2911 123.355 16.1082 122.349 15.5888C120.781 14.7914 119.599 13.3284 118.819 11.7483H117.754V2.04089L109.784 6.86898V31.7483C109.784 33.6722 110.032 35.4278 110.528 36.9932C111.366 36.9859 112.205 37.03 113.029 37.2056C115.669 37.7542 117.681 39.8025 118.63 42.2896C118.988 43.2385 119.171 44.2449 119.169 45.2595C120.906 45.7814 122.709 46.05 124.522 46.057C124.901 46.057 125.134 46.0424 125.185 46.0424L125.681 46.0059V38.5003L125.127 38.5222Z" fill="white"/>
    <path d="M69.4583 32.5677C68.5835 32.5643 67.719 32.3775 66.9206 32.0191C66.8186 31.9677 66.7238 31.9239 66.5414 31.8216C65.9075 31.4784 65.296 31.0949 64.7112 30.673C63.7703 30 62.6766 29.2247 61.116 29.1514C60.0661 29.1003 59.1545 29.3854 58.2866 29.6708C57.4481 29.9489 56.1427 30.4463 54.3415 31.6607C54.2905 31.3972 54.2322 31.134 54.1812 30.8705C55.6689 29.9635 56.7771 29.5098 57.3167 29.3123C58.5493 28.8514 59.3076 28.7345 59.6648 28.6904C60.0368 28.6466 61.1305 28.5371 62.3121 28.8222C63.0558 29.005 63.4934 29.2758 64.3612 29.8098C65.5935 30.5705 65.4987 30.7607 66.5049 31.3095C67.1906 31.6826 67.8468 32.0264 68.9115 32.1508C69.6153 32.2298 70.3267 32.2123 71.0261 32.0994C72.7325 31.8362 74.0524 31.1118 74.6723 30.7314C74.2275 31.046 71.9815 32.5823 69.4583 32.5677Z" fill="#AA1A17"/>
    <path d="M45.1678 24.6964C44.5507 24.4114 43.902 24.2002 43.2355 24.0673C42.2291 23.8771 41.5729 23.9869 40.88 24.1112C39.9321 24.2795 39.9176 24.4477 38.8894 24.7184C38.9112 24.5501 38.9329 24.3819 38.9477 24.2136C39.006 24.1917 39.0643 24.1771 39.1301 24.1551C39.7466 23.9613 40.3749 23.8074 41.0113 23.6942C41.1937 23.665 41.2885 23.643 41.3906 23.6357C42.2085 23.5608 43.0328 23.6453 43.8189 23.8844C46.1377 24.5721 47.9534 26.4887 48.2962 26.8545C47.7858 26.3643 46.6994 25.3914 45.1678 24.6964Z" fill="#AA1A17"/>
    <path d="M111.848 27.264C111.18 27.3859 110.55 27.6586 110.003 28.0614C109.93 28.1126 109.864 28.171 109.74 28.2735C109.294 28.6452 108.877 29.0511 108.493 29.4879C107.859 30.1755 107.122 30.98 105.963 31.2508C105.175 31.4337 104.461 31.3092 103.775 31.1851C103.112 31.0606 102.076 30.812 100.581 30.0219C100.567 30.2485 100.559 30.4755 100.552 30.7095C101.77 31.28 102.66 31.5143 103.09 31.6092C104.067 31.8359 104.65 31.8359 104.92 31.8213C105.603 31.8011 106.275 31.6443 106.896 31.3606C107.436 31.1044 107.735 30.8266 108.326 30.2558C109.164 29.4514 109.077 29.305 109.77 28.7123C110.243 28.3101 110.696 27.9297 111.483 27.681C112.001 27.5231 112.539 27.4442 113.08 27.4469C114.393 27.4469 115.472 27.8858 115.975 28.1199C115.603 27.9223 113.737 26.9201 111.848 27.264Z" fill="#AA1A17"/>
    <path d="M99.8741 27.3153C99.67 27.2348 99.2542 27.1177 98.7073 26.8983C98.2843 26.73 97.9416 26.5691 97.7157 26.4667C97.7374 27.0373 97.7447 27.6225 97.7302 28.2371C97.7229 28.5149 97.7157 28.793 97.7084 29.0635C97.7154 30.1146 97.5629 31.1604 97.2561 32.1652C97.8981 33.0432 98.6635 33.8404 99.3928 34.5868C100.594 35.8011 101.859 36.9489 103.185 38.0247C104.782 35.3986 105.591 32.3994 105.591 29.0635C105.591 28.9247 105.591 28.7784 105.584 28.6393C104.432 28.5809 103.287 28.4638 102.178 28.1491C101.391 27.9078 100.633 27.6225 99.8741 27.3153Z" fill="white"/>
    <path d="M91.3349 28.866C90.6882 29.2711 90.0075 29.6188 89.3003 29.9048C88.2576 30.3292 87.5942 30.4022 86.9012 30.4756C85.9533 30.5778 85.9533 30.4315 84.9324 30.4609C84.9396 30.5997 84.9396 30.7388 84.9469 30.8851H85.122C85.7455 30.8966 86.3691 30.8671 86.9887 30.7975C87.1711 30.7753 87.2659 30.768 87.3752 30.7534C87.7835 30.6876 88.7172 30.4829 89.8692 29.9121C92.2975 28.7199 94.3321 26.5911 94.7184 26.1814C93.6966 27.203 92.5613 28.1036 91.3349 28.866Z" fill="#AA1A17"/>
    <path d="M57.8638 17.4543C57.6666 17.5275 57.4772 17.608 57.2804 17.6884C57.3824 17.2568 57.55 16.8398 57.7979 16.218C58.3375 14.8867 58.5344 14.9452 58.8992 13.8698C59.1471 13.1383 59.373 12.436 59.3219 11.368C59.2854 10.6631 59.153 9.96661 58.9282 9.29779C58.3958 7.65916 57.4697 6.48138 57.0032 5.94006C57.3677 6.31313 59.2199 8.27363 59.6212 10.7535C59.76 11.6132 59.7204 12.4923 59.5043 13.3358C59.4753 13.4455 59.4388 13.548 59.373 13.7382C59.1446 14.4186 58.8716 15.0833 58.5565 15.7279C58.3158 16.2546 58.0459 16.8179 57.8638 17.4543Z" fill="#AA1A17"/>
    <path d="M50.0972 16.9349C49.566 17.2724 49.1095 17.7156 48.7556 18.2371C48.7118 18.3029 48.6753 18.3687 48.5953 18.5004C48.3384 18.953 48.1117 19.4222 47.9171 19.9049C47.5961 20.6731 47.2241 21.5655 46.3055 22.2093C45.6856 22.6409 45.0219 22.8164 44.3802 22.9701C43.7678 23.1237 42.7759 23.3139 41.2153 23.2627C41.2811 23.4456 41.3467 23.6211 41.4197 23.804C42.6738 23.7894 43.5199 23.6431 43.9282 23.5553C44.8543 23.3651 45.3573 23.1456 45.5908 23.0359C46.17 22.766 46.6979 22.3972 47.1513 21.9459C47.5378 21.5509 47.6982 21.2217 48.0264 20.5633C48.4857 19.627 48.3619 19.5465 48.7629 18.8296C49.0401 18.3395 49.3097 17.8786 49.9076 17.3958C50.3056 17.0788 50.7448 16.8179 51.213 16.6204C52.0817 16.256 53.0134 16.0671 53.9548 16.0644C53.5831 16.0352 51.6288 15.962 50.0972 16.9349Z" fill="#AA1A17"/>
    <path d="M47.0128 42.4067C46.5169 40.6146 45.5325 39.071 44.373 37.637C44.3362 37.5898 44.3105 37.5348 44.298 37.4761C44.2855 37.4174 44.2863 37.3567 44.3002 37.2983C44.3142 37.2398 44.3412 37.1856 44.3789 37.139C44.4168 37.0926 44.4648 37.0553 44.5189 37.03C43.9536 36.6646 43.4302 36.2376 42.9583 35.757C41.1792 33.9648 40.2675 31.6825 40.2675 28.9685C40.2675 26.2545 41.1716 23.9721 42.9583 22.1799C43.1187 22.019 43.2865 21.858 43.4614 21.7117C43.3016 20.6975 43.0824 19.6936 42.8052 18.7051C42.3417 17.0881 41.6309 15.5531 40.6978 14.155C39.5018 14.8796 38.3975 15.7467 37.4089 16.7373C34.0764 20.0365 32.3845 24.155 32.3845 28.9685C32.3845 33.782 34.0764 37.9005 37.4089 41.1997C40.2748 44.0379 43.7093 45.6693 47.6472 46.0716C47.5231 44.828 47.3482 43.5991 47.0128 42.4067Z" fill="white"/>
    <path d="M56.0696 21.9458C59.9564 18.2077 61.4149 16.869 61.8014 16.5691C62.0281 16.3968 62.2381 16.2033 62.4286 15.9912C62.6269 15.7764 62.8051 15.5437 62.961 15.2962C63.0558 15.1426 63.1431 14.989 63.6754 13.5917C64.164 12.3116 64.215 12.1141 64.4557 11.719C64.9225 10.9656 65.3235 10.7315 65.5569 10.6291C65.7393 10.5486 65.9362 10.4681 66.1986 10.5047C66.5851 10.5559 66.9351 10.8485 67.234 11.0972C67.2998 11.1558 67.5112 11.324 67.8029 11.5288C67.8397 11.5562 67.8788 11.5807 67.9195 11.602C68.1253 11.7301 68.357 11.8102 68.5977 11.8361C69.2176 11.8873 69.6114 11.4045 69.6842 11.3094C69.4864 11.5249 69.2218 11.6667 68.9332 11.7117C68.7633 11.738 68.5899 11.7306 68.4228 11.6898C68.1457 11.6239 67.9488 11.4923 67.7446 11.3533C67.4457 11.1484 67.4457 11.0826 67.0664 10.7973C66.7965 10.5998 66.6654 10.4974 66.461 10.4169C66.2505 10.3335 66.0232 10.3009 65.7976 10.3218C65.6183 10.3446 65.4448 10.4017 65.287 10.4901C65.1339 10.5705 64.7694 10.79 64.3756 11.3313C64.1712 11.6093 64.0692 11.8288 63.8723 12.2457C63.6316 12.7505 63.5733 12.9626 63.3327 13.5478C63.0775 14.155 62.9537 14.4623 62.7713 14.7768C62.6327 15.0182 62.3265 15.5084 61.4587 16.2399C59.6792 17.7468 58.3449 17.9151 57.4918 19.3782C57.4609 19.4432 57.4268 19.5067 57.3897 19.5684C56.8136 20.6071 56.3688 21.4118 56.0696 21.9458Z" fill="#AA1A17"/>
    <path d="M94.0379 6.22893C93.0343 6.77263 92.1606 7.52898 91.4776 8.44547C91.3864 8.56544 91.3123 8.68468 91.1656 8.91584C90.6469 9.72974 90.184 10.5781 89.7802 11.455C89.1159 12.8566 88.3384 14.4879 86.6081 15.526C85.4368 16.2231 84.233 16.4213 83.0639 16.594C81.9365 16.7615 80.1428 16.9283 77.3491 16.5208C77.4484 16.8822 77.5438 17.2333 77.6408 17.5947C79.8846 17.8215 81.4262 17.7052 82.1663 17.6261C83.8551 17.4462 84.7843 17.1295 85.216 16.9736C85.6694 16.8025 86.982 16.2772 88.1482 15.2033C88.8861 14.5179 89.218 13.929 89.88 12.733C90.8178 11.0431 90.5953 10.8595 91.4113 9.58008C91.9685 8.70224 92.5053 7.88438 93.6442 7.07092C94.3929 6.54797 95.2136 6.13741 96.0806 5.85221C98.1858 5.14336 100.135 5.24283 101.062 5.34013C100.398 5.21943 96.898 4.68176 94.0379 6.22893Z" fill="#AA1A17"/>
    <path d="M95.393 3.5114C95.2803 4.03923 95.1091 4.55277 94.8826 5.04249C94.5327 5.76744 94.1679 6.11929 93.7741 6.48359C93.2412 6.98617 93.1252 6.90423 92.498 7.40606C92.6096 7.4792 92.7167 7.55749 92.8305 7.62552C92.8684 7.59406 92.9094 7.57213 92.9465 7.54067C93.3475 7.26005 93.727 6.94977 94.082 6.61235C94.1551 6.54831 94.2245 6.47965 94.2889 6.40679C94.715 5.92968 95.0447 5.37418 95.2597 4.77109C95.91 2.97373 95.6046 0.851556 95.5383 0.448486C95.6509 1.47074 95.6021 2.50448 95.393 3.5114Z" fill="#AA1A17"/>
    <path d="M94.1426 14.3497C93.7522 14.4404 93.347 14.4449 92.9546 14.3628C92.8991 14.3526 92.859 14.3358 92.7636 14.308C92.4404 14.2145 92.1255 14.0947 91.8221 13.9495C91.3255 13.73 90.7574 13.4704 90.0575 13.5999C89.5842 13.6854 89.2136 13.9239 88.8592 14.1551C88.5159 14.3745 87.9958 14.76 87.3279 15.5369C87.2718 15.4177 87.223 15.2963 87.1689 15.1712C87.5398 14.769 87.9481 14.4033 88.3882 14.079C88.6888 13.8549 89.0162 13.67 89.3631 13.5289C89.7418 13.3794 90.1456 13.3049 90.5524 13.3094C90.9046 13.3189 91.125 13.4009 91.5734 13.5662C92.2064 13.7981 92.1816 13.902 92.6936 14.0556C93.0399 14.1573 93.3659 14.2575 93.8604 14.2019C94.1822 14.1637 94.4967 14.079 94.7943 13.9502C95.349 13.7031 95.847 13.344 96.2572 12.8954C96.0896 13.0988 95.2647 14.0841 94.1426 14.3497Z" fill="#AA1A17"/>
    <path d="M63.5588 2.85291C63.4112 2.89706 63.2693 2.95844 63.1357 3.0358C62.9849 3.12608 62.8555 3.24844 62.7567 3.39425C62.6327 3.56249 62.6547 3.59175 62.5378 3.78928C62.5133 3.7558 62.4865 3.72403 62.4575 3.69417C62.465 3.67954 62.4723 3.67223 62.4796 3.6576C62.5445 3.53178 62.6201 3.41184 62.7057 3.29914C62.7213 3.27622 62.7383 3.25423 62.7567 3.2333C62.8797 3.09796 63.0284 2.98852 63.1943 2.91145C63.6974 2.68466 64.3245 2.73587 64.4411 2.74319C64.1433 2.73625 63.846 2.77322 63.5588 2.85291Z" fill="#AA1A17"/>
    <path d="M49.2517 45.3475C49.038 44.9439 48.9092 44.5009 48.8724 44.0456C48.8654 43.97 48.8629 43.8944 48.8651 43.8186C48.8657 43.4419 48.8902 43.0658 48.9382 42.6922C49.011 42.0922 49.0986 41.3972 48.7486 40.6585C48.5079 40.161 48.1579 39.8172 47.808 39.488C47.4725 39.1661 46.9181 38.6908 45.9192 38.1638C46.0285 38.0762 46.1306 37.9883 46.2399 37.8933C46.7695 38.1967 47.2678 38.552 47.7276 38.954C48.2452 39.4076 48.4859 39.7295 48.5882 39.8829C48.8598 40.2602 49.0601 40.684 49.1789 41.134C49.2809 41.5217 49.2662 41.7925 49.2299 42.3192C49.1861 43.0725 49.0768 43.0798 49.0768 43.6722C49.0768 44.0821 49.0841 44.4624 49.2882 44.9891C49.4229 45.3338 49.6072 45.6565 49.835 45.9475C50.2506 46.4897 50.7684 46.9447 51.3591 47.286C51.1332 47.1619 49.8716 46.5107 49.2517 45.3475Z" fill="#AA1A17"/>
    <path d="M84.0501 49.7733C83.5334 49.7412 83.0233 49.6404 82.5333 49.4733C81.7821 49.2098 81.3593 48.8586 80.9142 48.4856C80.2653 47.937 80.3601 47.8126 79.5726 47.0738C79.0185 46.5471 78.7413 46.291 78.231 46.0351C77.6403 45.7558 77.0065 45.5803 76.3567 45.5157C76.0943 45.4938 75.5399 45.4499 74.5993 45.5814C74.4534 45.6033 74.2565 45.6328 74.0159 45.6839C73.7169 45.9985 73.3449 46.2544 72.9732 46.4887C72.966 46.496 72.9587 46.496 72.9512 46.5033C73.6949 46.2466 74.4657 46.0772 75.2482 45.9985C75.9119 45.9325 76.5974 45.8741 77.3411 46.0789C78.4496 46.3789 79.1278 47.1176 79.7184 47.7469C80.081 48.1466 80.4708 48.5204 80.8852 48.8659C80.9639 48.939 81.0467 49.0072 81.1331 49.071C81.658 49.4508 82.2528 49.7218 82.8833 49.8682C84.6845 50.278 86.5002 49.539 86.8429 49.3926C86.3471 49.5463 85.3042 49.8536 84.0501 49.7733Z" fill="#AA1A17"/>
  </g>
  <defs>
    <clipPath id="clip0_33_367">
      <rect width="128" height="50" fill="white"/>
    </clipPath>
  </defs>
</svg>
