<svg width="23" height="19" viewBox="0 0 23 19" fill="none" xmlns="http://www.w3.org/2000/svg">
  <path fill-rule="evenodd" clip-rule="evenodd" d="M2.37507 8.28855C8.29708 5.7167 12.2394 4.00778 14.2191 3.17869C19.8535 0.82681 21.0379 0.420729 21.7993 0.403809C21.9685 0.403809 22.3407 0.437649 22.5945 0.640689C22.7975 0.80989 22.8483 1.02985 22.8821 1.19905C22.916 1.36825 22.9498 1.72357 22.916 1.99429C22.6114 5.2091 21.2917 13.0092 20.6149 16.5963C20.3272 18.1191 19.7689 18.6267 19.2274 18.6774C18.043 18.779 17.1463 17.8991 16.0126 17.1546C14.2191 15.9872 13.2208 15.2596 11.478 14.109C9.46456 12.7893 10.7674 12.0617 11.918 10.8773C12.2225 10.5728 17.417 5.83514 17.5185 5.41214C17.5354 5.36138 17.5354 5.15834 17.417 5.05682C17.2985 4.9553 17.1293 4.98914 16.994 5.02298C16.8079 5.05682 13.9653 6.95186 8.43244 10.6912C7.62028 11.2495 6.89272 11.5203 6.23284 11.5034C5.50528 11.4864 4.11783 11.0973 3.06879 10.7589C1.79979 10.3528 0.784588 10.1328 0.869188 9.42219C0.919948 9.04995 1.42755 8.67771 2.37507 8.28855Z" fill="white"/>
</svg>
