<svg width="23" height="18" viewBox="0 0 23 18" fill="none" xmlns="http://www.w3.org/2000/svg">
  <path d="M19.8998 4.64829C19.9127 4.83452 19.9127 5.02075 19.9127 5.2087C19.9127 10.9356 15.5529 17.5404 7.58096 17.5404V17.537C5.22601 17.5404 2.91998 16.8659 0.9375 15.594C1.27993 15.6352 1.62407 15.6558 1.96908 15.6566C3.92066 15.6583 5.81646 15.0035 7.35181 13.7977C5.4972 13.7625 3.87088 12.5533 3.30274 10.788C3.95241 10.9133 4.62182 10.8875 5.25948 10.7133C3.23752 10.3048 1.78284 8.52828 1.78284 6.46513C1.78284 6.44625 1.78284 6.42823 1.78284 6.4102C2.38531 6.74577 3.05987 6.932 3.74988 6.9526C1.84549 5.67986 1.25847 3.14641 2.40848 1.16564C4.60895 3.87332 7.85558 5.51938 11.3408 5.69359C10.9915 4.18828 11.4687 2.61088 12.5947 1.5527C14.3403 -0.0882118 17.0857 -0.00410649 18.7266 1.74065C19.6973 1.54927 20.6276 1.19311 21.4789 0.688474C21.1554 1.69173 20.4782 2.54394 19.5737 3.08547C20.4327 2.9842 21.2721 2.7542 22.0625 2.40319C21.4806 3.27514 20.7477 4.03466 19.8998 4.64829Z" fill="white"/>
</svg>
