<svg width="26" height="15" viewBox="0 0 26 15" fill="none" xmlns="http://www.w3.org/2000/svg">
  <path d="M24.8696 11.6994C24.3035 11.0212 23.6602 10.4133 23.0381 9.82548C22.8169 9.61641 22.5882 9.40027 22.3677 9.18534C21.7347 8.56763 21.7116 8.33556 22.2128 7.63393C22.5595 7.15029 22.9272 6.66601 23.2827 6.19766C23.6052 5.77273 23.9387 5.33331 24.2583 4.89245L24.3239 4.80181C24.9348 3.95818 25.5666 3.08583 25.9028 2.03348C25.9901 1.75584 26.0818 1.34727 25.8722 1.00563C25.6627 0.664279 25.2564 0.560137 24.9689 0.511495C24.8267 0.487424 24.6855 0.484138 24.5545 0.484138L20.5538 0.481281L20.5208 0.480995C19.9159 0.480995 19.5083 0.765492 19.2747 1.35084C19.0517 1.91012 18.8067 2.50569 18.5272 3.07197C17.9709 4.1996 17.2644 5.49838 16.2421 6.58158L16.1988 6.62765C16.0781 6.75715 15.9413 6.90379 15.8414 6.90379C15.826 6.90379 15.8094 6.90086 15.7905 6.89493C15.5787 6.81258 15.4366 6.30094 15.443 6.06294C15.4431 6.05966 15.4432 6.05637 15.4432 6.05309L15.4404 1.43813C15.4404 1.42213 15.4392 1.40627 15.4372 1.39041C15.3354 0.640208 15.11 0.173212 14.2582 0.0067138C14.2356 0.00221385 14.2124 0 14.1894 0H10.0296C9.35182 0 8.97839 0.274926 8.62736 0.686422C8.53261 0.796421 8.33537 1.02542 8.43313 1.3032C8.53232 1.58513 8.8543 1.64541 8.95914 1.66498C9.47957 1.76384 9.77292 2.08155 9.856 2.63669C10.0011 3.60068 10.0189 4.6296 9.91211 5.8748C9.88234 6.22087 9.82344 6.48815 9.7264 6.71651C9.70386 6.76979 9.62392 6.94372 9.5424 6.94379C9.5165 6.94379 9.44157 6.93365 9.30509 6.83979C8.9824 6.61915 8.7463 6.3043 8.47106 5.91537C7.53469 4.5946 6.74882 3.13961 6.06823 1.46627C5.81582 0.850278 5.34441 0.505424 4.74025 0.495281C4.0764 0.48521 3.47453 0.480352 2.9005 0.480352C2.2733 0.480352 1.69182 0.486138 1.12402 0.497924C0.637942 0.506495 0.301725 0.651922 0.124814 0.930491C-0.0523837 1.20927 -0.0408616 1.57548 0.159094 2.01877C1.75974 5.57038 3.21103 8.15271 4.86492 10.3921C6.02379 11.9591 7.18616 13.0437 8.52259 13.8052C9.93058 14.6091 11.5085 15 13.3463 15C13.5546 15 13.77 14.9949 13.9872 14.9848C15.0551 14.9329 15.4513 14.5471 15.5014 13.5093C15.5253 12.9789 15.5834 12.4227 15.8446 11.9484C16.0095 11.6495 16.1632 11.6495 16.2137 11.6495C16.311 11.6495 16.4317 11.6942 16.5613 11.778C16.7938 11.9295 16.9931 12.1323 17.1565 12.3095C17.3103 12.4779 17.4623 12.648 17.6146 12.8181C17.943 13.1853 18.2827 13.5649 18.6375 13.925C19.4142 14.7136 20.2697 15.0605 21.2524 14.9852H24.9203C24.9281 14.9852 24.936 14.9849 24.9438 14.9844C25.3093 14.9604 25.6258 14.758 25.8122 14.4293C26.0432 14.0221 26.0385 13.5026 25.7998 13.0393C25.5289 12.5155 25.1775 12.0679 24.8696 11.6994Z" fill="white"/>
</svg>
