<svg width="60" height="90" viewBox="0 0 60 90" fill="none" xmlns="http://www.w3.org/2000/svg">
  <path d="M30.3482 46.4277C21.4687 46.4277 14.2687 39.2277 14.2687 30.3482C14.2687 21.4687 21.4661 14.2687 30.3482 14.2687C34.6259 14.2687 38.5125 15.9402 41.3946 18.6643L46.9527 12.7848C42.6214 8.68926 36.7768 6.17676 30.3482 6.17676C16.9982 6.17676 6.17944 16.9982 6.17944 30.3455C6.17944 43.6928 17.0009 54.5143 30.3482 54.5143C36.7768 54.5143 42.6214 52.0044 46.9527 47.9089L41.3946 42.0294C38.5125 44.7562 34.6259 46.4277 30.3482 46.4277Z" fill="white"/>
  <path d="M53.9652 35.5099C53.3437 38.3733 52.2107 41.0465 50.6732 43.4331L43.875 39.0429C44.8982 37.4545 45.6509 35.6733 46.0634 33.7661L53.9652 35.5099Z" fill="white"/>
  <path d="M46.95 47.9116L51.1929 52.4009C45.7554 57.5411 38.4188 60.6937 30.3455 60.6937C13.5884 60.6937 0 47.108 0 30.3482C0 13.5884 13.5884 0 30.3482 0C38.4214 0 45.758 3.15268 51.1955 8.29286L46.9527 12.7821C42.6214 8.68929 36.7768 6.17679 30.3482 6.17679C16.9982 6.17679 6.17946 16.9982 6.17946 30.3455C6.17946 43.6929 17.0009 54.5143 30.3482 54.5143C36.7768 54.517 42.6214 52.0071 46.95 47.9116ZM53.9411 25.0821L59.9759 23.7509C59.1804 20.167 57.7527 16.8187 55.8134 13.8348L50.6223 17.1857C52.1679 19.5616 53.3089 22.2268 53.9411 25.0821ZM53.9652 35.5098C53.3437 38.3732 52.2107 41.0464 50.6732 43.433L55.8643 46.7839C57.7955 43.7893 59.2179 40.4357 60 36.8411L53.9652 35.5098Z" fill="url(#paint0_linear_438_837)"/>
  <path d="M53.9412 25.0822L46.0394 26.826C45.6162 24.9269 44.8555 23.1563 43.8242 21.576L50.6224 17.1858C52.168 19.5617 53.309 22.2269 53.9412 25.0822Z" fill="white"/>
  <path d="M56.0428 77.166V73.8644H52.7577V69.845L49.4575 71.8441V82.1457C49.4575 83.9964 50.01 85.4533 51.0971 86.4772C52.6459 87.9311 54.8019 88.0674 55.5598 88.0674C55.7167 88.0674 55.8134 88.0613 55.8345 88.0613L56.0398 88.0462V84.9384L55.8074 84.9505C55.7952 84.9505 54.5573 85.0051 53.6726 84.163C53.0627 83.5814 52.7547 82.7091 52.7547 81.5702V77.166H56.0428Z" fill="white"/>
  <path d="M54.7053 75.1339C55.0919 75.358 55.6051 75.455 56.043 75.3338V73.8647H53.5369C53.8146 74.3766 54.2072 74.8431 54.7053 75.1339Z" fill="white"/>
  <path d="M14.6555 74.016L14.5136 74.0433H14.5075C13.8432 74.2008 13.2454 74.534 12.7291 74.8884V73.9009H9.44092V88.1371H12.7291V81.0039C12.7291 79.9195 12.874 78.8987 13.3058 78.2657C13.8674 77.4388 14.8306 77.1843 16.1018 77.1843H16.3222V73.8857H16.1018C15.6167 73.8851 15.1326 73.9287 14.6555 74.016Z" fill="white"/>
  <path d="M24.5322 73.8708C22.5634 73.8708 20.8665 74.5645 19.4866 75.9275C18.1068 77.2906 17.4062 78.9989 17.4062 80.992C17.4062 82.9851 18.1068 84.6904 19.4866 86.0565C20.8665 87.4225 22.5634 88.1132 24.5322 88.1132C26.5189 88.1132 28.2218 87.4195 29.5927 86.0535C30.9635 84.6874 31.6579 82.9851 31.6579 80.992C31.6579 78.9989 30.9635 77.2936 29.5927 75.9275C28.2218 74.5615 26.5159 73.8708 24.5322 73.8708ZM28.394 80.995C28.394 82.1188 28.0195 83.0638 27.2798 83.8059C26.54 84.5481 25.6161 84.9236 24.5322 84.9236C23.4481 84.9236 22.5212 84.5481 21.7845 83.8059C21.0477 83.0638 20.6703 82.1188 20.6703 80.995C20.6703 79.8713 21.0447 78.9262 21.7845 78.1841C22.5242 77.442 23.4481 77.0664 24.5322 77.0664C25.6161 77.0664 26.543 77.442 27.2798 78.1841C28.0165 78.9262 28.391 79.8713 28.394 80.995Z" fill="white"/>
  <path d="M40.6107 73.8828C38.642 73.8828 36.9451 74.5764 35.5653 75.9395C34.1853 77.3025 33.4849 79.0109 33.4849 81.004C33.4849 82.9971 34.1853 84.7024 35.5653 86.0684C36.9451 87.4345 38.642 88.1252 40.6107 88.1252C42.5974 88.1252 44.3004 87.4315 45.6713 86.0654C47.042 84.6994 47.7366 82.9971 47.7366 81.0009C47.7366 79.0048 47.042 77.3025 45.6713 75.9365C44.3004 74.5704 42.5974 73.8828 40.6107 73.8828ZM44.4725 81.004C44.4725 82.1278 44.0981 83.0728 43.3583 83.8148C42.6186 84.557 41.6947 84.9326 40.6107 84.9326C39.5267 84.9326 38.5998 84.557 37.863 83.8148C37.1263 83.0728 36.7488 82.1278 36.7488 81.004C36.7488 79.8802 37.1233 78.9352 37.863 78.1931C38.6028 77.451 39.5267 77.0754 40.6107 77.0754C41.6947 77.0754 42.6216 77.451 43.3583 78.1931C44.0951 78.9352 44.4725 79.8832 44.4725 81.004Z" fill="white"/>
  <path d="M7.28816 73.9014H4V77.1999H7.28816V73.9014Z" fill="white"/>
  <path d="M7.28816 84.845H4V88.1435H7.28816V84.845Z" fill="white"/>
  <path d="M17.4485 81.2343C18.8737 81.9946 22.4517 83.6605 26.0509 82.6398C26.8057 82.4278 27.9772 82.0401 29.3028 80.9709C29.6108 80.7224 29.9036 80.4529 31.9961 77.7753C33.9225 75.3127 34.1702 74.9098 34.9461 74.2586C36.4316 73.0137 37.3979 72.9258 37.9474 72.9531C38.3701 72.9713 38.814 72.9985 39.3062 73.3893C40.0339 73.9648 40.5049 75.0431 40.9125 75.973C41.0061 76.185 41.2808 76.8302 41.7097 77.6389C41.7912 77.7904 41.8303 77.8661 41.8757 77.9449C42.0569 78.2508 42.4735 78.8808 43.0381 79.2776C44.2218 80.1076 45.3601 79.417 45.5805 79.2776C45.3056 79.4162 45.0047 79.4954 44.6973 79.51C44.3898 79.5246 44.0829 79.4743 43.7961 79.3624C43.319 79.1807 42.9657 78.8748 42.7996 78.7203C42.3045 78.2508 42.0146 77.7177 41.7157 77.1543C41.2748 76.3244 41.3292 76.1759 40.7917 75.0673C40.4142 74.2859 40.2241 73.8951 39.8828 73.4832C39.3455 72.8319 38.8261 72.5775 38.6479 72.4987C38.4789 72.423 38.1165 72.2867 37.5126 72.311C37.1533 72.3261 36.2747 72.42 35.0759 73.253C34.469 73.674 34.0976 74.0738 33.3881 74.8341C32.5366 75.7489 32.2618 76.1911 31.347 77.2906C30.3897 78.4416 29.9097 79.0171 29.321 79.5442C28.9979 79.835 27.6482 81.0102 25.6312 81.4888C23.8708 81.9038 22.4577 81.5857 21.2711 81.304C19.8852 80.9739 18.7408 80.4559 17.9346 80.0258C17.7716 80.4256 17.6085 80.8315 17.4485 81.2343Z" fill="#AA1A17"/>
  <path d="M19.6948 80.3103C20.6913 80.3224 23.1702 80.4466 25.4831 81.6521C26.2211 82.0242 26.9073 82.4916 27.5243 83.0425C27.7115 83.2121 27.8866 83.3847 29.0913 84.9204C30.1995 86.335 30.3384 86.55 30.8064 86.9862C31.7062 87.8162 32.3372 88.0645 32.7026 88.1736C32.9834 88.2614 33.2792 88.3462 33.6296 88.3007C34.1488 88.2311 34.5354 87.904 34.8675 87.6193C35.0707 87.4428 35.2846 87.2789 35.5077 87.1286C35.571 87.0861 35.6012 87.0649 35.6404 87.0438C35.9043 86.8909 36.1977 86.7968 36.501 86.7681C37.3404 86.6984 38.0469 87.2254 38.1828 87.3315C37.8304 87.0953 37.4265 86.9477 37.0053 86.9014C36.7712 86.8774 36.535 86.8898 36.3047 86.9377C35.9454 87.0164 35.719 87.1649 35.4804 87.3255C35.1332 87.5617 35.1573 87.6314 34.7286 87.9585C34.4266 88.1887 34.2757 88.3038 34.022 88.3917C33.7382 88.491 33.4374 88.5323 33.1373 88.5128C33.0197 88.5067 32.772 88.4795 32.3735 88.3371C32.1349 88.2523 31.5612 88.019 30.8245 87.4193C30.4531 87.1165 30.2327 86.8741 29.813 86.4107C29.3117 85.8564 29.1577 85.6171 28.6263 84.9719C28.0708 84.2994 27.79 83.9603 27.4366 83.618C27.2435 83.4301 26.4281 82.6577 25.1268 82.0216C23.9915 81.4644 23.0344 81.2796 22.2282 81.1312C21.4712 80.9889 20.7034 80.9129 19.9334 80.904C19.8519 80.7071 19.7733 80.5072 19.6948 80.3103Z" fill="#AA1A17"/>
  <path d="M32.9531 87.5192C32.7707 87.4686 32.601 87.3798 32.455 87.2588C32.4311 87.2394 32.4089 87.2181 32.3885 87.1952C32.2757 87.0869 32.1698 86.9715 32.0715 86.8499C31.9145 86.656 31.7303 86.4318 31.4102 86.3259C31.1928 86.2562 30.9905 86.2623 30.7912 86.2713C30.601 86.2804 30.3021 86.3108 29.8552 86.4592C29.8582 86.4016 29.8642 86.344 29.8673 86.2865C30.1099 86.2154 30.3586 86.1668 30.61 86.1411C30.8939 86.1169 31.0569 86.135 31.1324 86.1471C31.3226 86.1746 31.5065 86.2351 31.6759 86.3259C31.8208 86.4077 31.8964 86.4864 32.0443 86.6499C32.2557 86.8802 32.2254 86.9135 32.4036 87.0831C32.5244 87.1982 32.6422 87.3072 32.8565 87.3982C32.9979 87.4547 33.1462 87.4924 33.2973 87.5102C33.5784 87.5391 33.8624 87.5133 34.1338 87.4344C34.0311 87.4769 33.4785 87.6678 32.9531 87.5192Z" fill="#AA1A17"/>
  <path d="M39.8104 75.7789C40.0338 76.2454 40.2904 76.7512 40.695 77.0874C41.0895 77.0917 41.4811 77.154 41.8576 77.2722C41.9793 77.1945 42.0865 77.0961 42.1746 76.9814C42.4916 76.5755 42.6608 76.0455 42.7392 75.5426C42.8087 75.0822 42.7664 74.6279 42.6969 74.1735C41.4452 73.828 40.1275 73.7999 38.8623 74.0918C39.2789 74.5825 39.5296 75.2004 39.8104 75.7789Z" fill="white"/>
  <path d="M30.0667 70.045C29.9352 70.2734 29.8423 70.5222 29.7919 70.781C29.7859 70.8144 29.7797 70.8477 29.7737 70.9083C29.7466 71.1082 29.7315 71.2748 29.7255 71.3929C29.7193 71.4807 29.7193 71.5413 29.7193 71.5565C29.7133 71.72 29.653 72.3198 29.2876 72.9377C29.0883 73.2739 28.9404 73.3829 28.7682 73.7707C28.7212 73.8778 28.6819 73.9881 28.6505 74.1008C28.5932 74.2977 28.5177 74.6551 28.5659 74.6733C28.6415 74.7005 28.9071 73.7525 29.339 73.1588C29.492 72.9435 29.6168 72.7093 29.7103 72.4621C29.7859 72.241 29.8009 72.0896 29.8281 71.7836C29.8674 71.3505 29.816 71.3444 29.8643 71.0022C29.8975 70.7689 29.9278 70.5478 30.0636 70.254C30.153 70.0652 30.2624 69.8865 30.3896 69.7209C30.6121 69.4331 30.8855 69.1888 31.1958 69C31.0721 69.0606 30.441 69.3998 30.0667 70.045Z" fill="#AA1A17"/>
  <path d="M41.6071 79.8649C41.2697 80.1763 40.8659 80.4063 40.4264 80.5373C40.366 80.5555 40.3118 80.5646 40.203 80.5888C39.8228 80.67 39.4373 80.7246 39.0496 80.7524C38.4246 80.8038 37.6999 80.8614 37.078 81.3855C36.6764 81.7247 36.4468 82.1608 36.2144 82.6122C36.1269 82.7848 36.0603 82.9332 36.0181 83.0363C35.4534 83.4001 34.8255 83.6539 34.1672 83.7844C35.2481 82.9151 35.9184 82.2124 36.3442 81.7065C36.5676 81.4399 36.8847 81.0946 37.401 80.8221C37.7573 80.6343 38.0291 80.5949 38.5726 80.5131C39.3425 80.398 39.3848 80.5131 39.9796 80.3859C40.3872 80.2981 40.7706 80.2132 41.2296 79.8861C41.5278 79.6698 41.7914 79.4094 42.0117 79.1137C42.5552 78.3958 42.7635 77.6174 42.845 77.2388C42.8088 77.5235 42.5672 78.9744 41.6071 79.8649Z" fill="#AA1A17"/>
  <path d="M39.8194 73.2044C39.5859 73.2043 39.3542 73.1644 39.134 73.0863C39.1069 73.0772 39.0796 73.0651 39.0314 73.0439C38.8608 72.9725 38.6955 72.8895 38.5362 72.7955C38.2825 72.6501 37.9866 72.4835 37.5639 72.4654C37.28 72.4533 37.0355 72.5169 36.8 72.5774C36.4284 72.6761 36.0704 72.8206 35.7342 73.0076C35.719 72.95 35.7039 72.8955 35.6919 72.8379C35.9644 72.7013 36.2483 72.5888 36.5404 72.5017C36.7466 72.4358 36.959 72.3911 37.1744 72.3684C37.4121 72.345 37.6521 72.3552 37.8869 72.3987C38.0892 72.4381 38.207 72.4957 38.4396 72.6138C38.7717 72.7774 38.7475 72.8198 39.0192 72.9379C39.2035 73.0166 39.3816 73.0924 39.6685 73.1196C39.8585 73.1375 40.0498 73.1345 40.2392 73.1105C40.5813 73.0665 40.9138 72.9662 41.2235 72.8137C41.1057 72.8773 40.4988 73.2075 39.8194 73.2044Z" fill="#AA1A17"/>
  <path d="M18.158 82.5032C19.6677 83.2544 23.5084 84.987 27.965 85.09C28.8981 85.1112 30.3625 85.1142 32.1561 84.7295C32.5758 84.6386 32.9743 84.5357 36.0239 83.3271C38.829 82.2154 39.2095 82.0217 40.2662 81.7793C42.2862 81.322 43.4397 81.4613 44.0798 81.5884C44.5749 81.6854 45.0883 81.7914 45.5804 82.1276C46.3081 82.6244 46.6282 83.3756 46.8999 84.0238C47.0651 84.4278 47.2567 84.8204 47.4737 85.199C47.5341 85.3081 47.5642 85.3625 47.6035 85.4201C47.8842 85.8407 48.2505 86.1968 48.6783 86.4652C49.8861 87.2102 51.3808 87.0195 51.6676 86.977C51.2721 87.0073 50.4417 87.0225 49.5479 86.6681C49.1775 86.5234 48.8304 86.3244 48.5183 86.0774C48.0383 85.6928 47.8179 85.3111 47.5883 84.9052C47.2502 84.3116 47.3468 84.2328 46.9603 83.4513C46.6886 82.9 46.5497 82.6244 46.2417 82.3033C45.8875 81.9444 45.4683 81.6567 45.0068 81.4552C44.8256 81.3765 44.43 81.2189 43.7114 81.1129C43.2856 81.0493 42.2319 80.9311 40.6376 81.1947C39.8315 81.328 39.3091 81.4976 38.3066 81.8187C37.1049 82.2033 36.6822 82.4184 35.3658 82.9031C33.9858 83.4089 33.2974 83.6634 32.4882 83.8662C32.0443 83.9783 30.1965 84.4236 27.7235 84.3055C25.5617 84.2025 23.9704 83.7239 22.6358 83.315C21.3845 82.9319 20.1666 82.4467 18.9944 81.8641C18.7136 82.0761 18.4358 82.2881 18.158 82.5032Z" fill="#AA1A17"/>
  <path d="M54.7204 78.2624C54.415 78.4662 54.1548 78.7312 53.9564 79.0408C53.9323 79.0802 53.9112 79.1196 53.8689 79.1953C53.7268 79.4594 53.6046 79.7337 53.5036 80.0162C53.3345 80.4645 53.1382 80.9855 52.6068 81.3731C52.2475 81.6367 51.858 81.7488 51.4806 81.8548C50.9944 81.9911 50.1097 82.185 48.5184 82.0547C47.6851 81.9881 47.3772 81.8912 45.1367 81.4005C44.6355 81.2914 44.2249 81.2036 43.8867 81.1309C43.7569 81.2398 43.624 81.3459 43.4851 81.4428L43.3945 81.5064C43.8263 81.5791 44.2793 81.6669 44.6536 81.7396C45.7044 81.9456 46.0426 82.0487 46.9997 82.2001C47.7969 82.3243 48.2135 82.391 48.8446 82.4091C50.0946 82.4484 50.9008 82.2788 51.2269 82.2001C51.7734 82.0698 52.0693 81.9335 52.2052 81.8638C52.3471 81.7912 52.7608 81.5761 53.105 81.2005C53.3224 80.9643 53.4099 80.7704 53.5881 80.3857C53.8358 79.8405 53.7573 79.7951 53.9807 79.3771C54.1316 79.0923 54.2795 78.8228 54.6237 78.529C54.8537 78.3368 55.1087 78.1768 55.3817 78.0534C56.049 77.7444 56.6921 77.6839 57.0001 77.6717C56.7736 77.6687 55.6051 77.6717 54.7204 78.2624Z" fill="#AA1A17"/>
  <path d="M30.3054 71.8868C29.3451 72.4623 28.8258 73.2953 28.6175 73.6921C28.5631 73.795 28.5238 73.892 28.4393 74.0889C28.144 74.7818 27.8998 75.4955 27.7086 76.2243C27.3825 77.4086 27.0051 78.7868 25.8034 79.6077C24.9881 80.162 24.0762 80.2741 23.1916 80.374C22.34 80.4709 20.9663 80.5345 18.7349 80.056C18.8616 80.371 18.9885 80.683 19.1153 80.998C20.8968 81.2948 22.0804 81.2615 22.6451 81.2251C23.9343 81.1434 24.6167 80.9132 24.9308 80.795C25.2599 80.6678 26.211 80.271 26.9688 79.3926C27.4489 78.8353 27.6241 78.3355 27.9773 77.3329C28.4755 75.9093 28.2762 75.7457 28.7322 74.6704C29.0432 73.9374 29.3451 73.2498 30.1242 72.5986C30.3808 72.3835 30.9515 71.9534 31.8543 71.6505C33.3973 71.1295 34.928 71.3022 35.6648 71.4294C35.1213 71.3022 32.3223 70.6812 30.3054 71.8868Z" fill="#AA1A17"/>
  <path d="M38.1165 89.161C38.011 89.1641 37.9055 89.1539 37.8025 89.1307C37.6814 89.1026 37.5674 89.05 37.4674 88.9763C37.3405 88.8914 37.3496 88.8642 37.2167 88.7612C37.2107 88.7884 37.2016 88.8126 37.1956 88.84C37.2032 88.8452 37.2103 88.8514 37.2167 88.8581C37.2924 88.9258 37.3731 88.9876 37.4582 89.0429C37.4824 89.0581 37.4945 89.0671 37.5096 89.0762C37.6212 89.1396 37.7445 89.1798 37.872 89.1944C38.2463 89.2397 38.6208 89.0701 38.6902 89.0399C38.5074 89.1133 38.3133 89.1542 38.1165 89.161Z" fill="#AA1A17"/>
  <path d="M39.5055 83.2879C39.2496 83.2961 38.9938 83.2706 38.7446 83.2121C38.3701 83.1243 38.1558 82.982 37.9324 82.8275C37.6274 82.6185 37.6456 82.5549 37.3285 82.2974C37.3134 82.361 37.2952 82.4246 37.2771 82.4913C37.2952 82.5064 37.3134 82.5246 37.3315 82.5398C37.516 82.7064 37.7117 82.8603 37.9173 83.0001C37.9776 83.0395 38.0048 83.0607 38.041 83.0819C38.3111 83.2354 38.6087 83.3343 38.9168 83.3726C39.8195 83.4848 40.7193 83.0758 40.8914 82.9941C40.4503 83.1733 39.9811 83.2727 39.5055 83.2879Z" fill="#AA1A17"/>
  <path d="M38.1617 80.3104C38.0831 80.4434 37.9889 80.5664 37.8809 80.6769C37.7149 80.8404 37.576 80.9041 37.4281 80.9707C37.2258 81.0615 37.1985 81.0313 36.9661 81.11C36.9932 81.1403 37.0203 81.1676 37.0476 81.1979C37.0627 81.1948 37.0747 81.1888 37.0898 81.1858C37.234 81.1435 37.3752 81.092 37.5126 81.0313C37.5518 81.013 37.573 81.004 37.5941 80.9949C37.7588 80.9048 37.9044 80.7833 38.0228 80.6375C38.367 80.2104 38.4486 79.6167 38.4607 79.5046C38.4274 79.6591 38.358 79.9832 38.1617 80.3104Z" fill="#AA1A17"/>
  <path d="M31.8784 77.4691C32.5 77.1044 33.1684 76.8272 33.8652 76.6452C34.3423 76.521 35.0941 76.3756 37.4976 76.4907C39.6474 76.5937 40.5804 76.7845 41.7278 76.5543C42.2888 76.4337 42.8391 76.2676 43.3734 76.0576C43.6835 75.9309 43.9859 75.7863 44.2792 75.6244C44.5268 75.4881 44.7593 75.3427 46.4713 73.9161C48.0445 72.6045 48.2528 72.3894 48.8718 72.0381C50.0584 71.3626 50.7982 71.299 51.2179 71.302C51.541 71.302 51.8761 71.3081 52.2354 71.4989C52.7668 71.7806 53.0809 72.3289 53.3526 72.8014C53.5162 73.0927 53.6956 73.3749 53.8901 73.6465C53.9444 73.7222 53.9716 73.7616 54.0048 73.801C54.1316 73.9554 54.4214 74.2735 54.8352 74.4673C55.7018 74.8732 56.6045 74.4916 56.7767 74.4158C56.3374 74.5715 55.8634 74.5998 55.4088 74.4976C55.1489 74.4346 54.901 74.3292 54.6751 74.1856C54.3158 73.9524 54.1195 73.6828 53.9142 73.3981C53.6122 72.9771 53.6606 72.9013 53.2983 72.338C53.0416 71.9412 52.9148 71.7443 52.6733 71.5383C52.4115 71.3137 52.1046 71.1484 51.7734 71.0537C51.6466 71.0173 51.3779 70.9537 50.9159 70.981C50.6411 70.9961 49.9648 71.0627 49.0167 71.5171C48.5366 71.7473 48.2346 71.9593 47.661 72.3682C46.9726 72.8589 46.743 73.0922 45.9972 73.6798C45.2183 74.2947 44.8258 74.6006 44.3547 74.8884C44.095 75.0459 43.0141 75.682 41.4561 75.9697C40.68 76.1121 39.8225 76.0666 38.1347 75.9637C35.6497 75.8122 34.5959 75.5729 33.3217 76.2029C33.04 76.3419 32.7739 76.5105 32.5276 76.7058C32.3072 76.9572 32.0928 77.2116 31.8784 77.4691Z" fill="#AA1A17"/>
  <path d="M49.0588 73.3134C48.7361 73.2701 48.4077 73.3012 48.0987 73.4043C48.0563 73.4194 48.0202 73.4345 47.9477 73.4648C47.6924 73.5719 47.4452 73.6975 47.2079 73.8404C46.8245 74.0646 46.3776 74.3281 45.8039 74.2766C45.6574 74.2633 45.5132 74.2308 45.3752 74.1797C45.354 74.2554 45.3329 74.3281 45.3057 74.4008C45.6026 74.4814 45.9122 74.504 46.2175 74.4674C46.5015 74.4311 46.6765 74.3432 47.0268 74.1706C47.522 73.9222 47.5008 73.8404 47.8994 73.6708C48.1711 73.5557 48.4308 73.4466 48.8294 73.4497C49.0912 73.4532 49.3509 73.4971 49.5994 73.5799C50.2063 73.7768 50.6471 74.1433 50.8463 74.3311C50.7105 74.1857 49.9798 73.4406 49.0588 73.3134Z" fill="#AA1A17"/>
  <path d="M48.123 73.9343C48.0199 73.8965 47.9122 73.8721 47.8029 73.8616C47.6744 73.8506 47.5448 73.866 47.4224 73.9071C47.2715 73.9495 47.2685 73.9798 47.1055 74.0403C47.1085 74.0131 47.1085 73.9828 47.1115 73.9555C47.1205 73.9525 47.1296 73.9465 47.1386 73.9434C47.2355 73.9006 47.3354 73.8651 47.4376 73.8374C47.4574 73.8313 47.4775 73.8262 47.4979 73.8223C47.6284 73.7952 47.7631 73.7952 47.8935 73.8223C48.277 73.898 48.588 74.1888 48.6454 74.2463C48.4927 74.1097 48.3155 74.0038 48.123 73.9343Z" fill="#AA1A17"/>
  <path d="M26.3499 81.7218C27.4157 82.4336 30.1422 84.1299 33.533 84.8629C34.2426 85.0174 35.3629 85.2354 36.779 85.2537C37.108 85.2567 37.4281 85.2475 39.901 84.9205C42.1747 84.6176 42.4886 84.5479 43.3251 84.5479C44.9224 84.5509 45.7858 84.8144 46.263 84.9932C46.6283 85.1295 47.0088 85.2749 47.3439 85.5656C47.8421 85.9957 47.9961 86.5318 48.1259 86.9923C48.2051 87.2818 48.305 87.5652 48.4249 87.8404C48.4581 87.9192 48.4761 87.9585 48.4973 88.0009C48.6683 88.3268 48.9059 88.6127 49.1948 88.84C50.0282 89.5033 51.1937 89.6002 51.4171 89.6184C51.1092 89.579 50.475 89.467 49.835 89.1034C49.5734 88.9579 49.3327 88.7776 49.1193 88.5674C48.7992 88.2462 48.6754 87.9646 48.5457 87.6677C48.3585 87.2315 48.443 87.1953 48.2377 86.6288C48.0958 86.229 48.0233 86.032 47.824 85.7777C47.51 85.3778 47.1174 85.1265 46.9816 85.0417C46.8517 84.9628 46.5679 84.8023 46.0335 84.6267C45.7164 84.5206 44.9254 84.2874 43.6753 84.2238C43.0443 84.1905 42.6245 84.2207 41.8183 84.2813C40.8551 84.351 40.5079 84.4298 39.4421 84.5479C38.3279 84.672 37.7723 84.7326 37.1292 84.7447C36.776 84.7509 35.3145 84.766 33.4364 84.3207C31.7968 83.933 30.6404 83.3847 29.6682 82.9183C28.7637 82.4862 27.8909 81.9902 27.0564 81.4341C26.8239 81.5249 26.5884 81.6219 26.3499 81.7218Z" fill="#AA1A17"/>
  <path d="M46.6012 87.086C46.3898 86.9218 46.1474 86.8022 45.8885 86.7348C45.8554 86.7256 45.8221 86.7195 45.7587 86.7075C45.5405 86.665 45.3195 86.6387 45.0975 86.6287C44.7412 86.6045 44.3275 86.5772 43.941 86.3015C43.6783 86.1138 43.5183 85.8776 43.3674 85.6503C43.2194 85.4292 43.0051 85.0688 42.8118 84.4509C42.7484 84.5023 42.685 84.5508 42.6216 84.6024C42.7387 84.9325 42.8884 85.2501 43.0684 85.5504C43.1926 85.7616 43.3405 85.9577 43.5093 86.135C43.6999 86.3278 43.9227 86.4856 44.1675 86.6015C44.3819 86.6984 44.5389 86.7195 44.8499 86.759C45.2938 86.8165 45.3059 86.7529 45.6531 86.8166C45.8885 86.8589 46.1121 86.9044 46.3928 87.0739C46.5757 87.1871 46.7422 87.3246 46.888 87.4829C47.1541 87.7722 47.3594 88.112 47.4919 88.4825C47.4435 88.331 47.2051 87.5586 46.6012 87.086Z" fill="#AA1A17"/>
  <path d="M48.4914 84.763C48.3766 84.6661 48.2497 84.5846 48.1139 84.5206C47.9086 84.4237 47.7607 84.4086 47.6006 84.3935C47.3832 84.3722 47.3712 84.4086 47.1296 84.4056C47.1446 84.3722 47.1598 84.3389 47.1779 84.3025H47.2202C47.3662 84.2977 47.5124 84.3017 47.658 84.3147C47.7003 84.3178 47.7214 84.3208 47.7455 84.3238C47.9249 84.3558 48.0968 84.4205 48.2528 84.5146C48.7088 84.7932 48.9715 85.2961 49.0197 85.3961C48.8842 85.154 48.705 84.9394 48.4914 84.763Z" fill="#AA1A17"/>
  <path d="M41.7519 83.7512C41.4758 83.9119 41.1651 84.0035 40.8462 84.0177C40.8039 84.0177 40.7677 84.0177 40.6922 84.0116C40.4301 83.9993 40.1694 83.9648 39.9131 83.9087C39.4995 83.8269 39.0194 83.7299 38.5061 83.9935C38.1739 84.1631 37.9294 84.4387 37.6818 84.7265C37.5881 84.8356 37.5127 84.9324 37.4644 84.9991C37.2174 85.0877 36.961 85.1476 36.7005 85.1779C36.5041 85.2019 36.306 85.2069 36.1086 85.193C36.9934 84.7629 37.5791 84.3781 37.9656 84.0904C38.1679 83.9389 38.4487 83.7452 38.8382 83.6451C39.11 83.5755 39.2912 83.5997 39.6595 83.6451C40.1819 83.7088 40.1819 83.7996 40.5955 83.8209C40.8763 83.836 41.145 83.8451 41.5105 83.6967C41.7534 83.5931 41.9795 83.4532 42.1808 83.2817C42.685 82.8606 42.99 82.3306 43.1258 82.0701C43.0322 82.267 42.5643 83.2847 41.7519 83.7512Z" fill="#AA1A17"/>
  <path d="M39.3061 72.3226C39.2004 72.2877 39.0909 72.2653 38.9801 72.256C38.8535 72.2479 38.7268 72.2675 38.6086 72.3135C38.4637 72.362 38.4667 72.3923 38.3158 72.4589C38.3128 72.4286 38.3098 72.4014 38.3066 72.3711C38.3158 72.368 38.3248 72.362 38.3339 72.359C38.4242 72.3121 38.5181 72.2726 38.6147 72.2408C38.6334 72.2337 38.6526 72.2277 38.672 72.2227C38.8008 72.1925 38.9344 72.1894 39.0646 72.2136C39.4541 72.2802 39.8074 72.568 39.8738 72.6225C39.7018 72.4926 39.5102 72.3914 39.3061 72.3226Z" fill="#AA1A17"/>
  <path d="M42.6758 75.9789C42.9626 76.1545 43.6934 76.5665 44.5841 76.6846C44.8651 76.7248 45.1497 76.7329 45.4326 76.7089C45.5171 76.6998 45.6016 76.6907 46.2418 76.5301C46.8306 76.3817 46.9121 76.3545 47.1295 76.3333C47.5461 76.2909 47.7726 76.3454 47.8995 76.3817C47.996 76.412 48.0957 76.4423 48.1893 76.518C48.3252 76.6271 48.3705 76.7785 48.4097 76.9057C48.4339 76.9853 48.4632 77.0632 48.4972 77.139C48.5064 77.1602 48.5124 77.1723 48.5184 77.1844C48.5653 77.2709 48.6302 77.3463 48.7087 77.4055C48.9351 77.5721 49.2371 77.5691 49.2974 77.5691C49.1525 77.5646 49.0103 77.5284 48.8807 77.4631C48.8109 77.4273 48.7459 77.3825 48.6875 77.3298C48.6176 77.2614 48.563 77.1788 48.5275 77.0875C48.4731 76.9663 48.4942 76.9542 48.4339 76.7997C48.3916 76.6907 48.3705 76.6331 48.3161 76.5665C48.2513 76.4908 48.1736 76.4272 48.0866 76.3787C48.007 76.3378 47.9229 76.3063 47.8361 76.2848C47.6333 76.2372 47.4248 76.2198 47.217 76.2333C47.054 76.2394 46.9422 76.2606 46.7339 76.2999C46.4834 76.3454 46.3957 76.3757 46.118 76.4393C45.8281 76.5029 45.6862 76.5362 45.5201 76.5574C45.1984 76.5942 44.8733 76.586 44.5539 76.5332C44.1221 76.4665 43.8142 76.3393 43.5575 76.2333C43.3156 76.1348 43.0823 76.0162 42.86 75.8789C42.7966 75.9122 42.7362 75.9456 42.6758 75.9789Z" fill="#AA1A17"/>
  <path d="M42.2048 87.0011C42.0688 86.4357 41.9139 85.8734 41.7398 85.3139C41.6885 85.1474 41.6401 84.9778 41.5918 84.8051C41.2704 84.8816 40.9408 84.9192 40.6105 84.9172C39.5266 84.9172 38.5996 84.5416 37.8628 83.7994C37.1261 83.0574 36.7486 82.1124 36.7486 80.9886C36.7486 80.8462 36.7546 80.7099 36.7668 80.5736C36.59 80.5209 36.4105 80.4775 36.2293 80.4433C35.3174 80.2677 34.3965 80.3434 33.4967 80.5191C33.4877 80.6735 33.4817 80.8311 33.4817 80.9886C33.4817 82.9817 34.1821 84.687 35.562 86.0531C35.5831 86.0742 35.6043 86.0924 35.6255 86.1137C36.012 85.8713 36.3984 85.629 36.8242 85.4533C37.5066 85.1715 38.2825 85.0868 38.8894 85.5805C39.1129 85.7623 39.3031 85.9985 39.3695 86.2863C39.4299 86.5559 39.3847 86.8315 39.2819 87.0859C39.1642 87.3797 38.9861 87.6463 38.7808 87.8917C39.3795 88.0393 39.994 88.1126 40.6105 88.1098C41.2133 88.1119 41.8144 88.0427 42.401 87.9038C42.3437 87.607 42.2773 87.304 42.2048 87.0011Z" fill="white"/>
  <path d="M43.7658 81.6158C43.4505 81.6107 43.1368 81.661 42.8388 81.7642C42.7997 81.7794 42.7664 81.7915 42.6969 81.8218C42.4636 81.9203 42.2358 82.0315 42.0146 82.1549C41.6613 82.3518 41.2536 82.579 40.689 82.5911C40.3085 82.6002 39.9855 82.5063 39.6775 82.4155C39.3786 82.3276 38.9166 82.167 38.2855 81.7915L38.2131 82.0277C38.5662 82.2237 38.9361 82.3879 39.3182 82.5184C39.59 82.6126 39.87 82.6805 40.1546 82.7214C40.4731 82.7606 40.7956 82.7524 41.1117 82.6972C41.3834 82.6456 41.5465 82.5699 41.8696 82.4124C42.3285 82.1913 42.2984 82.1338 42.6698 81.9763C42.9234 81.8702 43.165 81.7703 43.5545 81.7369C43.8083 81.7168 44.0636 81.726 44.3153 81.7642C44.7683 81.8328 45.2056 81.9803 45.6076 82.2004C45.4597 82.1035 44.6746 81.6279 43.7658 81.6158Z" fill="#AA1A17"/>
  <path d="M21.8479 83.2547C22.1106 83.6999 22.805 84.7873 23.9614 85.5051C24.3257 85.739 24.7198 85.9224 25.133 86.0504C25.2599 86.0897 25.3837 86.1231 26.4072 86.2502C27.3493 86.3684 27.4852 86.3714 27.8083 86.4684C28.4242 86.6501 28.702 86.8682 28.8499 87.0045C28.9617 87.1074 29.0795 87.2165 29.1489 87.3891C29.2515 87.6436 29.1971 87.9041 29.1519 88.1313C29.1224 88.2703 29.1013 88.4108 29.0885 88.5523C29.0855 88.5916 29.0825 88.6129 29.0825 88.6341C29.0788 88.7937 29.1108 88.952 29.176 89.0975C29.3603 89.4943 29.789 89.673 29.8705 89.7033C29.6711 89.6097 29.4987 89.467 29.3693 89.2883C29.2976 89.1889 29.2425 89.0784 29.2062 88.9612C29.1489 88.7765 29.161 88.6341 29.173 88.4857C29.1911 88.2646 29.2334 88.2585 29.2726 87.9768C29.2999 87.7769 29.3149 87.6799 29.2908 87.5407C29.2639 87.3859 29.2052 87.2384 29.1187 87.1074C29.0422 86.9945 28.9485 86.8943 28.8409 86.8106C28.7413 86.7258 28.4846 86.5289 28.0166 86.3593C27.781 86.2715 27.612 86.2381 27.2889 86.1745C26.9024 86.0988 26.7514 86.0927 26.3166 86.0261C25.8607 85.9564 25.6312 85.9231 25.3837 85.8565C24.9086 85.724 24.4573 85.5175 24.0461 85.2446C23.4934 84.8811 23.1614 84.4995 22.8865 84.1784C22.6249 83.8754 22.3914 83.5489 22.1891 83.2031C22.0743 83.2182 21.9596 83.2364 21.8479 83.2547Z" fill="#AA1A17"/>
  <path d="M37.8961 79.7986C37.372 79.886 36.8358 79.8654 36.32 79.7381C36.2504 79.7199 36.1931 79.6987 36.0723 79.6593C35.6564 79.5205 35.2499 79.3546 34.8555 79.1626C34.2214 78.8597 33.4847 78.5083 32.5456 78.6264C31.9086 78.7052 31.3982 78.9748 30.9061 79.2353C30.432 79.4867 29.7043 79.9259 28.7502 80.8406C28.6898 80.6892 28.6324 80.5377 28.572 80.3863C29.3662 79.6866 29.9851 79.3019 30.2901 79.1232C30.9816 78.7203 31.4224 78.5719 31.6308 78.5083C31.8512 78.4417 32.4913 78.2629 33.2281 78.3114C33.693 78.3447 33.9829 78.4598 34.5566 78.69C35.3718 79.0172 35.3356 79.1414 35.9939 79.3625C36.4407 79.5139 36.8695 79.6502 37.5246 79.6169C37.9537 79.5903 38.3773 79.5057 38.7838 79.3655C39.7802 79.0293 40.4928 78.4568 40.8218 78.166C40.5924 78.3902 39.4057 79.5442 37.8961 79.7986Z" fill="#AA1A17"/>
  <path d="M46.5437 71.6596C46.4406 71.8182 46.3717 71.9967 46.3414 72.1836C46.3384 72.2079 46.3354 72.2321 46.3323 72.2745C46.3181 72.4306 46.315 72.5875 46.3233 72.744C46.3323 72.9954 46.3414 73.2832 46.1723 73.5739C46.0576 73.7708 45.8976 73.9011 45.7435 74.0253C45.5956 74.1434 45.351 74.3221 44.9192 74.5038C44.9584 74.5432 45.0008 74.5856 45.0431 74.625C45.2719 74.5186 45.4903 74.3908 45.6953 74.2433C45.8387 74.1423 45.9694 74.0243 46.0847 73.892C46.2083 73.7449 46.3063 73.578 46.3746 73.3983C46.4289 73.2408 46.4319 73.1317 46.4381 72.9106C46.4471 72.5986 46.4018 72.5926 46.4229 72.3472C46.4381 72.1806 46.4531 72.0201 46.5557 71.8111C46.6234 71.6737 46.7109 71.5471 46.8154 71.4355C47.0067 71.2275 47.2364 71.0588 47.4918 70.9387C47.3831 70.9781 46.8427 71.2022 46.5437 71.6596Z" fill="#AA1A17"/>
  <path d="M28.3033 78.614C27.7352 78.8657 27.1219 78.9987 26.5008 79.0047C26.4193 79.0047 26.3469 78.9986 26.1988 78.9896C25.6883 78.9568 25.1809 78.888 24.6801 78.7836C23.8769 78.6261 22.9409 78.4443 21.9112 78.8533C21.2138 79.1289 20.7096 79.5772 20.2295 80.0164C19.7645 80.4374 19.0669 81.1431 18.2457 82.4516C18.1339 82.2972 18.0253 82.1457 17.9165 81.9913C18.6171 80.9705 19.2058 80.3586 19.4988 80.0709C20.1661 79.4136 20.6219 79.1198 20.8394 78.9865C21.0688 78.8472 21.7452 78.4564 22.5907 78.302C23.1281 78.202 23.4844 78.2475 24.2029 78.3413C25.2206 78.4716 25.2145 78.623 26.0207 78.6806C26.5703 78.72 27.0925 78.7503 27.8233 78.5201C28.3022 78.366 28.7582 78.1479 29.1791 77.8719C30.2087 77.2024 30.8549 76.3513 31.1447 75.9272C30.9544 76.2423 29.9399 77.887 28.3033 78.614Z" fill="#AA1A17"/>
  <path d="M54.7989 72.5195C54.543 72.5278 54.2872 72.5023 54.038 72.4438C53.6636 72.356 53.4492 72.2136 53.2257 72.0591C52.9208 71.8501 52.9389 71.7865 52.6218 71.5291C52.6068 71.5927 52.5887 71.6563 52.5706 71.7229C52.5887 71.738 52.6068 71.7562 52.6249 71.7714C52.8095 71.9381 53.0052 72.0919 53.2107 72.2318C53.2711 72.2712 53.2982 72.2924 53.3345 72.3136C53.6046 72.4671 53.902 72.5658 54.2101 72.6043C55.1129 72.7164 56.0127 72.3075 56.1848 72.2257C55.7441 72.406 55.2747 72.5056 54.7989 72.5195Z" fill="#AA1A17"/>
  <path d="M55.8104 84.9505C55.7982 84.9505 54.5603 85.0051 53.6756 84.163C53.0657 83.5814 52.7577 82.7091 52.7577 81.5702V77.166H56.0398V75.6424C55.5869 75.7454 55.0767 75.6697 54.6599 75.4547C54.0108 75.1245 53.5217 74.5187 53.1986 73.8644H52.7577V69.845L49.4575 71.8441V82.1457C49.4575 82.9423 49.5602 83.6692 49.7655 84.3174C50.1127 84.3144 50.4599 84.3327 50.8011 84.4054C51.8941 84.6325 52.7275 85.4806 53.1201 86.5104C53.2686 86.9033 53.3443 87.3201 53.3435 87.7402C54.0626 87.9563 54.809 88.0675 55.5598 88.0704C55.7167 88.0704 55.8134 88.0643 55.8345 88.0643L56.0398 88.0492V84.9414L55.8104 84.9505Z" fill="white"/>
  <path d="M32.76 82.4852C32.3978 82.4838 32.0399 82.4065 31.7093 82.2581C31.667 82.2368 31.6278 82.2187 31.5522 82.1763C31.2898 82.0342 31.0366 81.8754 30.7944 81.7007C30.4048 81.4221 29.952 81.101 29.3058 81.0707C28.8711 81.0495 28.4936 81.1676 28.1343 81.2857C27.787 81.4009 27.2465 81.6069 26.5007 82.1097C26.4796 82.0006 26.4555 81.8916 26.4343 81.7825C27.0504 81.4069 27.5092 81.2191 27.7327 81.1373C28.243 80.9465 28.557 80.8981 28.7049 80.8798C28.8589 80.8617 29.3118 80.8163 29.801 80.9344C30.109 81.0101 30.2902 81.1222 30.6495 81.3433C31.1598 81.6583 31.1205 81.737 31.5371 81.9643C31.821 82.1187 32.0927 82.2611 32.5336 82.3126C32.825 82.3453 33.1196 82.3381 33.4092 82.2913C34.1158 82.1824 34.6623 81.8824 34.9189 81.7249C34.7348 81.8552 33.8048 82.4913 32.76 82.4852Z" fill="#AA1A17"/>
  <path d="M22.7022 79.2258C22.4467 79.1078 22.1781 79.0203 21.9021 78.9653C21.4854 78.8866 21.2137 78.932 20.9268 78.9835C20.5343 79.0531 20.5283 79.1228 20.1025 79.2349C20.1115 79.1652 20.1206 79.0956 20.1267 79.0259C20.1508 79.0168 20.1749 79.0107 20.2022 79.0017C20.4575 78.9214 20.7176 78.8577 20.9811 78.8108C21.0567 78.7987 21.0959 78.7896 21.1382 78.7866C21.4768 78.7556 21.8182 78.7905 22.1437 78.8896C23.1038 79.1743 23.8556 79.9679 23.9975 80.1194C23.7862 79.9164 23.3363 79.5136 22.7022 79.2258Z" fill="#AA1A17"/>
  <path d="M50.3121 80.289C50.0357 80.3395 49.7746 80.4524 49.5481 80.6192C49.518 80.6404 49.4907 80.6646 49.4395 80.707C49.2546 80.8609 49.082 81.029 48.9231 81.2098C48.6604 81.4946 48.3554 81.8277 47.8754 81.9398C47.5492 82.0155 47.2534 81.964 46.9696 81.9126C46.6948 81.8611 46.266 81.7581 45.647 81.431C45.641 81.5248 45.638 81.6188 45.635 81.7157C46.1393 81.9519 46.5076 82.0489 46.6858 82.0882C47.0904 82.1821 47.3319 82.1821 47.4436 82.176C47.7263 82.1677 48.0045 82.1028 48.2619 81.9853C48.4853 81.8792 48.6091 81.7642 48.8537 81.5278C49.2009 81.1947 49.1646 81.1341 49.4516 80.8887C49.6478 80.7222 49.8351 80.5647 50.1611 80.4617C50.3754 80.3963 50.5983 80.3636 50.8223 80.3647C51.3658 80.3647 51.8127 80.5465 52.0211 80.6434C51.8671 80.5616 51.0941 80.1466 50.3121 80.289Z" fill="#AA1A17"/>
  <path d="M45.354 80.3104C45.2695 80.277 45.0974 80.2286 44.8709 80.1377C44.6958 80.068 44.5538 80.0014 44.4603 79.959C44.4693 80.1952 44.4723 80.4376 44.4663 80.692C44.4633 80.8071 44.4603 80.9222 44.4573 81.0342C44.4602 81.4695 44.397 81.9025 44.27 82.3185C44.5358 82.6821 44.8528 83.0122 45.1547 83.3212C45.6519 83.824 46.1761 84.2993 46.7249 84.7447C47.3862 83.6574 47.7213 82.4155 47.7213 81.0342C47.7213 80.9768 47.7213 80.9162 47.7183 80.8586C47.2411 80.8344 46.7671 80.7859 46.3082 80.6556C45.9821 80.5557 45.6681 80.4376 45.354 80.3104Z" fill="white"/>
  <path d="M41.8183 80.9527C41.5505 81.1204 41.2686 81.2644 40.9758 81.3828C40.5441 81.5585 40.2694 81.5888 39.9824 81.6191C39.59 81.6615 39.59 81.6009 39.1672 81.6131C39.1702 81.6705 39.1702 81.7281 39.1732 81.7887H39.2458C39.5039 81.7935 39.7621 81.7813 40.0187 81.7524C40.0942 81.7432 40.1335 81.7402 40.1787 81.7341C40.3478 81.7069 40.7344 81.6221 41.2114 81.3858C42.2169 80.8922 43.0593 80.0107 43.2193 79.8411C42.7962 80.2641 42.3261 80.637 41.8183 80.9527Z" fill="#AA1A17"/>
  <path d="M27.9591 76.2271C27.8775 76.2574 27.7991 76.2907 27.7176 76.324C27.7598 76.1453 27.8292 75.9727 27.9319 75.7152C28.1553 75.1639 28.2368 75.1882 28.3878 74.7429C28.4905 74.44 28.584 74.1492 28.5629 73.707C28.5478 73.4151 28.4929 73.1267 28.3999 72.8498C28.1794 72.1713 27.796 71.6836 27.6028 71.4595C27.7537 71.6139 28.5206 72.4257 28.6868 73.4525C28.7443 73.8085 28.7279 74.1725 28.6384 74.5218C28.6264 74.5672 28.6113 74.6096 28.584 74.6884C28.4895 74.9701 28.3764 75.2453 28.2459 75.5123C28.1463 75.7303 28.0345 75.9636 27.9591 76.2271Z" fill="#AA1A17"/>
  <path d="M24.7433 76.0118C24.5234 76.1515 24.3344 76.335 24.1878 76.551C24.1697 76.5782 24.1546 76.6055 24.1214 76.66C24.0151 76.8474 23.9212 77.0417 23.8406 77.2416C23.7077 77.5596 23.5537 77.9292 23.1733 78.1957C22.9166 78.3744 22.6418 78.4471 22.3761 78.5107C22.1226 78.5743 21.7118 78.6531 21.0657 78.6319C21.0929 78.7076 21.1201 78.7803 21.1503 78.856C21.6696 78.85 22.0199 78.7894 22.189 78.753C22.5724 78.6743 22.7807 78.5834 22.8774 78.538C23.1172 78.4262 23.3358 78.2735 23.5235 78.0867C23.6836 77.9231 23.75 77.7868 23.8859 77.5142C24.0761 77.1265 24.0248 77.0932 24.1908 76.7963C24.3056 76.5934 24.4173 76.4026 24.6648 76.2026C24.8296 76.0714 25.0115 75.9634 25.2053 75.8816C25.565 75.7307 25.9508 75.6525 26.3406 75.6514C26.1867 75.6392 25.3775 75.609 24.7433 76.0118Z" fill="#AA1A17"/>
  <path d="M23.4662 86.559C23.2609 85.817 22.8533 85.1779 22.3732 84.5841C22.3579 84.5646 22.3473 84.5418 22.3421 84.5175C22.3369 84.4931 22.3373 84.468 22.343 84.4438C22.3488 84.4196 22.36 84.3972 22.3756 84.3779C22.3913 84.3587 22.4112 84.3432 22.4336 84.3328C22.1995 84.1814 21.9828 84.0046 21.7874 83.8056C21.0507 83.0636 20.6732 82.1186 20.6732 80.9948C20.6732 79.871 21.0476 78.926 21.7874 78.1839C21.8538 78.1172 21.9233 78.0506 21.9957 77.99C21.9295 77.5701 21.8388 77.1544 21.724 76.7451C21.5321 76.0756 21.2378 75.44 20.8514 74.8611C20.3562 75.1611 19.8989 75.5201 19.4896 75.9303C18.1097 77.2964 17.4092 79.0017 17.4092 80.9948C17.4092 82.9879 18.1097 84.6932 19.4896 86.0593C20.6762 87.2344 22.0984 87.91 23.7289 88.0765C23.6775 87.5616 23.6051 87.0528 23.4662 86.559Z" fill="white"/>
  <path d="M27.2163 78.0871C28.8257 76.5393 29.4296 75.985 29.5896 75.8608C29.6835 75.7894 29.7705 75.7093 29.8493 75.6215C29.9314 75.5325 30.0052 75.4362 30.0698 75.3337C30.109 75.2701 30.1452 75.2065 30.3656 74.628C30.5679 74.0979 30.589 74.0161 30.6887 73.8526C30.882 73.5406 31.048 73.4436 31.1447 73.4012C31.2202 73.3679 31.3017 73.3346 31.4104 73.3498C31.5704 73.371 31.7153 73.4921 31.8391 73.5951C31.8663 73.6193 31.9539 73.689 32.0746 73.7738C32.0899 73.7851 32.1061 73.7953 32.1229 73.8041C32.2081 73.8572 32.3041 73.8903 32.4037 73.901C32.6604 73.9222 32.8235 73.7223 32.8536 73.6829C32.7717 73.7722 32.6622 73.8309 32.5426 73.8495C32.4723 73.8604 32.4005 73.8573 32.3313 73.8405C32.2166 73.8132 32.135 73.7587 32.0505 73.7011C31.9267 73.6163 31.9267 73.589 31.7697 73.4709C31.6579 73.3891 31.6037 73.3467 31.519 73.3134C31.4318 73.2789 31.3377 73.2654 31.2443 73.274C31.1701 73.2835 31.0982 73.3071 31.0329 73.3437C30.9695 73.377 30.8186 73.4679 30.6555 73.692C30.5709 73.8071 30.5286 73.898 30.4471 74.0707C30.3475 74.2796 30.3233 74.3675 30.2237 74.6098C30.118 74.8612 30.0668 74.9884 29.9912 75.1187C29.9339 75.2186 29.8071 75.4216 29.4477 75.7245C28.7109 76.3484 28.1584 76.4181 27.8052 77.0239C27.7924 77.0509 27.7783 77.0772 27.7629 77.1027C27.5244 77.5328 27.3402 77.866 27.2163 78.0871Z" fill="#AA1A17"/>
  <path d="M42.9376 71.5793C42.522 71.8045 42.1602 72.1176 41.8774 72.4971C41.8397 72.5468 41.809 72.5962 41.7482 72.6919C41.5335 73.0289 41.3418 73.3801 41.1746 73.7432C40.8995 74.3236 40.5776 74.9991 39.8611 75.4289C39.3762 75.7175 38.8777 75.7996 38.3936 75.8711C37.9268 75.9405 37.1841 76.0095 36.0273 75.8408C36.0685 75.9904 36.1079 76.1358 36.1481 76.2855C37.0772 76.3794 37.7155 76.3312 38.0219 76.2985C38.7212 76.224 39.106 76.0928 39.2847 76.0283C39.4725 75.9574 40.016 75.7399 40.4989 75.2953C40.8044 75.0115 40.9418 74.7676 41.2159 74.2724C41.6042 73.5727 41.5121 73.4967 41.85 72.9669C42.0807 72.6034 42.3029 72.2648 42.7745 71.928C43.0845 71.7114 43.4244 71.5414 43.7834 71.4233C44.655 71.1298 45.4622 71.171 45.8459 71.2113C45.5712 71.1613 44.1218 70.9387 42.9376 71.5793Z" fill="#AA1A17"/>
  <path d="M43.4987 70.454C43.4521 70.6726 43.3812 70.8852 43.2874 71.088C43.1425 71.3882 42.9915 71.5339 42.8284 71.6847C42.6078 71.8928 42.5597 71.8589 42.3 72.0667C42.3462 72.0969 42.3906 72.1294 42.4377 72.1575C42.4534 72.1445 42.4704 72.1354 42.4857 72.1224C42.6518 72.0062 42.8089 71.8777 42.9559 71.738C42.9862 71.7115 43.0149 71.6831 43.0416 71.6529C43.218 71.4553 43.3545 71.2253 43.4435 70.9756C43.7128 70.2314 43.5864 69.3527 43.5589 69.1858C43.6055 69.6091 43.5853 70.0371 43.4987 70.454Z" fill="#AA1A17"/>
  <path d="M42.9808 74.9418C42.8191 74.9793 42.6514 74.9812 42.4889 74.9472C42.4659 74.943 42.4493 74.936 42.4098 74.9245C42.276 74.8858 42.1456 74.8362 42.02 74.7761C41.8143 74.6852 41.5791 74.5777 41.2893 74.6313C41.0933 74.6667 40.9399 74.7655 40.7931 74.8612C40.651 74.9521 40.4356 75.1117 40.1591 75.4334C40.1359 75.384 40.1157 75.3337 40.0933 75.2819C40.2468 75.1154 40.4159 74.964 40.5981 74.8297C40.7226 74.7369 40.8581 74.6604 41.0018 74.6019C41.1586 74.54 41.3258 74.5092 41.4942 74.511C41.6401 74.515 41.7313 74.5489 41.917 74.6174C42.1791 74.7134 42.1688 74.7564 42.3808 74.82C42.5242 74.8621 42.6592 74.9036 42.8639 74.8806C42.9972 74.8648 43.1274 74.8297 43.2506 74.7764C43.4803 74.674 43.6865 74.5253 43.8564 74.3396C43.787 74.4238 43.4454 74.8318 42.9808 74.9418Z" fill="#AA1A17"/>
  <path d="M30.3173 70.1812C30.2562 70.1995 30.1975 70.2249 30.1421 70.2569C30.0797 70.2943 30.0261 70.345 29.9852 70.4053C29.9338 70.475 29.943 70.4871 29.8946 70.5689C29.8844 70.555 29.8733 70.5419 29.8613 70.5295C29.8644 70.5235 29.8674 70.5204 29.8705 70.5144C29.8974 70.4623 29.9286 70.4126 29.9641 70.3659C29.9706 70.3565 29.9776 70.3473 29.9852 70.3387C30.0361 70.2826 30.0977 70.2373 30.1664 70.2054C30.3747 70.1115 30.6344 70.1327 30.6827 70.1357C30.5593 70.1329 30.4362 70.1482 30.3173 70.1812Z" fill="#AA1A17"/>
  <path d="M24.3933 87.7767C24.3048 87.6096 24.2515 87.4261 24.2362 87.2376C24.2334 87.2063 24.2323 87.175 24.2332 87.1436C24.2335 86.9877 24.2436 86.8319 24.2635 86.6772C24.2936 86.4288 24.3299 86.141 24.185 85.8351C24.0853 85.6292 23.9404 85.4868 23.7955 85.3505C23.6566 85.2172 23.427 85.0204 23.0134 84.8022C23.0587 84.7659 23.101 84.7295 23.1462 84.6902C23.3655 84.8158 23.5718 84.9629 23.7622 85.1294C23.9765 85.3172 24.0762 85.4505 24.1186 85.514C24.231 85.6702 24.3139 85.8457 24.3631 86.0321C24.4054 86.1926 24.3993 86.3047 24.3843 86.5228C24.3661 86.8347 24.3209 86.8377 24.3209 87.083C24.3209 87.2527 24.3239 87.4102 24.4084 87.6283C24.4642 87.771 24.5405 87.9046 24.6348 88.0251C24.8069 88.2496 25.0213 88.438 25.2659 88.5794C25.1723 88.5279 24.65 88.2583 24.3933 87.7767Z" fill="#AA1A17"/>
  <path d="M38.8019 89.6094C38.588 89.5962 38.3768 89.5544 38.1739 89.4852C37.8628 89.3761 37.6878 89.2307 37.5035 89.0763C37.2348 88.8491 37.2741 88.7976 36.948 88.4917C36.7185 88.2736 36.6038 88.1675 36.3925 88.0616C36.1479 87.946 35.8854 87.8733 35.6164 87.8465C35.5077 87.8374 35.2782 87.8193 34.8887 87.8737C34.8283 87.8828 34.7468 87.895 34.6472 87.9162C34.5234 88.0464 34.3693 88.1524 34.2154 88.2494C34.2124 88.2524 34.2094 88.2524 34.2063 88.2555C34.5143 88.1492 34.8334 88.079 35.1574 88.0465C35.4322 88.0191 35.7161 87.9949 36.024 88.0797C36.483 88.2039 36.7638 88.5098 37.0084 88.7704C37.1585 88.9359 37.3199 89.0907 37.4915 89.2337C37.5241 89.264 37.5583 89.2922 37.5941 89.3186C37.8115 89.4759 38.0578 89.5881 38.3188 89.6487C39.0646 89.8184 39.8165 89.5124 39.9584 89.4518C39.7531 89.5154 39.3212 89.6427 38.8019 89.6094Z" fill="#AA1A17"/>
  <defs>
    <linearGradient id="paint0_linear_438_837" x1="0" y1="30.3475" x2="59.9985" y2="30.3475" gradientUnits="userSpaceOnUse">
      <stop stop-color="#B50400"/>
      <stop offset="0.5133" stop-color="#B50300"/>
      <stop offset="1" stop-color="#970000"/>
    </linearGradient>
  </defs>
</svg>
