<svg width="733" height="449" viewBox="0 0 733 449" fill="none" xmlns="http://www.w3.org/2000/svg">
  <mask id="mask0_999_772" style="mask-type:alpha" maskUnits="userSpaceOnUse" x="0" y="0" width="733" height="449">
    <rect width="733" height="449" fill="#0D121A"/>
  </mask>
  <g mask="url(#mask0_999_772)">
    <path d="M602.814 56.4761C557.437 35.2314 508.917 19.7916 458.192 11C451.962 22.2705 444.684 37.4295 439.666 49.4885C385.744 41.3738 332.317 41.3738 279.386 49.4885C274.369 37.4295 266.926 22.2705 260.64 11C209.86 19.7916 161.285 35.2881 115.908 56.5886C24.3824 194.987 -0.428776 329.948 11.9768 462.993C72.6815 508.356 131.512 535.912 189.349 553.944C203.629 534.277 216.366 513.371 227.337 491.338C206.441 483.392 186.427 473.587 167.516 462.204C172.533 458.485 177.44 454.597 182.181 450.596C297.526 504.581 422.85 504.581 536.816 450.596C541.613 454.597 546.52 458.485 551.482 462.204C532.515 473.643 512.446 483.448 491.55 491.395C502.522 513.371 515.203 534.334 529.538 554C587.431 535.968 646.316 508.412 707.021 462.993C721.577 308.76 682.155 175.039 602.814 56.4761ZM243.052 381.172C208.426 381.172 180.031 348.826 180.031 309.436C180.031 270.047 207.82 237.645 243.052 237.645C278.284 237.645 306.678 269.99 306.072 309.436C306.127 348.826 278.284 381.172 243.052 381.172ZM475.946 381.172C441.321 381.172 412.925 348.826 412.925 309.436C412.925 270.047 440.714 237.645 475.946 237.645C511.178 237.645 539.573 269.99 538.967 309.436C538.967 348.826 511.178 381.172 475.946 381.172Z" fill="url(#paint0_linear_999_772)"/>
    <path d="M604.814 56.4761C559.437 35.2314 510.917 19.7916 460.192 11C453.962 22.2705 446.684 37.4295 441.666 49.4885C387.744 41.3738 334.317 41.3738 281.386 49.4885C276.369 37.4295 268.926 22.2705 262.64 11C211.86 19.7916 163.285 35.2881 117.908 56.5886C26.3824 194.987 1.57122 329.948 13.9768 462.993C74.6815 508.356 133.512 535.912 191.349 553.944C205.629 534.277 218.366 513.371 229.337 491.338C208.441 483.392 188.427 473.587 169.516 462.204C174.533 458.485 179.44 454.597 184.181 450.596C299.526 504.581 424.85 504.581 538.816 450.596C543.613 454.597 548.52 458.485 553.482 462.204C534.515 473.643 514.446 483.448 493.55 491.395C504.522 513.371 517.203 534.334 531.538 554C589.431 535.968 648.316 508.412 709.021 462.993C723.577 308.76 684.155 175.039 604.814 56.4761ZM245.052 381.172C210.426 381.172 182.031 348.826 182.031 309.436C182.031 270.047 209.82 237.645 245.052 237.645C280.284 237.645 308.678 269.99 308.072 309.436C308.127 348.826 280.284 381.172 245.052 381.172ZM477.946 381.172C443.321 381.172 414.925 348.826 414.925 309.436C414.925 270.047 442.714 237.645 477.946 237.645C513.178 237.645 541.573 269.99 540.967 309.436C540.967 348.826 513.178 381.172 477.946 381.172Z" fill="url(#paint1_linear_999_772)"/>
  </g>
  <path d="M299.739 195.088L306.243 178.406H311.112L302.217 199.359C301.936 200.004 301.614 200.631 301.25 201.24C300.899 201.838 300.471 202.371 299.967 202.84C299.463 203.309 298.854 203.684 298.139 203.965C297.424 204.234 296.557 204.369 295.537 204.369C295.268 204.369 294.94 204.357 294.553 204.334C294.178 204.311 293.903 204.287 293.727 204.264L293.762 200.801C293.903 200.824 294.137 200.842 294.465 200.854C294.805 200.865 295.051 200.871 295.204 200.871C295.883 200.871 296.422 200.76 296.821 200.537C297.219 200.303 297.536 199.992 297.77 199.605C298.016 199.207 298.233 198.773 298.42 198.305L299.739 195.088ZM294.852 178.406L301.286 192.574L302.551 197.18L299.123 197.303L290.036 178.406H294.852ZM329.524 195.668H333.919C333.778 197.344 333.31 198.838 332.513 200.15C331.716 201.451 330.597 202.477 329.155 203.227C327.714 203.977 325.962 204.352 323.899 204.352C322.317 204.352 320.894 204.07 319.628 203.508C318.362 202.934 317.278 202.125 316.376 201.082C315.474 200.027 314.782 198.756 314.302 197.268C313.833 195.779 313.599 194.115 313.599 192.275V190.148C313.599 188.309 313.839 186.645 314.319 185.156C314.812 183.668 315.515 182.396 316.429 181.342C317.343 180.275 318.439 179.461 319.716 178.898C321.005 178.336 322.452 178.055 324.058 178.055C326.097 178.055 327.819 178.43 329.226 179.18C330.632 179.93 331.722 180.967 332.495 182.291C333.28 183.615 333.761 185.133 333.937 186.844H329.542C329.425 185.742 329.167 184.799 328.769 184.014C328.382 183.229 327.808 182.631 327.046 182.221C326.284 181.799 325.288 181.588 324.058 181.588C323.05 181.588 322.171 181.775 321.421 182.15C320.671 182.525 320.044 183.076 319.54 183.803C319.036 184.529 318.655 185.426 318.397 186.492C318.151 187.547 318.028 188.754 318.028 190.113V192.275C318.028 193.564 318.14 194.736 318.362 195.791C318.597 196.834 318.948 197.73 319.417 198.48C319.897 199.23 320.507 199.811 321.245 200.221C321.983 200.631 322.868 200.836 323.899 200.836C325.153 200.836 326.167 200.637 326.94 200.238C327.726 199.84 328.317 199.26 328.716 198.498C329.126 197.725 329.396 196.781 329.524 195.668ZM358.537 178.406V204H354.142V181.922H342.769V204H338.375V178.406H358.537ZM380.957 200.502V204H367.369V200.502H380.957ZM368.618 178.406V204H364.205V178.406H368.618ZM379.182 189.094V192.539H367.369V189.094H379.182ZM380.869 178.406V181.922H367.369V178.406H380.869ZM388.278 178.406L393.71 187.74L399.142 178.406H404.222L396.487 191.08L404.415 204H399.282L393.71 194.49L388.138 204H382.987L390.933 191.08L383.181 178.406H388.278ZM412.386 196.811L423.742 178.406H428.154V204H423.742V185.578L412.386 204H407.992V178.406H412.386V196.811Z" fill="white"/>
  <path d="M317.645 221.203V234H315.958V222.592H309.647V234H307.951V221.203H317.645ZM330.754 227.197V228.006C330.754 228.967 330.634 229.828 330.394 230.59C330.153 231.352 329.808 231.999 329.356 232.532C328.905 233.065 328.363 233.473 327.731 233.754C327.104 234.035 326.4 234.176 325.621 234.176C324.865 234.176 324.171 234.035 323.538 233.754C322.911 233.473 322.366 233.065 321.903 232.532C321.446 231.999 321.092 231.352 320.84 230.59C320.588 229.828 320.462 228.967 320.462 228.006V227.197C320.462 226.236 320.585 225.378 320.831 224.622C321.083 223.86 321.438 223.213 321.895 222.68C322.352 222.141 322.894 221.73 323.521 221.449C324.153 221.168 324.848 221.027 325.604 221.027C326.383 221.027 327.086 221.168 327.713 221.449C328.346 221.73 328.888 222.141 329.339 222.68C329.796 223.213 330.145 223.86 330.385 224.622C330.631 225.378 330.754 226.236 330.754 227.197ZM329.075 228.006V227.18C329.075 226.418 328.996 225.744 328.838 225.158C328.686 224.572 328.46 224.08 328.161 223.682C327.862 223.283 327.496 222.981 327.063 222.776C326.635 222.571 326.148 222.469 325.604 222.469C325.076 222.469 324.599 222.571 324.171 222.776C323.749 222.981 323.386 223.283 323.081 223.682C322.782 224.08 322.551 224.572 322.387 225.158C322.223 225.744 322.141 226.418 322.141 227.18V228.006C322.141 228.773 322.223 229.453 322.387 230.045C322.551 230.631 322.785 231.126 323.09 231.53C323.4 231.929 323.767 232.23 324.189 232.436C324.616 232.641 325.094 232.743 325.621 232.743C326.172 232.743 326.661 232.641 327.089 232.436C327.517 232.23 327.877 231.929 328.17 231.53C328.469 231.126 328.694 230.631 328.847 230.045C328.999 229.453 329.075 228.773 329.075 228.006ZM341.2 229.931H342.887C342.799 230.739 342.568 231.463 342.193 232.102C341.818 232.74 341.287 233.247 340.602 233.622C339.916 233.991 339.061 234.176 338.036 234.176C337.286 234.176 336.603 234.035 335.988 233.754C335.378 233.473 334.854 233.074 334.414 232.559C333.975 232.037 333.635 231.413 333.395 230.687C333.161 229.954 333.043 229.14 333.043 228.243V226.969C333.043 226.072 333.161 225.261 333.395 224.534C333.635 223.802 333.978 223.175 334.423 222.653C334.874 222.132 335.416 221.73 336.049 221.449C336.682 221.168 337.394 221.027 338.185 221.027C339.152 221.027 339.969 221.209 340.637 221.572C341.305 221.936 341.824 222.439 342.193 223.084C342.568 223.723 342.799 224.464 342.887 225.308H341.2C341.118 224.71 340.965 224.197 340.743 223.77C340.52 223.336 340.203 223.002 339.793 222.768C339.383 222.533 338.847 222.416 338.185 222.416C337.617 222.416 337.116 222.524 336.682 222.741C336.254 222.958 335.894 223.266 335.601 223.664C335.314 224.062 335.097 224.54 334.951 225.097C334.804 225.653 334.731 226.271 334.731 226.951V228.243C334.731 228.87 334.795 229.459 334.924 230.01C335.059 230.561 335.261 231.044 335.531 231.46C335.8 231.876 336.143 232.204 336.559 232.444C336.975 232.679 337.467 232.796 338.036 232.796C338.756 232.796 339.33 232.682 339.758 232.453C340.186 232.225 340.508 231.896 340.725 231.469C340.948 231.041 341.106 230.528 341.2 229.931ZM353.605 221.203V222.592H347.752V221.203H353.605ZM355.064 221.203V234H353.368V221.203H355.064ZM347.172 221.203H348.859L348.569 227.47C348.528 228.372 348.458 229.178 348.358 229.887C348.264 230.59 348.13 231.202 347.954 231.724C347.778 232.239 347.549 232.667 347.268 233.007C346.987 233.341 346.641 233.59 346.231 233.754C345.827 233.918 345.341 234 344.772 234H344.315V232.62L344.667 232.594C344.995 232.57 345.276 232.497 345.51 232.374C345.751 232.245 345.953 232.052 346.117 231.794C346.287 231.536 346.424 231.202 346.53 230.792C346.635 230.382 346.717 229.881 346.776 229.289C346.841 228.691 346.89 227.994 346.925 227.197L347.172 221.203ZM366.433 232.62V234H359.656V232.62H366.433ZM359.999 221.203V234H358.303V221.203H359.999ZM365.536 226.705V228.085H359.656V226.705H365.536ZM366.345 221.203V222.592H359.656V221.203H366.345ZM378.777 232.62V234H369.091V232.62H378.777ZM369.364 232.62V237.146H367.685L367.676 232.62H369.364ZM380.253 232.62L380.236 237.138H378.557V232.62H380.253ZM377.116 221.203V222.592H371.508V221.203H377.116ZM378.575 221.203V234H376.887V221.203H378.575ZM370.928 221.203H372.624L372.361 226.354C372.326 227.127 372.252 227.842 372.141 228.498C372.03 229.148 371.892 229.743 371.728 230.282C371.564 230.821 371.376 231.305 371.165 231.732C370.954 232.154 370.729 232.521 370.489 232.831C370.248 233.136 369.996 233.388 369.733 233.587C369.475 233.78 369.214 233.918 368.951 234H368.177V232.62H368.722C368.874 232.456 369.047 232.219 369.241 231.908C369.44 231.598 369.636 231.196 369.829 230.704C370.029 230.206 370.201 229.6 370.348 228.885C370.5 228.17 370.603 227.326 370.656 226.354L370.928 221.203ZM390.787 226.705V228.085H383.861V226.705H390.787ZM384.125 221.203V234H382.428V221.203H384.125ZM392.263 221.203V234H390.576V221.203H392.263ZM403.588 232.62V234H396.811V232.62H403.588ZM397.154 221.203V234H395.458V221.203H397.154ZM402.691 226.705V228.085H396.811V226.705H402.691ZM403.5 221.203V222.592H396.811V221.203H403.5ZM413.998 232.62V234H407.222V232.62H413.998ZM407.565 221.203V234H405.868V221.203H407.565ZM413.102 226.705V228.085H407.222V226.705H413.102ZM413.91 221.203V222.592H407.222V221.203H413.91Z" fill="#AA1A17"/>
  <defs>
    <linearGradient id="paint0_linear_999_772" x1="278.788" y1="116.518" x2="361.276" y2="555.097" gradientUnits="userSpaceOnUse">
      <stop/>
      <stop offset="1" stop-color="#070707" stop-opacity="0"/>
      <stop offset="1" stop-color="#070707" stop-opacity="0"/>
    </linearGradient>
    <linearGradient id="paint1_linear_999_772" x1="361.095" y1="100.907" x2="361.095" y2="578.566" gradientUnits="userSpaceOnUse">
      <stop offset="0.15625" stop-opacity="0"/>
      <stop offset="0.9999" stop-color="#AA1A17" stop-opacity="0.45"/>
    </linearGradient>
  </defs>
</svg>
