<svg width="390" height="339" viewBox="0 0 390 339" fill="none" xmlns="http://www.w3.org/2000/svg">
  <mask id="mask0_0_1" style="mask-type:alpha" maskUnits="userSpaceOnUse" x="-119" y="-1" width="511" height="177">
    <path d="M285.102 148.56C382.48 116.944 390.428 53.8529 390.963 0.000111248L-118.014 44.8406L-109.353 161C-43.8533 161 -89.8535 175 -15.3533 175C-5.37907 170.801 -31.6034 185.38 54.7715 144.431C141.146 103.482 187.724 180.176 285.102 148.56Z" fill="#D9D9D9" stroke="#ABABAB"/>
  </mask>
  <g mask="url(#mask0_0_1)">
    <path d="M72.6797 200.153C40.5507 197.14 16.9416 168.645 19.9547 136.516C22.9677 104.387 51.4533 80.7769 83.5921 83.7909C99.0703 85.2424 112.566 92.6091 122.071 103.444L144.177 84.0558C129.894 67.767 109.599 56.6926 86.3379 54.5113C38.0328 49.9813 -4.78527 85.466 -9.31436 133.761C-13.8434 182.057 21.6404 224.885 69.9357 229.414C93.1966 231.595 115.196 224.497 132.258 211.147L114.142 187.987C102.788 196.876 88.1579 201.605 72.6797 200.153Z" fill="white"/>
    <path d="M161.838 168.664C158.618 178.814 153.611 188.102 147.238 196.216L124.129 178.024C128.371 172.624 131.699 166.434 133.838 159.674L161.838 168.664Z" fill="white"/>
    <path d="M132.246 211.158L146.075 228.841C124.656 245.595 97.0394 254.513 67.8277 251.774C7.19431 246.087 -37.3634 192.319 -31.6763 131.676C-25.9893 71.0325 27.7893 26.4758 88.4323 32.1628C117.644 34.9022 143.121 48.7993 161.051 69.2434L144.176 84.0475C129.893 67.7684 109.597 56.694 86.3363 54.5126C38.0313 49.9826 -4.78683 85.4673 -9.31592 133.763C-13.845 182.058 21.6388 224.886 69.9342 229.415C93.1942 231.606 115.194 224.508 132.246 211.158ZM165.289 130.925L187.577 128.155C185.914 114.918 181.884 102.318 175.88 90.8631L155.96 101.226C160.746 110.348 163.97 120.378 165.289 130.925ZM161.838 168.664C158.617 178.814 153.611 188.102 147.237 196.216L164.884 210.102C172.888 199.922 179.172 188.27 183.222 175.529L161.838 168.664Z" fill="url(#paint0_linear_0_1)"/>
    <path d="M165.292 130.925L136.108 134.553C135.221 127.538 133.07 120.874 129.875 114.805L155.963 101.227C160.749 110.348 163.973 120.379 165.292 130.925Z" fill="white"/>
  </g>
  <path d="M22.8189 159.559C-84.0004 203.573 -93.5806 274.015 -93.9444 338.988L471.017 287.063L501.5 125C433.499 75.3015 398.174 134.412 278.735 166.165C159.295 197.918 129.638 115.545 22.8189 159.559Z" fill="url(#paint1_linear_0_1)"/>
  <defs>
    <linearGradient id="paint0_linear_0_1" x1="-31.6761" y1="131.673" x2="185.42" y2="152.032" gradientUnits="userSpaceOnUse">
      <stop stop-color="#B50400"/>
      <stop offset="0.5133" stop-color="#B50300"/>
      <stop offset="1" stop-color="#970000"/>
    </linearGradient>
    <linearGradient id="paint1_linear_0_1" x1="183.324" y1="87.2997" x2="193.927" y2="326.212" gradientUnits="userSpaceOnUse">
      <stop stop-color="#151C28"/>
      <stop offset="1" stop-color="#020C18" stop-opacity="0"/>
    </linearGradient>
  </defs>
</svg>
