<svg width="274" height="321" viewBox="0 0 274 321" fill="none" xmlns="http://www.w3.org/2000/svg">
  <path d="M210.804 116.893C195.867 101.602 178.796 87.9829 159.836 76.5031C155.639 79.7282 150.434 84.2436 146.602 87.96C126.261 76.2187 104.89 67.6028 82.49 62.1121C82.3078 56.7774 81.6241 49.8879 80.8152 44.6446C59.1729 39.7548 37.3982 37.737 16.0245 38.4131C-41.5263 75.5931 -71.8712 122.242 -87.0395 174.173C-69.6213 200.987 -50.2587 220.816 -29.8522 236.911C-21.1643 231.833 -12.9066 226.041 -5.18411 219.542C-12.3405 213.19 -18.8626 206.282 -24.7047 198.961C-22.1351 198.374 -19.5838 197.706 -17.0819 196.969C20.8875 235.83 71.0171 256.041 124.772 254.16C126.085 256.435 127.459 258.686 128.882 260.882C119.564 262.116 110.053 262.559 100.492 262.172C101.556 272.189 103.456 282.101 106.215 291.793C132.1 294.362 159.824 293.517 190.978 286.261C220.137 230.726 224.601 174.184 210.804 116.893ZM17.7704 180.731C3.92033 175.147 -2.54369 158.429 3.41619 143.646C9.37606 128.863 25.3943 121.185 39.4869 126.866C53.5798 132.548 60.0436 149.266 53.8326 163.972C47.8946 178.764 31.8633 186.413 17.7704 180.731ZM110.928 218.289C97.0781 212.705 90.6141 195.987 96.5739 181.204C102.534 166.422 118.552 158.743 132.645 164.425C146.737 170.106 153.201 186.825 146.99 201.531C141.03 216.313 125.021 223.971 110.928 218.289Z" fill="#030B16"/>
  <path d="M224.183 112.83C209.246 97.5387 192.175 83.9197 173.215 72.4399C169.018 75.665 163.813 80.1804 159.981 83.8968C139.64 72.1555 118.269 63.5395 95.8689 58.0489C95.6867 52.7142 95.003 45.8247 94.1941 40.5813C72.5518 35.6915 50.7771 33.6738 29.4035 34.3499C-28.1474 71.5299 -58.4923 118.179 -73.6606 170.11C-56.2424 196.924 -36.8798 216.753 -16.4733 232.848C-7.78543 227.77 0.472284 221.978 8.1948 215.478C1.03846 209.127 -5.48367 202.219 -11.3258 194.897C-8.75621 194.311 -6.20487 193.643 -3.70299 192.906C34.2664 231.767 84.396 251.978 138.151 250.097C139.464 252.372 140.838 254.623 142.261 256.819C132.943 258.053 123.432 258.496 113.871 258.108C114.935 268.125 116.835 278.038 119.594 287.73C145.479 290.299 173.203 289.454 204.357 282.198C233.516 226.663 237.98 170.12 224.183 112.83ZM31.1493 176.668C17.2992 171.084 10.8352 154.365 16.7951 139.583C22.755 124.8 38.7732 117.122 52.8658 122.803C66.9587 128.485 73.4225 145.203 67.2115 159.909C61.2736 174.701 45.2422 182.35 31.1493 176.668ZM124.307 214.226C110.457 208.642 103.993 191.924 109.953 177.141C115.913 162.358 131.931 154.68 146.024 160.361C160.116 166.043 166.58 182.761 160.369 197.467C154.409 212.25 138.4 219.908 124.307 214.226Z" fill="#151C28"/>
</svg>
