<svg width="390" height="490" viewBox="0 0 390 490" fill="none" xmlns="http://www.w3.org/2000/svg">
  <path d="M177.02 329.795L177.046 329.563L176.815 329.521L153.629 325.4L153.006 325.29L153.385 325.796L160.843 335.778L155.604 355.326L155.418 356.022L155.995 355.591L168.613 346.176L173.953 353.321L174.331 353.828L174.401 353.2L177.02 329.795Z" fill="url(#paint0_linear_1028_1260)" fill-opacity="0.3" stroke="#AA1A17" stroke-width="0.5"/>
  <path d="M131.035 363.722L131.009 363.955L131.24 363.996L154.427 368.117L155.049 368.228L154.671 367.722L147.272 357.821L152.452 338.191L152.634 337.499L152.06 337.927L139.442 347.342L134.103 340.197L133.725 339.69L133.654 340.318L131.035 363.722Z" stroke="#AA1A17" stroke-width="0.5"/>
  <path d="M111.362 55.1343L111.388 54.9014L111.157 54.8604L87.9705 50.7392L87.348 50.6286L87.7264 51.135L95.1853 61.1169L89.946 80.6645L89.7595 81.3605L90.337 80.9296L102.955 71.5151L108.294 78.6603L108.673 79.1667L108.743 78.5385L111.362 55.1343Z" fill="url(#paint1_linear_1028_1260)" fill-opacity="0.3" stroke="#AA1A17" stroke-width="0.5"/>
  <path d="M65.3773 89.0612L65.3512 89.2941L65.582 89.3352L88.7688 93.4562L89.3912 93.5669L89.0128 93.0605L81.6142 83.1593L86.7934 63.53L86.9761 62.8377L86.4022 63.2658L73.784 72.6803L68.4449 65.5353L68.0665 65.0289L67.9962 65.6571L65.3773 89.0612Z" stroke="#AA1A17" stroke-width="0.5"/>
  <path d="M270.719 248.145C270.803 248.521 270.965 248.877 271.187 249.189L275.391 255.11L265.561 262.091L262.704 258.067L262.703 258.066C261.525 256.426 260.682 254.572 260.219 252.609C259.755 250.646 259.681 248.615 260.002 246.628L260.002 246.627L270.963 248.089M270.719 248.145C270.719 248.144 270.719 248.144 270.719 248.143L270.963 248.089M270.719 248.145C270.719 248.145 270.719 248.145 270.719 248.146L270.963 248.089M270.719 248.145C270.631 247.769 270.62 247.382 270.685 247.001M270.963 248.089C270.882 247.745 270.872 247.391 270.931 247.042M270.685 247.001C270.685 247.001 270.685 247.001 270.685 247.002L270.931 247.042M270.685 247.001C270.685 247.001 270.685 247 270.685 247L270.931 247.042M270.685 247.001L270.931 247.042M287.632 261.902L287.777 262.106C287.845 262.058 287.912 262.009 287.979 261.959L287.834 261.755C287.767 261.805 287.7 261.854 287.632 261.902ZM266.157 236.671C266.157 236.671 266.157 236.671 266.158 236.671L266.012 236.468L266.157 236.671C266.157 236.671 266.157 236.671 266.157 236.671ZM261.874 240.899L262.087 241.031C262.087 241.031 262.087 241.031 262.087 241.031C262.087 241.031 262.087 241.031 262.087 241.031L261.874 240.899Z" fill="url(#paint2_linear_1028_1260)" fill-opacity="0.3" stroke="#AA1A17" stroke-width="0.5"/>
  <path d="M290.089 272.68L289.72 272.942C289.434 273.145 289.11 273.288 288.769 273.367C288.426 273.444 288.072 273.454 287.725 273.393C287.378 273.332 287.047 273.206 286.747 273.018C286.449 272.829 286.189 272.586 285.986 272.299L274.327 255.881C272.983 256.836 271.839 258.049 270.965 259.448C270.091 260.847 269.5 262.406 269.228 264.036C268.956 265.667 269.009 267.337 269.38 268.951C269.751 270.565 270.438 272.093 271.397 273.443L274.356 277.61C275.528 279.298 277.021 280.737 278.748 281.843C280.477 282.951 282.403 283.705 284.421 284.063C286.438 284.422 288.503 284.375 290.498 283.928C292.492 283.481 294.377 282.643 296.043 281.46C297.709 280.277 299.122 278.776 300.201 277.038C301.28 275.302 302.003 273.365 302.33 271.345C302.655 269.323 302.58 267.255 302.104 265.258C301.627 263.26 300.761 261.376 299.555 259.716L296.596 255.549L286.358 262.819L290.707 268.943C290.91 269.23 291.058 269.556 291.135 269.899C291.215 270.243 291.223 270.598 291.166 270.946C291.109 271.294 290.983 271.624 290.798 271.923C290.618 272.221 290.375 272.477 290.089 272.68Z" fill="url(#paint3_linear_1028_1260)" fill-opacity="0.3" stroke="#AA1A17" stroke-width="0.5"/>
  <path d="M56.6986 244.136C56.7829 244.513 56.9448 244.869 57.1666 245.181L61.3708 251.101L51.5403 258.082L48.6832 254.059L48.6824 254.058C47.5049 252.418 46.6616 250.564 46.1983 248.601C45.7349 246.638 45.6602 244.606 45.9816 242.619L45.9817 242.619L56.9423 244.08M56.6986 244.136C56.6985 244.136 56.6984 244.135 56.6984 244.135L56.9423 244.08M56.6986 244.136C56.6987 244.137 56.6988 244.137 56.6989 244.137L56.9423 244.08M56.6986 244.136C56.6108 243.76 56.5996 243.374 56.6641 242.992M56.9423 244.08C56.8619 243.737 56.8515 243.383 56.9107 243.034M56.6641 242.992C56.6641 242.993 56.664 242.993 56.664 242.993L56.9107 243.034M56.6641 242.992C56.6642 242.992 56.6642 242.992 56.6642 242.992L56.9107 243.034M56.6641 242.992L56.9107 243.034M73.6115 257.894L73.7563 258.097C73.8242 258.049 73.8917 258 73.9586 257.951L73.8139 257.747C73.7469 257.796 73.6795 257.845 73.6115 257.894ZM52.1367 232.663C52.1368 232.662 52.137 232.662 52.1371 232.662L51.9913 232.459L52.1363 232.663C52.1364 232.663 52.1366 232.663 52.1367 232.663ZM47.8538 236.891L48.0664 237.023C48.0664 237.022 48.0665 237.022 48.0666 237.022C48.0666 237.022 48.0666 237.022 48.0666 237.022L47.8538 236.891Z" fill="url(#paint4_linear_1028_1260)" fill-opacity="0.3" stroke="#AA1A17" stroke-width="0.5"/>
  <path d="M74.8045 269.602L74.8028 269.602C74.4285 269.686 74.0418 269.698 73.6612 269.631C73.2822 269.565 72.9216 269.427 72.5939 269.222L72.5924 269.221C72.2679 269.015 71.9842 268.749 71.7613 268.436L60.2487 252.223C59.0191 253.135 57.9692 254.271 57.1567 255.572C56.2999 256.943 55.7211 258.471 55.4541 260.069C55.1871 261.667 55.239 263.304 55.6029 264.887C55.9667 266.469 56.64 267.966 57.5802 269.29L60.5394 273.457L60.541 273.459L60.541 273.459C61.6938 275.12 63.163 276.536 64.8626 277.624L64.8627 277.624C66.5641 278.714 68.4589 279.456 70.4446 279.808L70.4448 279.808C72.4283 280.162 74.4602 280.116 76.4225 279.676C78.3849 279.236 80.2391 278.412 81.8779 277.248C83.5169 276.084 84.9071 274.607 85.9676 272.898L85.9677 272.897C87.0298 271.19 87.7412 269.284 88.0627 267.297C88.3826 265.308 88.3084 263.273 87.8399 261.307C87.3713 259.342 86.5185 257.488 85.3323 255.854L85.3307 255.852L82.5162 251.889L72.6857 258.87L76.8899 264.79C77.1117 265.102 77.2737 265.459 77.3579 265.835M74.8045 269.602L77.1142 265.891M74.8045 269.602C75.1769 269.516 75.5303 269.36 75.8443 269.137L76.2131 268.876C76.5255 268.654 76.7921 268.373 76.9903 268.045M74.8045 269.602L76.777 267.914M77.3579 265.835C77.358 265.835 77.3581 265.836 77.3582 265.836L77.1142 265.891M77.3579 265.835C77.3578 265.835 77.3577 265.834 77.3576 265.834L77.1142 265.891M77.3579 265.835C77.446 266.212 77.4545 266.6 77.3925 266.978C77.3301 267.359 77.1921 267.719 76.9903 268.045M77.1142 265.891C77.1946 266.235 77.2028 266.59 77.1458 266.938C77.0888 267.285 76.9625 267.616 76.777 267.914M76.9903 268.045C76.9906 268.044 76.9909 268.044 76.9911 268.044L76.777 267.914M76.9903 268.045C76.99 268.045 76.9897 268.046 76.9894 268.046L76.777 267.914" fill="url(#paint5_linear_1028_1260)" fill-opacity="0.3" stroke="#AA1A17" stroke-width="0.5"/>
  <path d="M386.384 335.81L363.023 347.289L361.407 366.565L386.384 335.81Z" fill="url(#paint6_linear_1028_1260)" fill-opacity="0.3" stroke="#AA1A17" stroke-width="0.5"/>
  <path d="M340.791 331.987L362.654 347.259L361.038 366.534L340.791 331.987Z" stroke="#AA1A17" stroke-width="0.5"/>
  <path d="M340.887 326.395L367.442 290.173L363.027 342.81L340.887 326.395Z" stroke="#AA1A17" stroke-width="0.5"/>
  <path d="M387.962 330.343L368.182 290.235L363.767 342.872L387.962 330.343Z" fill="url(#paint7_linear_1028_1260)" fill-opacity="0.3" stroke="#AA1A17" stroke-width="0.5"/>
  <path d="M365.523 318.843L342.253 326.769L363.046 342.521L365.523 318.843Z" stroke="#AA1A17" stroke-width="0.5"/>
  <path d="M365.763 319.083L387.519 330.24L364.535 342.114L365.763 319.083Z" stroke="#AA1A17" stroke-width="0.5"/>
  <path d="M355.117 146.614L337.083 154.24L335.048 168.649L355.117 146.614Z" fill="url(#paint8_linear_1028_1260)" fill-opacity="0.3" stroke="#AA1A17" stroke-width="0.5"/>
  <path d="M321.037 141.799L336.808 154.201L334.772 168.61L321.037 141.799Z" stroke="#AA1A17" stroke-width="0.5"/>
  <path d="M321.347 137.604L342.835 111.53L337.277 150.876L321.347 137.604Z" stroke="#AA1A17" stroke-width="0.5"/>
  <path d="M356.536 142.575L343.388 111.608L337.83 150.954L356.536 142.575Z" fill="url(#paint9_linear_1028_1260)" fill-opacity="0.3" stroke="#AA1A17" stroke-width="0.5"/>
  <path d="M340.173 132.981L322.358 137.943L337.304 150.66L340.173 132.981Z" stroke="#AA1A17" stroke-width="0.5"/>
  <path d="M340.342 133.172L356.207 142.479L338.439 150.417L340.342 133.172Z" stroke="#AA1A17" stroke-width="0.5"/>
  <path d="M120.257 449.501L111.894 467.206L119.979 479.305L120.257 449.501Z" fill="url(#paint10_linear_1028_1260)" fill-opacity="0.3" stroke="#AA1A17" stroke-width="0.5"/>
  <path d="M91.6399 468.625L111.663 467.361L119.748 479.46L91.6399 468.625Z" stroke="#AA1A17" stroke-width="0.5"/>
  <path d="M89.075 465.29L87.7188 431.53L109.797 464.569L89.075 465.29Z" stroke="#AA1A17" stroke-width="0.5"/>
  <path d="M118.623 445.545L88.1828 431.22L110.261 464.259L118.623 445.545Z" fill="url(#paint11_linear_1028_1260)" fill-opacity="0.3" stroke="#AA1A17" stroke-width="0.5"/>
  <path d="M100.03 449.297L90.0545 464.87L109.672 464.39L100.03 449.297Z" stroke="#AA1A17" stroke-width="0.5"/>
  <path d="M100.284 449.327L118.314 445.692L110.358 463.453L100.284 449.327Z" stroke="#AA1A17" stroke-width="0.5"/>
  <path d="M232.083 49.005L232.083 49.005C233.365 51.4499 235.001 53.6771 236.959 55.6498L236.959 55.6498C241.619 60.3454 247.904 63.2468 254.53 63.7619C264.404 64.5205 274.034 59.8912 279.581 51.7074L279.582 51.7071C280.333 50.6029 280.875 49.6478 281.554 48.2605L281.554 48.2602C282.471 46.392 283.029 44.9072 283.504 43.0646L283.504 43.0643C285.364 35.8801 284.292 28.3201 280.506 21.9068C276.198 14.6154 268.647 9.64898 260.2 8.55927L260.2 8.55926C256.672 8.10337 253.238 8.31352 249.725 9.21068C248.84 9.43791 246.58 10.2037 245.738 10.5598C238.84 13.5048 233.426 19.1337 230.726 26.1583C227.87 33.597 228.367 41.9229 232.083 49.005ZM250.858 12.9119L250.858 12.9119C255.256 11.796 259.988 11.9896 264.326 13.4675C272.655 16.3014 278.742 23.461 280.206 32.1374L279.96 32.179L280.206 32.1374C281.223 38.1644 279.851 44.4153 276.399 49.5091L276.399 49.5094C275.527 50.7906 274.703 51.7864 273.57 52.9304L273.57 52.9309C271.444 55.0649 269.211 56.6072 266.348 57.9232L266.347 57.9237C265.498 58.3089 263.126 59.1082 262.16 59.331C257.78 60.3431 253.489 60.1651 249.257 58.7937C248.091 58.4175 247.276 58.0812 246.117 57.514L246.117 57.514C239.161 54.1052 234.359 47.6386 233.075 39.9621L233.075 39.9621C232.45 36.2219 232.738 32.3951 233.922 28.7192C234.57 26.6968 235.681 24.4415 236.895 22.6544L236.895 22.6542C240.222 17.7653 245.069 14.383 250.858 12.9119Z" fill="url(#paint12_linear_1028_1260)" fill-opacity="0.3" stroke="#AA1A17" stroke-width="0.5"/>
  <path d="M254.15 23.747L254.137 23.7409C254.101 23.7233 254.069 23.7186 254.064 23.7178C254.052 23.7159 254.042 23.715 254.036 23.7145C254.022 23.7136 254.009 23.7133 253.998 23.7132C253.975 23.713 253.947 23.7137 253.915 23.7148C253.851 23.7169 253.762 23.7214 253.657 23.7274C253.447 23.7395 253.164 23.7584 252.86 23.78C252.556 23.8017 252.278 23.8227 252.075 23.8387C251.974 23.8467 251.891 23.8535 251.833 23.8584L251.763 23.8646L251.741 23.8668L251.73 23.8682L251.719 23.8698C251.717 23.8702 251.713 23.8709 251.708 23.872C251.705 23.8727 251.694 23.8751 251.68 23.8798C251.581 23.9138 251.542 23.9941 251.536 24.0069L251.536 24.0077C251.524 24.0315 251.519 24.0518 251.517 24.0594C251.513 24.0766 251.512 24.0906 251.512 24.0944L251.512 24.0945C251.511 24.1048 251.511 24.1133 251.511 24.1158C251.511 24.1227 251.511 24.1293 251.511 24.1334C251.511 24.1395 251.511 24.1468 251.512 24.1548C251.512 24.1588 251.512 24.1629 251.512 24.1673C251.514 24.1938 251.516 24.2318 251.519 24.2796C251.524 24.3753 251.533 24.5131 251.545 24.6822C251.567 25.0207 251.599 25.4864 251.636 25.9967L251.636 25.9981C251.675 26.5087 251.709 26.9773 251.731 27.3207C251.74 27.4654 251.747 27.5872 251.752 27.6803C251.663 27.691 251.539 27.7035 251.368 27.7185C250.913 27.7587 250.151 27.8154 248.915 27.9041C248.515 27.9316 248.145 27.96 247.87 27.9831C247.732 27.9946 247.618 28.0049 247.535 28.013C247.494 28.0171 247.459 28.0208 247.433 28.024C247.42 28.0255 247.407 28.0272 247.396 28.0289L247.396 28.029C247.391 28.0297 247.365 28.0335 247.339 28.0422C247.216 28.0847 247.177 28.1953 247.169 28.2171L247.169 28.2172C247.156 28.256 247.15 28.2955 247.147 28.3253C247.14 28.388 247.139 28.4698 247.141 28.5665C247.145 28.7633 247.164 29.0633 247.196 29.4893L247.196 29.4906C247.222 29.8142 247.246 30.1121 247.263 30.3325C247.271 30.4427 247.278 30.5334 247.282 30.5982C247.285 30.6402 247.287 30.667 247.288 30.6814C247.289 30.6901 247.289 30.6943 247.289 30.6947C247.29 30.7738 247.327 30.8326 247.358 30.8659C247.388 30.8979 247.42 30.9146 247.435 30.9219C247.466 30.9369 247.495 30.943 247.506 30.9453C247.535 30.9509 247.564 30.9534 247.588 30.9548C247.639 30.9578 247.706 30.9583 247.783 30.9568C247.937 30.954 248.147 30.9431 248.375 30.9241C248.831 30.8861 249.297 30.8578 249.425 30.8642L249.432 30.8645L249.432 30.8644C249.859 30.8738 250.223 31.1303 250.337 31.4446C250.338 31.4482 250.339 31.4539 250.34 31.4619C250.343 31.4848 250.347 31.5176 250.352 31.561C250.362 31.6475 250.374 31.7689 250.388 31.9213C250.416 32.2256 250.452 32.6486 250.492 33.1511C250.574 34.1558 250.674 35.4758 250.77 36.7953C250.866 38.1149 250.958 39.4334 251.023 40.4352C251.055 40.9362 251.081 41.3573 251.097 41.6595C251.105 41.8108 251.11 41.931 251.113 42.016C251.115 42.0588 251.115 42.0909 251.115 42.1128C251.115 42.116 251.115 42.1187 251.115 42.1211C251.096 42.1864 251.047 42.2828 251.008 42.3293L251.004 42.3334L251.004 42.3334C250.955 42.394 250.889 42.4462 250.708 42.4909C250.514 42.5386 250.217 42.5705 249.728 42.5996L249.727 42.5996L248.885 42.6506L248.671 42.6636L248.651 42.8772L248.526 44.2273L248.526 44.2275C248.492 44.597 248.462 44.9395 248.441 45.1935C248.431 45.3204 248.422 45.4254 248.416 45.5007C248.411 45.5659 248.406 45.6276 248.407 45.6491L248.407 45.6716L248.411 45.6938C248.434 45.8146 248.529 45.8637 248.544 45.8715L248.544 45.8717C248.573 45.8864 248.598 45.8928 248.609 45.8954C248.634 45.9013 248.658 45.9037 248.673 45.905C248.708 45.9079 248.751 45.9089 248.799 45.9089C248.896 45.909 249.034 45.9051 249.204 45.8978C249.546 45.883 250.029 45.8539 250.604 45.8124C251.951 45.7154 252.623 45.6672 252.962 45.6502C253.008 45.6478 253.047 45.6462 253.08 45.645C253.088 45.7408 253.098 45.8687 253.11 46.0216C253.133 46.32 253.163 46.712 253.195 47.1438L253.21 47.3404C253.21 47.3407 253.21 47.3409 253.21 47.3412C253.246 47.8498 253.283 48.3159 253.314 48.6572C253.329 48.8277 253.342 48.9683 253.354 49.068C253.359 49.1174 253.364 49.1593 253.369 49.1906C253.372 49.2056 253.374 49.2227 253.378 49.2385C253.38 49.2456 253.383 49.2591 253.388 49.2743C253.391 49.2816 253.396 49.2957 253.405 49.3122L253.405 49.3127C253.41 49.3227 253.434 49.3672 253.486 49.402L253.492 49.4062L253.498 49.4099C253.53 49.4291 253.559 49.4368 253.57 49.4394C253.584 49.443 253.596 49.4449 253.605 49.4461C253.622 49.4484 253.638 49.4494 253.651 49.45C253.679 49.4512 253.712 49.4512 253.747 49.4506C253.818 49.4493 253.912 49.4451 254.02 49.439C254.238 49.4268 254.52 49.4062 254.8 49.3828C255.08 49.3594 255.359 49.3331 255.571 49.3092C255.677 49.2974 255.768 49.2858 255.836 49.2752C255.869 49.27 255.901 49.2643 255.928 49.2578C255.94 49.2548 255.96 49.2499 255.98 49.2421C255.989 49.2384 256.008 49.2308 256.028 49.2181L256.028 49.2178C256.041 49.2101 256.097 49.1747 256.129 49.1001C256.139 49.0754 256.143 49.0551 256.144 49.0493L256.144 49.049C256.146 49.0381 256.147 49.0291 256.148 49.0237C256.149 49.0129 256.149 49.003 256.149 48.9966C256.15 48.983 256.149 48.9676 256.149 48.9526C256.149 48.9216 256.147 48.8797 256.145 48.8295C256.14 48.7285 256.132 48.5865 256.121 48.4145C256.099 48.0701 256.066 47.6016 256.027 47.0916C255.989 46.5851 255.956 46.1232 255.932 45.7867C255.924 45.6665 255.916 45.5623 255.911 45.478C255.958 45.4754 256.011 45.473 256.067 45.471L256.073 45.4708L256.073 45.4707L256.096 45.4693C256.322 45.4556 256.703 45.4325 256.957 45.4117C257.06 45.4034 257.156 45.3968 257.236 45.3926C257.246 45.481 257.258 45.595 257.27 45.7302C257.302 46.0712 257.341 46.5398 257.379 47.0531C257.417 47.5676 257.452 48.0358 257.479 48.3758C257.492 48.5458 257.503 48.6842 257.511 48.7806C257.515 48.8286 257.519 48.8671 257.522 48.8941C257.523 48.9072 257.524 48.9195 257.525 48.9293C257.526 48.9337 257.527 48.941 257.528 48.9488C257.529 48.9519 257.53 48.961 257.533 48.9722C257.535 48.9768 257.538 48.9901 257.545 49.0062C257.548 49.014 257.555 49.0297 257.568 49.0478C257.576 49.0607 257.606 49.1043 257.665 49.1332L257.675 49.138L257.675 49.1378C257.721 49.1579 257.767 49.1599 257.768 49.16C257.783 49.1612 257.798 49.1615 257.811 49.1616C257.837 49.1617 257.868 49.1608 257.903 49.1593C257.974 49.1563 258.069 49.1503 258.178 49.1424C258.396 49.1265 258.681 49.1022 258.962 49.0759C259.244 49.0496 259.525 49.0212 259.737 48.9971C259.843 48.9851 259.934 48.9739 260 48.9644C260.032 48.9598 260.062 48.955 260.086 48.9502C260.097 48.948 260.113 48.9445 260.129 48.9396C260.137 48.9374 260.152 48.9325 260.17 48.924C260.179 48.9198 260.194 48.9116 260.212 48.8985C260.227 48.8879 260.263 48.8588 260.289 48.8064L260.295 48.794L260.3 48.781C260.308 48.7576 260.311 48.738 260.312 48.7321C260.313 48.7234 260.314 48.716 260.314 48.7114C260.315 48.7019 260.315 48.6932 260.316 48.687C260.316 48.674 260.316 48.659 260.315 48.6438C260.315 48.6128 260.313 48.5708 260.311 48.5202C260.306 48.4186 260.299 48.2761 260.288 48.1035C260.267 47.7581 260.235 47.289 260.197 46.7787C260.159 46.2724 260.126 45.8093 260.104 45.4716C260.094 45.334 260.087 45.2175 260.081 45.1275C260.082 45.1274 260.082 45.1273 260.083 45.1273C260.209 45.1028 260.385 45.0715 260.579 45.0387C261.687 44.8553 262.247 44.7085 263.151 44.3686L263.151 44.3685C264.305 43.9325 264.945 43.5214 265.573 42.7865L265.573 42.7859C266.115 42.1473 266.46 41.2502 266.596 40.3029C266.732 39.3535 266.662 38.3317 266.353 37.4311C266.239 37.0981 266.135 36.8486 265.992 36.6184C265.849 36.3878 265.675 36.1875 265.432 35.9447L265.432 35.9445C264.923 35.4359 264.222 35.0807 263.345 34.862C263.82 34.4722 264.178 34.0259 264.415 33.5145C264.697 32.9075 264.801 32.2239 264.743 31.4602C264.743 31.4601 264.743 31.4601 264.743 31.46L264.493 31.4791C264.451 30.9155 264.224 30.0845 263.993 29.6678L254.15 23.747ZM254.15 23.747L254.161 23.7544C254.206 23.7828 254.23 23.8179 254.239 23.8311C254.249 23.8478 254.256 23.8625 254.26 23.871C254.267 23.8881 254.272 23.9034 254.274 23.9117C254.279 23.9296 254.282 23.9484 254.285 23.9639C254.291 23.9966 254.297 24.0394 254.304 24.0887C254.316 24.1884 254.332 24.3284 254.348 24.4974C254.381 24.8361 254.42 25.2986 254.457 25.8049C254.494 26.3091 254.53 26.7672 254.559 27.0996C254.568 27.2165 254.577 27.3174 254.585 27.399C254.602 27.3976 254.62 27.396 254.639 27.3944C254.809 27.3796 255.034 27.359 255.258 27.3375C255.482 27.316 255.705 27.2938 255.872 27.2761C255.887 27.2745 255.901 27.2729 255.915 27.2714C255.91 27.1879 255.902 27.0842 255.894 26.964C255.878 26.7468 255.859 26.4764 255.838 26.1752C255.826 26.016 255.814 25.8481 255.802 25.675C255.766 25.1721 255.734 24.7138 255.711 24.3804C255.7 24.2137 255.691 24.078 255.685 23.9834C255.683 23.962 255.682 23.9426 255.681 23.9253C255.68 23.9045 255.679 23.8868 255.678 23.8725L255.676 23.84L255.676 23.8256L255.676 23.8236C255.676 23.8209 255.676 23.8167 255.676 23.8119C255.676 23.8091 255.677 23.8023 255.677 23.7937C255.678 23.7895 255.679 23.7814 255.681 23.7714C255.682 23.7657 255.687 23.7397 255.702 23.7096L255.926 23.8194L255.702 23.7096C255.736 23.6383 255.794 23.6065 255.804 23.601L255.805 23.6005C255.823 23.5902 255.839 23.5845 255.846 23.582C255.862 23.5767 255.875 23.5737 255.881 23.5725C255.894 23.5696 255.907 23.5675 255.917 23.5661C255.939 23.563 255.967 23.5597 255.999 23.5563C256.063 23.5495 256.153 23.5414 256.259 23.5324C256.47 23.5146 256.751 23.4931 257.032 23.4731C257.313 23.453 257.596 23.4343 257.811 23.4216C257.919 23.4153 258.011 23.4105 258.078 23.4078C258.112 23.4065 258.141 23.4056 258.164 23.4055C258.175 23.4054 258.187 23.4054 258.199 23.4059C258.205 23.4062 258.213 23.4067 258.224 23.4079L258.224 23.4079C258.229 23.4084 258.259 23.4117 258.293 23.4255L258.301 23.4287L258.308 23.4323C258.365 23.4603 258.395 23.502 258.405 23.5159C258.418 23.5343 258.426 23.5507 258.429 23.5596C258.437 23.5777 258.442 23.5937 258.444 23.6017C258.449 23.6196 258.453 23.6382 258.456 23.6532C258.461 23.6849 258.467 23.7266 258.473 23.7745C258.486 23.8715 258.501 24.0081 258.517 24.1733C258.549 24.5043 258.587 24.9574 258.624 25.4542L258.624 25.4545C258.659 25.9473 258.694 26.4052 258.72 26.7456C258.733 26.9158 258.744 27.0565 258.753 27.1574L258.755 27.1856C258.825 27.1935 258.93 27.2007 259.086 27.2082C261.652 27.321 263.398 28.0658 264.212 29.5471L254.15 23.747ZM249.04 17.4258L249.039 17.4263C245.772 18.7781 242.929 20.9301 240.788 23.6708C238.226 26.9508 236.721 30.972 236.536 35.0316L236.536 35.0317C236.376 38.5263 237.071 41.9218 238.57 44.9628L238.57 44.9631C239.317 46.4822 240.193 47.8032 241.321 49.1316C242.302 50.2835 243.204 51.1383 244.474 52.1065L244.474 52.1066C248.058 54.8458 252.395 56.2665 256.963 56.2018L256.963 56.2018C260.751 56.1498 264.538 54.9848 267.69 52.9L267.691 52.8999C274.481 48.4141 277.91 40.3631 276.427 32.4047L276.427 32.4042C276.216 31.2574 276.095 30.8071 275.643 29.5055L275.643 29.5047C275.316 28.5507 275.119 28.0475 274.905 27.6022L274.904 27.6016C273.811 25.3133 272.55 23.5253 270.816 21.8012L270.815 21.801C265.717 16.7203 258.302 14.7663 251.318 16.6589C250.713 16.8234 249.538 17.2171 249.04 17.4258ZM251.115 42.136C251.115 42.1361 251.115 42.1353 251.115 42.1335C251.115 42.135 251.115 42.1358 251.115 42.136ZM253.227 45.6446C253.227 45.6446 253.227 45.6446 253.227 45.6446L253.227 45.6446Z" fill="url(#paint13_linear_1028_1260)" fill-opacity="0.3" stroke="#AA1A17" stroke-width="0.5"/>
  <path d="M255.169 34.7331C255.194 34.7338 255.222 34.7341 255.253 34.734C255.44 34.7334 255.704 34.7178 256.004 34.6905C256.603 34.6359 257.314 34.5371 257.776 34.4304C258.591 34.2377 259.153 33.9472 259.495 33.582C259.829 33.2257 259.974 32.7763 259.917 32.2071L259.917 32.2069C259.859 31.631 259.577 31.2091 259.056 30.9237C258.52 30.63 257.721 30.4767 256.638 30.4948C256.191 30.5044 255.691 30.5358 255.304 30.5742C255.126 30.5919 254.976 30.6107 254.867 30.629C254.875 30.7455 254.887 30.9098 254.902 31.1099C254.931 31.5145 254.972 32.0652 255.017 32.6643C255.063 33.2639 255.103 33.8177 255.133 34.2262L255.168 34.7178L255.169 34.7331Z" fill="url(#paint14_linear_1028_1260)" fill-opacity="0.3" stroke="#AA1A17" stroke-width="0.5"/>
  <path d="M255.689 41.6446C255.709 41.8636 255.726 42.042 255.739 42.1683C255.747 42.168 255.755 42.1677 255.764 42.1674C255.903 42.1618 256.092 42.1508 256.299 42.1366C256.715 42.1082 257.199 42.0672 257.506 42.031C258.418 41.9196 258.94 41.8102 259.6 41.5887L259.6 41.5885C260.312 41.3513 260.792 41.0753 261.096 40.7485C261.393 40.4297 261.538 40.0445 261.545 39.546L261.545 39.546L261.545 39.5444C261.548 39.3826 261.505 39.1533 261.429 38.9259C261.352 38.6962 261.253 38.5049 261.167 38.4056L261.166 38.4043C260.614 37.7586 259.587 37.4114 257.861 37.4122C257.535 37.4129 256.852 37.4514 256.247 37.4958C255.945 37.518 255.666 37.5413 255.464 37.5616C255.433 37.5648 255.404 37.5678 255.377 37.5708C255.387 37.6987 255.4 37.876 255.416 38.0912C255.45 38.5487 255.496 39.1781 255.546 39.8702C255.598 40.5587 255.649 41.1875 255.689 41.6446ZM255.361 37.354C255.36 37.3435 255.359 37.3326 255.357 37.3215C255.357 37.3215 255.357 37.3215 255.357 37.3215C255.357 37.3221 255.357 37.3225 255.357 37.3229L255.358 37.3325L255.359 37.3412L255.361 37.354ZM255.19 37.596C255.188 37.5963 255.189 37.5963 255.19 37.5958L255.19 37.596ZM255.762 42.349L255.762 42.349L255.762 42.349Z" fill="url(#paint15_linear_1028_1260)" fill-opacity="0.3" stroke="#AA1A17" stroke-width="0.5"/>
  <path d="M37.1525 365.542L37.2975 365.504L37.2592 365.359L35.7509 359.651L35.7126 359.506L35.5676 359.544L14.1437 365.205L7.9045 341.592L7.86618 341.447L7.72115 341.486L1.32203 343.176L1.17701 343.215L1.21533 343.36L9.00116 372.825L9.03948 372.971L9.1845 372.932L37.1525 365.542Z" fill="url(#paint16_linear_1028_1260)" fill-opacity="0.3" stroke="#AA1A17" stroke-width="0.3"/>
  <path d="M29.607 343.308C32.8387 342.454 34.7667 339.141 33.9126 335.908C33.0585 332.676 29.7455 330.748 26.5139 331.602C23.2809 332.456 21.3528 335.769 22.207 339.001C23.0611 342.234 26.3741 344.162 29.607 343.308Z" fill="url(#paint17_linear_1028_1260)" fill-opacity="0.3" stroke="#AA1A17" stroke-width="0.3"/>
  <defs>
    <linearGradient id="paint0_linear_1028_1260" x1="153.631" y1="325.612" x2="174.199" y2="353.138" gradientUnits="userSpaceOnUse">
      <stop stop-color="#AA1A17"/>
      <stop offset="1" stop-color="#AA1A17" stop-opacity="0"/>
    </linearGradient>
    <linearGradient id="paint1_linear_1028_1260" x1="87.9724" y1="50.9513" x2="108.54" y2="78.4766" gradientUnits="userSpaceOnUse">
      <stop stop-color="#AA1A17"/>
      <stop offset="1" stop-color="#AA1A17" stop-opacity="0"/>
    </linearGradient>
    <linearGradient id="paint2_linear_1028_1260" x1="266.014" y1="236.466" x2="285.413" y2="263.784" gradientUnits="userSpaceOnUse">
      <stop stop-color="#AA1A17"/>
      <stop offset="1" stop-color="#AA1A17" stop-opacity="0"/>
    </linearGradient>
    <linearGradient id="paint3_linear_1028_1260" x1="276.688" y1="254.204" x2="296.043" y2="281.46" gradientUnits="userSpaceOnUse">
      <stop stop-color="#AA1A17"/>
      <stop offset="1" stop-color="#AA1A17" stop-opacity="0"/>
    </linearGradient>
    <linearGradient id="paint4_linear_1028_1260" x1="51.9934" y1="232.458" x2="71.3927" y2="259.776" gradientUnits="userSpaceOnUse">
      <stop stop-color="#AA1A17"/>
      <stop offset="1" stop-color="#AA1A17" stop-opacity="0"/>
    </linearGradient>
    <linearGradient id="paint5_linear_1028_1260" x1="62.6676" y1="250.196" x2="82.0227" y2="277.452" gradientUnits="userSpaceOnUse">
      <stop stop-color="#AA1A17"/>
      <stop offset="1" stop-color="#AA1A17" stop-opacity="0"/>
    </linearGradient>
    <linearGradient id="paint6_linear_1028_1260" x1="375.263" y1="334.877" x2="372.527" y2="367.498" gradientUnits="userSpaceOnUse">
      <stop stop-color="#AA1A17"/>
      <stop offset="1" stop-color="#AA1A17" stop-opacity="0"/>
    </linearGradient>
    <linearGradient id="paint7_linear_1028_1260" x1="379.673" y1="291.199" x2="375.258" y2="343.836" gradientUnits="userSpaceOnUse">
      <stop stop-color="#AA1A17"/>
      <stop offset="1" stop-color="#AA1A17" stop-opacity="0"/>
    </linearGradient>
    <linearGradient id="paint8_linear_1028_1260" x1="346.805" y1="145.439" x2="343.36" y2="169.823" gradientUnits="userSpaceOnUse">
      <stop stop-color="#AA1A17"/>
      <stop offset="1" stop-color="#AA1A17" stop-opacity="0"/>
    </linearGradient>
    <linearGradient id="paint9_linear_1028_1260" x1="351.978" y1="112.821" x2="346.419" y2="152.168" gradientUnits="userSpaceOnUse">
      <stop stop-color="#AA1A17"/>
      <stop offset="1" stop-color="#AA1A17" stop-opacity="0"/>
    </linearGradient>
    <linearGradient id="paint10_linear_1028_1260" x1="113.277" y1="454.166" x2="126.959" y2="474.641" gradientUnits="userSpaceOnUse">
      <stop stop-color="#AA1A17"/>
      <stop offset="1" stop-color="#AA1A17" stop-opacity="0"/>
    </linearGradient>
    <linearGradient id="paint11_linear_1028_1260" x1="95.3956" y1="426.4" x2="117.474" y2="459.439" gradientUnits="userSpaceOnUse">
      <stop stop-color="#AA1A17"/>
      <stop offset="1" stop-color="#AA1A17" stop-opacity="0"/>
    </linearGradient>
    <linearGradient id="paint12_linear_1028_1260" x1="265.732" y1="62.5682" x2="247.564" y2="9.62383" gradientUnits="userSpaceOnUse">
      <stop stop-color="#AA1A17"/>
      <stop offset="1" stop-color="#AA1A17" stop-opacity="0"/>
    </linearGradient>
    <linearGradient id="paint13_linear_1028_1260" x1="263.241" y1="55.3565" x2="250.012" y2="16.8043" gradientUnits="userSpaceOnUse">
      <stop stop-color="#AA1A17"/>
      <stop offset="1" stop-color="#AA1A17" stop-opacity="0"/>
    </linearGradient>
    <linearGradient id="paint14_linear_1028_1260" x1="257.958" y1="34.6634" x2="256.307" y2="29.8526" gradientUnits="userSpaceOnUse">
      <stop stop-color="#AA1A17"/>
      <stop offset="1" stop-color="#AA1A17" stop-opacity="0"/>
    </linearGradient>
    <linearGradient id="paint15_linear_1028_1260" x1="259.075" y1="42.0334" x2="257.222" y2="36.6346" gradientUnits="userSpaceOnUse">
      <stop stop-color="#AA1A17"/>
      <stop offset="1" stop-color="#AA1A17" stop-opacity="0"/>
    </linearGradient>
    <linearGradient id="paint16_linear_1028_1260" x1="8.62793" y1="372.979" x2="27.1279" y2="341.979" gradientUnits="userSpaceOnUse">
      <stop stop-color="#AA1A17"/>
      <stop offset="1" stop-color="#AA1A17" stop-opacity="0"/>
    </linearGradient>
    <linearGradient id="paint17_linear_1028_1260" x1="26.5515" y1="331.747" x2="29.5681" y2="343.163" gradientUnits="userSpaceOnUse">
      <stop stop-color="#AA1A17"/>
      <stop offset="1" stop-color="#AA1A17" stop-opacity="0"/>
    </linearGradient>
  </defs>
</svg>
