<svg width="24" height="24" viewBox="0 0 24 24" fill="none" xmlns="http://www.w3.org/2000/svg">
  <path d="M12 1.99998C6.486 1.99998 2 6.48598 2 12C2 17.514 6.486 22 12 22C17.514 22 22 17.514 22 12C22 6.48598 17.514 1.99998 12 1.99998ZM12 20C7.589 20 4 16.411 4 12C4 7.58898 7.589 3.99998 12 3.99998C16.411 3.99998 20 7.58898 20 12C20 16.411 16.411 20 12 20Z" fill="#AA1A17"/>
  <path d="M14.8289 14.828C14.6439 15.012 14.4449 15.177 14.2369 15.317C14.0199 15.463 13.7919 15.587 13.5569 15.686C13.3129 15.789 13.0609 15.867 12.8079 15.919C12.2769 16.027 11.7209 16.027 11.1919 15.919C10.9379 15.867 10.6859 15.789 10.4419 15.686C10.2079 15.587 9.97893 15.463 9.76293 15.317C9.55393 15.176 9.35493 15.012 9.16993 14.828C8.98893 14.647 8.82393 14.448 8.68193 14.236L7.02393 15.355C7.23893 15.673 7.48593 15.972 7.75793 16.244C8.03093 16.517 8.32993 16.764 8.64493 16.975C8.96793 17.193 9.31093 17.379 9.66493 17.528C10.0299 17.682 10.4089 17.8 10.7929 17.878C11.1889 17.959 11.5959 18 11.9999 18C12.4039 18 12.8109 17.959 13.2079 17.878C13.5909 17.8 13.9699 17.682 14.3349 17.528C14.6889 17.379 15.0309 17.193 15.3559 16.975C15.6689 16.763 15.9679 16.517 16.2419 16.244C16.5139 15.973 16.7619 15.673 16.9759 15.355L15.3179 14.236C15.1749 14.448 15.0099 14.647 14.8289 14.828Z" fill="#AA1A17"/>
  <path d="M8.5 12C9.32843 12 10 11.3284 10 10.5C10 9.67157 9.32843 9 8.5 9C7.67157 9 7 9.67157 7 10.5C7 11.3284 7.67157 12 8.5 12Z" fill="#AA1A17"/>
  <path d="M15.493 11.986C16.3176 11.986 16.986 11.3176 16.986 10.493C16.986 9.66844 16.3176 9 15.493 9C14.6684 9 14 9.66844 14 10.493C14 11.3176 14.6684 11.986 15.493 11.986Z" fill="#AA1A17"/>
</svg>
