<svg width="24" height="24" viewBox="0 0 24 24" fill="none" xmlns="http://www.w3.org/2000/svg">
  <path d="M5 22H19C20.103 22 21 21.103 21 20V8.99997C21 8.44697 20.553 7.99997 20 7.99997H17V6.99997C17 4.24297 14.757 1.99997 12 1.99997C9.243 1.99997 7 4.24297 7 6.99997V7.99997H4C3.447 7.99997 3 8.44697 3 8.99997V20C3 21.103 3.897 22 5 22ZM9 6.99997C9 5.34597 10.346 3.99997 12 3.99997C13.654 3.99997 15 5.34597 15 6.99997V7.99997H9V6.99997ZM5 9.99997H7V12H9V9.99997H15V12H17V9.99997H19L19.002 20H5V9.99997Z" fill="#AA1A17"/>
</svg>
