<svg width="24" height="24" viewBox="0 0 24 24" fill="none" xmlns="http://www.w3.org/2000/svg">
  <path d="M16 1.99998H8C4.691 1.99998 2 4.69098 2 7.99998V21C2 21.553 2.448 22 3 22H16C19.309 22 22 19.309 22 16V7.99998C22 4.69098 19.309 1.99998 16 1.99998ZM20 16C20 18.206 18.206 20 16 20H4V7.99998C4 5.79398 5.794 3.99998 8 3.99998H16C18.206 3.99998 20 5.79398 20 7.99998V16Z" fill="#AA1A17"/>
  <path d="M11 13.586L8.70697 11.293L7.29297 12.707L11 16.414L17.207 10.207L15.793 8.79302L11 13.586Z" fill="#AA1A17"/>
</svg>
