<svg width="42" height="42" viewBox="0 0 42 42" fill="none" xmlns="http://www.w3.org/2000/svg">
  <path d="M9.48849 21L4.75021 25.7369L0 21L4.73828 16.2631L9.48849 21ZM21.006 9.4858L29.1338 17.6114L33.8721 12.8744L21.006 0L8.12788 12.8744L12.8662 17.6114L21.006 9.4858ZM37.2617 16.2631L32.5234 21L37.2617 25.7369L42 21L37.2617 16.2631ZM21.006 32.5142L12.8781 24.3886L8.13981 29.1256L21.006 42L33.8721 29.1256L29.1338 24.3886L21.006 32.5142ZM21.006 25.7369L25.7442 21L21.006 16.2631L16.2558 21L21.006 25.7369Z" fill="url(#paint0_linear_35_1220)"/>
  <defs>
    <linearGradient id="paint0_linear_35_1220" x1="21" y1="0" x2="21" y2="42" gradientUnits="userSpaceOnUse">
      <stop stop-color="#F3BA2F"/>
      <stop offset="1" stop-color="#F3BA2F"/>
    </linearGradient>
  </defs>
</svg>
