<svg width="15" height="15" viewBox="0 0 15 15" fill="none" xmlns="http://www.w3.org/2000/svg">
  <path d="M10.75 8.41V10.36C10.75 12.96 9.71 14 7.11 14H4.64C2.04 14 1 12.96 1 10.36V7.89C1 5.29 2.04 4.25 4.64 4.25H6.59" stroke="white" stroke-linecap="round" stroke-linejoin="round"/>
  <path d="M10.7496 8.41H8.66961C7.10961 8.41 6.58961 7.89 6.58961 6.33V4.25L10.7496 8.41Z" stroke="white" stroke-linecap="round" stroke-linejoin="round"/>
  <path d="M7.23973 1H9.83973" stroke="white" stroke-linecap="round" stroke-linejoin="round"/>
  <path d="M4.24995 2.95C4.24995 1.871 5.12095 1 6.19995 1H7.90295" stroke="white" stroke-linecap="round" stroke-linejoin="round"/>
  <path d="M13.9995 4.90002V8.92352C13.9995 9.93102 13.1805 10.75 12.173 10.75" stroke="white" stroke-linecap="round" stroke-linejoin="round"/>
  <path d="M13.9997 4.9H12.0497C10.5872 4.9 10.0997 4.4125 10.0997 2.95V1L13.9997 4.9Z" stroke="white" stroke-linecap="round" stroke-linejoin="round"/>
</svg>
