<svg width="45" height="45" viewBox="0 0 45 45" fill="none" xmlns="http://www.w3.org/2000/svg">
  <path d="M22.1282 0C34.3597 0 44.2739 9.90352 44.2739 22.1219C44.2739 34.3403 34.3597 44.2351 22.1369 44.2351C9.90544 44.2351 5.73719e-06 34.3316 5.73719e-06 22.1219C-0.00870616 9.90352 9.90543 0 22.1282 0Z" fill="#8247E5"/>
  <mask id="mask0_35_1207" style="mask-type:luminance" maskUnits="userSpaceOnUse" x="7" y="9" width="30" height="26">
    <path d="M36.4855 9.56409H7.46619V34.9669H36.4855V9.56409Z" fill="white"/>
  </mask>
  <g mask="url(#mask0_35_1207)">
    <path d="M29.3854 17.3006C28.854 16.996 28.1745 16.996 27.5734 17.3006L23.3394 19.8069L20.4645 21.3995L16.3089 23.8971C15.7774 24.2017 15.0979 24.2017 14.4968 23.8971L11.2473 21.9217C10.7158 21.6171 10.3412 21.0079 10.3412 20.3291V16.5348C10.3412 15.9256 10.6461 15.3251 11.2473 14.9422L14.4968 13.045C15.0282 12.7405 15.7078 12.7405 16.3089 13.045L19.5584 15.0205C20.0898 15.3251 20.4645 15.9343 20.4645 16.6131V19.1194L23.3394 17.4485V14.8726C23.3394 14.2634 23.0345 13.6629 22.4333 13.28L16.3873 9.71196C15.8559 9.40737 15.1763 9.40737 14.5752 9.71196L8.38104 13.3583C7.77992 13.6629 7.47501 14.2721 7.47501 14.8726V22C7.47501 22.6092 7.77992 23.2096 8.38104 23.5926L14.5055 27.1606C15.0369 27.4652 15.7165 27.4652 16.3176 27.1606L20.4732 24.7326L23.3481 23.0617L27.5037 20.6337C28.0351 20.3291 28.7146 20.3291 29.3157 20.6337L32.5653 22.5308C33.0967 22.8354 33.4713 23.4446 33.4713 24.1234V27.9177C33.4713 28.5269 33.1664 29.1274 32.5653 29.5103L29.3941 31.4074C28.8627 31.712 28.1832 31.712 27.5821 31.4074L24.3238 29.5103C23.7924 29.2057 23.4178 28.5965 23.4178 27.9177V25.4897L20.5429 27.1606V29.6669C20.5429 30.2761 20.8478 30.8766 21.4489 31.2595L27.5734 34.8276C28.1048 35.1321 28.7843 35.1321 29.3854 34.8276L35.5099 31.2595C36.0413 30.9549 36.4159 30.3457 36.4159 29.6669V22.4612C36.4159 21.852 36.111 21.2516 35.5099 20.8686L29.3854 17.3006Z" fill="white"/>
  </g>
</svg>
