<svg width="39" height="34" viewBox="0 0 39 34" fill="none" xmlns="http://www.w3.org/2000/svg">
  <path d="M6.2469 25.5187C6.47891 25.2613 6.79793 25.1111 7.13628 25.1111H37.8197C38.3804 25.1111 38.6607 25.8619 38.2644 26.3017L32.2031 33.0273C31.9711 33.2847 31.6521 33.4349 31.3137 33.4349H0.630311C0.0696185 33.4349 -0.210728 32.6841 0.185624 32.2443L6.2469 25.5187Z" fill="url(#paint0_linear_35_1184)"/>
  <path d="M6.2469 0.40761C6.48858 0.150172 6.80759 0 7.13628 0H37.8197C38.3804 0 38.6607 0.750861 38.2644 1.19065L32.2031 7.91622C31.9711 8.17366 31.6521 8.32383 31.3137 8.32383H0.630311C0.0696185 8.32383 -0.210728 7.57297 0.185624 7.13318L6.2469 0.40761Z" fill="url(#paint1_linear_35_1184)"/>
  <path d="M32.2031 12.8827C31.9711 12.6253 31.6521 12.4751 31.3137 12.4751H0.630311C0.0696185 12.4751 -0.210728 13.226 0.185624 13.6657L6.2469 20.3913C6.47891 20.6488 6.79793 20.7989 7.13628 20.7989H37.8197C38.3804 20.7989 38.6607 20.0481 38.2644 19.6083L32.2031 12.8827Z" fill="url(#paint2_linear_35_1184)"/>
  <defs>
    <linearGradient id="paint0_linear_35_1184" x1="34.8885" y1="-4.01754" x2="9.97711" y2="38.9849" gradientUnits="userSpaceOnUse">
      <stop stop-color="#00FFA3"/>
      <stop offset="1" stop-color="#DC1FFF"/>
    </linearGradient>
    <linearGradient id="paint1_linear_35_1184" x1="25.6033" y1="-9.39664" x2="0.691854" y2="33.6058" gradientUnits="userSpaceOnUse">
      <stop stop-color="#00FFA3"/>
      <stop offset="1" stop-color="#DC1FFF"/>
    </linearGradient>
    <linearGradient id="paint2_linear_35_1184" x1="30.2163" y1="-6.72421" x2="5.30492" y2="36.2783" gradientUnits="userSpaceOnUse">
      <stop stop-color="#00FFA3"/>
      <stop offset="1" stop-color="#DC1FFF"/>
    </linearGradient>
  </defs>
</svg>
