<svg width="79" height="61" viewBox="0 0 79 61" fill="none" xmlns="http://www.w3.org/2000/svg">
  <path d="M66.4591 5.08629C61.3805 2.71017 55.9503 0.983296 50.2732 0C49.5759 1.26055 48.7614 2.95602 48.1998 4.30476C42.1648 3.39717 36.1853 3.39717 30.2614 4.30476C29.6999 2.95602 28.8668 1.26055 28.1634 0C22.4801 0.983296 17.0436 2.71651 11.9651 5.09888C1.72158 20.5781 -1.05526 35.6729 0.333162 50.5533C7.12718 55.6269 13.7114 58.709 20.1845 60.7258C21.7827 58.5261 23.2082 56.1879 24.4361 53.7236C22.0974 52.8349 19.8575 51.7383 17.7409 50.4651C18.3024 50.0491 18.8517 49.6142 19.3823 49.1667C32.2915 55.2047 46.3177 55.2047 59.0727 49.1667C59.6096 49.6142 60.1587 50.0491 60.7141 50.4651C58.5913 51.7445 56.3452 52.8411 54.0065 53.7299C55.2345 56.1879 56.6538 58.5325 58.2581 60.732C64.7375 58.7152 71.3278 55.6333 78.1218 50.5533C79.7509 33.3031 75.3389 18.347 66.4591 5.08629ZM26.1948 41.402C22.3196 41.402 19.1416 37.7842 19.1416 33.3787C19.1416 28.9732 22.2518 25.3492 26.1948 25.3492C30.138 25.3492 33.3159 28.9668 33.248 33.3787C33.2542 37.7842 30.138 41.402 26.1948 41.402ZM52.2602 41.402C48.385 41.402 45.207 37.7842 45.207 33.3787C45.207 28.9732 48.317 25.3492 52.2602 25.3492C56.2033 25.3492 59.3812 28.9668 59.3134 33.3787C59.3134 37.7842 56.2033 41.402 52.2602 41.402Z" fill="#727A84"/>
</svg>
