<svg width="34" height="88" viewBox="0 0 34 88" fill="none" xmlns="http://www.w3.org/2000/svg">
  <path fill-rule="evenodd" clip-rule="evenodd" d="M34 43.638L24.355 33.3503V40.8845L14.7783 48.4281L24.355 48.4351V53.9257L34 43.638Z" fill="#AA1A17"/>
  <path fill-rule="evenodd" clip-rule="evenodd" d="M0 43.6343L9.645 53.9219V46.4484L19.2217 38.8442L9.645 38.8372V33.3466L0 43.6343Z" fill="#BFC5CD"/>
  <path fill-rule="evenodd" clip-rule="evenodd" d="M31 74.4257C31 81.8816 24.956 87.9257 17.5002 87.9257C10.0443 87.9257 4 81.8816 4 74.4257C4 66.9698 10.0443 60.9257 17.5002 60.9257C24.956 60.9257 31 66.9698 31 74.4257Z" fill="#AA1A17"/>
  <path fill-rule="evenodd" clip-rule="evenodd" d="M23.8199 70.8213L23.479 69.7682C23.4097 69.5539 23.2406 69.3873 23.0257 69.3215L21.9673 68.996C21.8208 68.9513 21.8196 68.7446 21.9649 68.6975L23.0185 68.3566C23.2323 68.2874 23.399 68.1183 23.4651 67.9032L23.7902 66.845C23.8349 66.6988 24.0416 66.6973 24.0887 66.8429L24.4296 67.8961C24.4989 68.11 24.668 68.2766 24.8829 68.3428L25.9412 68.6678C26.0877 68.7129 26.0893 68.9192 25.9435 68.9663L24.89 69.3072C24.6762 69.3765 24.5095 69.546 24.4435 69.761L24.1184 70.8189C24.0736 70.9654 23.867 70.967 23.8199 70.8213Z" fill="#0D121A"/>
  <path fill-rule="evenodd" clip-rule="evenodd" d="M5.18335 74.2158C5.50516 73.5805 6.14157 73.1018 6.80281 72.7993C7.47071 72.5 8.20509 72.3162 8.92624 72.2567C10.3822 72.1241 11.8005 72.3695 13.0925 72.7936C13.7582 72.9935 14.3538 73.271 14.969 73.5515C15.268 73.6965 15.549 73.8608 15.8385 74.0196L16.638 74.4866C17.5158 75.0288 18.3669 75.509 19.1664 75.8821C19.9679 76.2519 20.6923 76.5021 21.3751 76.6298C22.0579 76.7592 22.7519 76.7576 23.6053 76.5602C24.452 76.3672 25.4046 75.951 26.4004 75.4172C27.4022 74.883 28.4296 74.2279 29.6017 73.5877C29.4841 74.9257 29.1084 76.1803 28.5216 77.3917C27.9203 78.5886 27.084 79.7562 25.8647 80.7017C24.6686 81.6549 23.026 82.3193 21.3539 82.4192C19.681 82.5331 18.0895 82.1617 16.7355 81.603C15.3763 81.0361 14.2019 80.2911 13.1609 79.4689C12.8735 79.2417 12.7191 79.1127 12.5069 78.9319L11.9141 78.4086C11.5147 78.0935 11.1278 77.7168 10.7323 77.4046C9.94363 76.7403 9.16332 76.0747 8.30782 75.4977C7.87647 75.2045 7.43156 74.9326 6.92705 74.6916C6.67642 74.5752 6.41018 74.4668 6.12438 74.3814C5.83176 74.2851 5.53434 74.2279 5.18335 74.2158Z" fill="#151C28"/>
  <path fill-rule="evenodd" clip-rule="evenodd" d="M5.18335 74.2334C5.34765 72.8673 5.98446 71.586 7.00504 70.4953C8.02039 69.4151 9.60662 68.5824 11.3668 68.472C12.2354 68.4141 13.1174 68.5109 13.928 68.7355C14.7351 68.9594 15.4914 69.2856 16.1731 69.6698C16.5137 69.8629 16.8323 70.074 17.1496 70.2871L17.9956 70.9275L19.316 71.9693C20.173 72.6518 20.9909 73.2831 21.7468 73.8044C22.51 74.3265 23.16 74.7079 23.7809 74.9314C24.3961 75.1752 25.1731 75.2376 26.2005 74.9794C26.7106 74.8618 27.2427 74.6472 27.8103 74.4145C28.3748 74.1761 28.9609 73.8919 29.6017 73.6101C29.5246 74.2969 29.385 74.981 29.12 75.6203C28.8654 76.2683 28.53 76.9023 28.0611 77.4936C27.8212 77.7814 27.5641 78.0709 27.2643 78.3379C26.9645 78.5986 26.6323 78.8461 26.2653 79.0631C25.5334 79.4874 24.6651 79.7972 23.7744 79.9076C22.8837 80.0194 21.9895 79.9635 21.1752 79.7907C20.3565 79.6228 19.6106 79.3522 18.9258 79.0396C17.561 78.4047 16.4193 77.6067 15.4099 76.762C14.903 76.3402 14.4277 75.8996 13.9776 75.4523L13.4459 74.9186C13.2856 74.7639 13.1237 74.6084 12.9634 74.466C12.3174 73.8947 11.7178 73.4582 11.0574 73.186C10.4018 72.9009 9.56273 72.7838 8.53329 72.9764C7.50793 73.1671 6.38297 73.6105 5.18335 74.2334Z" fill="#BFC5CD"/>
  <path fill-rule="evenodd" clip-rule="evenodd" d="M10.6696 81.2563C10.6696 81.6721 10.3322 82.0093 9.91635 82.0093C9.50048 82.0093 9.16357 81.6721 9.16357 81.2563C9.16357 80.8406 9.50048 80.5034 9.91635 80.5034C10.3322 80.5034 10.6696 80.8406 10.6696 81.2563Z" fill="#FAFAFA"/>
  <path fill-rule="evenodd" clip-rule="evenodd" d="M10.6696 81.2563C10.6696 81.6721 10.3322 82.0093 9.91635 82.0093C9.50048 82.0093 9.16357 81.6721 9.16357 81.2563C9.16357 80.8406 9.50048 80.5034 9.91635 80.5034C10.3322 80.5034 10.6696 80.8406 10.6696 81.2563Z" fill="#0D121A"/>
  <path d="M16.4996 6.60983e-06C15.5095 0.00529418 14.5313 0.206222 13.6179 0.590893C12.7058 0.976885 11.8769 1.53869 11.1816 2.2459C10.485 2.95311 9.93507 3.79119 9.56098 4.71255C9.18688 5.63391 8.99653 6.62004 9.00182 7.61543V10.131H15.0944V6.48653C15.0944 6.31601 15.1275 6.14549 15.1936 5.98818C15.2583 5.82955 15.3535 5.68679 15.4751 5.56517C15.5954 5.44356 15.7382 5.34838 15.8955 5.28229C16.0528 5.21619 16.2207 5.18315 16.3912 5.18315H16.6106C16.7812 5.18315 16.949 5.21619 17.1063 5.28229C17.2636 5.34838 17.4064 5.44356 17.5267 5.56517C17.647 5.68679 17.7422 5.82955 17.8083 5.98818C17.873 6.14681 17.9074 6.31601 17.9074 6.48653V16.2566C18.7072 16.2566 19.5003 16.098 20.2392 15.79C20.9782 15.482 21.6497 15.0312 22.2155 14.4628C22.7812 13.8944 23.2293 13.2189 23.536 12.476C23.8427 11.7331 24 10.936 24 10.1323V7.61675C24.004 5.60086 23.2148 3.66429 21.8043 2.23268C21.1117 1.52547 20.2868 0.964987 19.376 0.581639C18.4626 0.195646 17.4857 -0.00131528 16.4996 6.60983e-06Z" fill="#BFC5CD"/>
  <path d="M16.6092 21.2005H16.3898C16.2193 21.2005 16.0514 21.1661 15.8941 21.1014C15.7368 21.0353 15.594 20.9401 15.4737 20.8185C15.3534 20.6969 15.2583 20.5541 15.1922 20.3955C15.1274 20.2369 15.093 20.0676 15.093 19.8971V10.127C14.2933 10.127 13.5001 10.2856 12.7612 10.5936C12.0223 10.9016 11.3508 11.3524 10.785 11.9208C10.2192 12.4892 9.77109 13.1647 9.46441 13.9076C9.15773 14.6505 9.00043 15.4476 9.00043 16.2513V18.7312C8.98985 19.7279 9.17624 20.7167 9.54901 21.6394C9.92179 22.5634 10.4717 23.4028 11.1697 24.1113C11.8663 24.8199 12.6964 25.3817 13.6112 25.765C14.5259 26.1484 15.5068 26.3466 16.4982 26.3466C17.4896 26.3466 18.4705 26.1497 19.3852 25.765C20.3 25.3817 21.1301 24.8185 21.8267 24.1113C22.5234 23.4028 23.0746 22.5634 23.4474 21.6394C23.8202 20.7154 24.0065 19.7266 23.996 18.7312V16.2513H17.9034V19.8958C17.9034 20.0663 17.8703 20.2369 17.8042 20.3942C17.7395 20.5528 17.643 20.6955 17.5227 20.8172C17.4024 20.9388 17.2596 21.034 17.1023 21.1C16.9476 21.1675 16.7798 21.2005 16.6092 21.2005Z" fill="#BFC5CD"/>
</svg>
