<svg width="35" height="14" viewBox="0 0 35 14" fill="none" xmlns="http://www.w3.org/2000/svg">
  <path d="M33.8278 5.30801V3.16197H31.6925V0.549316L29.5474 1.84875V8.54479C29.5474 9.74776 29.9065 10.6947 30.6131 11.3603C31.6198 12.3053 33.0212 12.3939 33.5138 12.3939C33.6158 12.3939 33.6787 12.3899 33.6924 12.3899L33.8258 12.3801V10.3601L33.6748 10.3679C33.6669 10.3679 32.8622 10.4034 32.2872 9.85602C31.8907 9.47801 31.6905 8.911 31.6905 8.17071V5.30801H33.8278Z" fill="white"/>
  <path d="M32.9582 3.98706C33.2095 4.13275 33.5431 4.19575 33.8277 4.117V3.16211H32.1987C32.3792 3.49485 32.6344 3.79805 32.9582 3.98706Z" fill="white"/>
  <path d="M6.9251 3.26044L6.83286 3.27817H6.82894C6.39716 3.38054 6.00856 3.59712 5.67295 3.82748V3.18563H3.53564V12.4392H5.67295V7.80256C5.67295 7.09772 5.76716 6.43422 6.04781 6.02274C6.41286 5.48524 7.03894 5.31985 7.86521 5.31985H8.00849V3.17579H7.86521C7.54991 3.17536 7.23527 3.2037 6.9251 3.26044Z" fill="white"/>
  <path d="M13.3452 3.16626C12.0655 3.16626 10.9625 3.61712 10.0656 4.5031C9.16873 5.38908 8.71338 6.49951 8.71338 7.79501C8.71338 9.09051 9.16873 10.199 10.0656 11.0869C10.9625 11.9749 12.0655 12.4238 13.3452 12.4238C14.6366 12.4238 15.7435 11.9729 16.6346 11.085C17.5256 10.197 17.977 9.09051 17.977 7.79501C17.977 6.49951 17.5256 5.39105 16.6346 4.5031C15.7435 3.61516 14.6347 3.16626 13.3452 3.16626ZM15.8554 7.79698C15.8554 8.52744 15.612 9.1417 15.1312 9.62403C14.6503 10.1064 14.0498 10.3506 13.3452 10.3506C12.6406 10.3506 12.0381 10.1064 11.5592 9.62403C11.0803 9.1417 10.835 8.52744 10.835 7.79698C10.835 7.06654 11.0783 6.45226 11.5592 5.96989C12.04 5.48752 12.6406 5.24339 13.3452 5.24339C14.0498 5.24339 14.6523 5.48752 15.1312 5.96989C15.6101 6.45226 15.8535 7.06654 15.8554 7.79698Z" fill="white"/>
  <path d="M23.7973 3.17383C22.5177 3.17383 21.4147 3.62469 20.5178 4.51067C19.6208 5.39665 19.1655 6.50708 19.1655 7.80258C19.1655 9.09808 19.6208 10.2066 20.5178 11.0945C21.4147 11.9824 22.5177 12.4313 23.7973 12.4313C25.0887 12.4313 26.1957 11.9805 27.0867 11.0925C27.9777 10.2046 28.4291 9.09808 28.4291 7.80061C28.4291 6.50314 27.9777 5.39665 27.0867 4.50871C26.1957 3.62076 25.0887 3.17383 23.7973 3.17383ZM26.3075 7.80258C26.3075 8.53304 26.0642 9.1473 25.5833 9.62964C25.1025 10.112 24.5019 10.3562 23.7973 10.3562C23.0928 10.3562 22.4902 10.112 22.0113 9.62964C21.5324 9.1473 21.2871 8.53304 21.2871 7.80258C21.2871 7.07214 21.5305 6.45786 22.0113 5.97549C22.4922 5.49313 23.0928 5.24899 23.7973 5.24899C24.5019 5.24899 25.1044 5.49313 25.5833 5.97549C26.0622 6.45786 26.3075 7.07411 26.3075 7.80258Z" fill="white"/>
  <path d="M2.1373 3.18604H0V5.3301H2.1373V3.18604Z" fill="white"/>
  <path d="M2.1373 10.2993H0V12.4434H2.1373V10.2993Z" fill="white"/>
  <path d="M8.74121 7.95218C9.66761 8.44638 11.9933 9.52922 14.3328 8.86574C14.8234 8.72792 15.5849 8.47594 16.4465 7.78094C16.6467 7.61945 16.837 7.44425 18.1972 5.70379C19.4493 4.10312 19.6103 3.84126 20.1147 3.41796C21.0802 2.60877 21.7083 2.55167 22.0655 2.56939C22.3403 2.58121 22.6288 2.59892 22.9487 2.8529C23.4217 3.22699 23.7279 3.92789 23.9928 4.53233C24.0537 4.67015 24.2322 5.08951 24.511 5.61519C24.564 5.71364 24.5894 5.76285 24.6189 5.81404C24.7367 6.0129 25.0075 6.42241 25.3745 6.68033C26.1439 7.21979 26.8838 6.7709 27.027 6.68033C26.8483 6.77043 26.6527 6.82188 26.4529 6.83138C26.2531 6.84088 26.0536 6.8082 25.8671 6.73546C25.557 6.61733 25.3274 6.41848 25.2194 6.31807C24.8976 6.0129 24.7092 5.66638 24.5149 5.30018C24.2283 4.76071 24.2637 4.66424 23.9143 3.94364C23.6689 3.43568 23.5453 3.1817 23.3235 2.91394C22.9742 2.49064 22.6366 2.32525 22.5208 2.27406C22.411 2.22485 22.1754 2.13625 21.7829 2.152C21.5493 2.16184 20.9782 2.22287 20.199 2.76431C19.8045 3.03798 19.5632 3.29786 19.102 3.79205C18.5485 4.38664 18.3699 4.67409 17.7752 5.38878C17.153 6.13693 16.841 6.51102 16.4583 6.85359C16.2483 7.0426 15.371 7.80649 14.0599 8.11759C12.9157 8.38734 11.9972 8.18057 11.2259 7.99746C10.3251 7.7829 9.58122 7.44621 9.05719 7.16664C8.95121 7.42653 8.84524 7.69037 8.74121 7.95218Z" fill="#AA1A17"/>
  <path d="M10.2007 7.35156C10.8484 7.35944 12.4597 7.44016 13.9631 8.22374C14.4428 8.46559 14.8888 8.76943 15.2898 9.12748C15.4115 9.23771 15.5253 9.3499 16.3084 10.3481C17.0287 11.2676 17.119 11.4074 17.4232 11.6909C18.0081 12.2304 18.4183 12.3918 18.6557 12.4627C18.8383 12.5198 19.0305 12.5749 19.2583 12.5453C19.5958 12.5001 19.8471 12.2875 20.0629 12.1024C20.195 11.9877 20.334 11.8812 20.479 11.7834C20.5202 11.7558 20.5398 11.7421 20.5653 11.7283C20.7368 11.629 20.9275 11.5678 21.1247 11.5491C21.6703 11.5039 22.1295 11.8464 22.2179 11.9154C21.9888 11.7618 21.7263 11.6659 21.4525 11.6358C21.3003 11.6202 21.1468 11.6282 20.9971 11.6594C20.7636 11.7106 20.6164 11.807 20.4613 11.9114C20.2356 12.065 20.2513 12.1103 19.9726 12.3229C19.7764 12.4725 19.6783 12.5473 19.5134 12.6045C19.3289 12.669 19.1334 12.6959 18.9383 12.6832C18.8618 12.6792 18.7008 12.6615 18.4418 12.569C18.2868 12.5139 17.9138 12.3622 17.435 11.9724C17.1936 11.7756 17.0503 11.618 16.7775 11.3168C16.4517 10.9565 16.3515 10.801 16.0061 10.3816C15.6451 9.9445 15.4625 9.72405 15.2329 9.50156C15.1073 9.37946 14.5773 8.87739 13.7315 8.46393C12.9935 8.10172 12.3714 7.98159 11.8474 7.88513C11.3553 7.79267 10.8563 7.74322 10.3557 7.73748C10.3028 7.60948 10.2517 7.47954 10.2007 7.35156Z" fill="#AA1A17"/>
  <path d="M18.8198 12.0381C18.7012 12.0052 18.5909 11.9474 18.496 11.8688C18.4805 11.8562 18.4661 11.8423 18.4528 11.8274C18.3794 11.7571 18.3106 11.6821 18.2467 11.603C18.1447 11.477 18.025 11.3313 17.8169 11.2624C17.6756 11.2171 17.5441 11.221 17.4145 11.2269C17.2909 11.2328 17.0966 11.2526 16.8062 11.349C16.8081 11.3116 16.812 11.2742 16.814 11.2368C16.9717 11.1906 17.1333 11.159 17.2968 11.1423C17.4813 11.1265 17.5872 11.1383 17.6363 11.1462C17.7599 11.164 17.8795 11.2034 17.9896 11.2624C18.0838 11.3156 18.1329 11.3667 18.229 11.473C18.3665 11.6227 18.3468 11.6443 18.4626 11.7546C18.5411 11.8294 18.6177 11.9003 18.757 11.9594C18.8489 11.9961 18.9453 12.0206 19.0435 12.0322C19.2262 12.051 19.4108 12.0342 19.5872 11.983C19.5205 12.0106 19.1613 12.1346 18.8198 12.0381Z" fill="#AA1A17"/>
  <path d="M23.2764 4.40652C23.4217 4.70972 23.5884 5.03852 23.8514 5.25706C24.1078 5.25986 24.3624 5.30032 24.6071 5.37716C24.6862 5.32666 24.7559 5.2627 24.8132 5.18815C25.0192 4.92433 25.1291 4.57978 25.1801 4.25295C25.2253 3.95369 25.1978 3.65836 25.1526 3.36303C24.3391 3.13843 23.4825 3.12016 22.6602 3.30988C22.931 3.62883 23.0939 4.03047 23.2764 4.40652Z" fill="white"/>
  <path d="M16.9435 0.679251C16.858 0.827736 16.7977 0.989402 16.7649 1.15768C16.761 1.17934 16.757 1.201 16.7531 1.24037C16.7354 1.37031 16.7256 1.4786 16.7217 1.55538C16.7177 1.61248 16.7177 1.65186 16.7177 1.6617C16.7138 1.76802 16.6746 2.15785 16.4371 2.5595C16.3076 2.77804 16.2114 2.84891 16.0995 3.10092C16.069 3.17055 16.0434 3.24227 16.023 3.31553C15.9857 3.4435 15.9366 3.67583 15.968 3.68764C16.0171 3.70536 16.1898 3.08912 16.4705 2.70322C16.57 2.56326 16.6511 2.41107 16.7119 2.25039C16.761 2.10666 16.7707 2.00822 16.7884 1.80937C16.814 1.52782 16.7806 1.52388 16.8119 1.3014C16.8335 1.14981 16.8532 1.00608 16.9415 0.815103C16.9996 0.692358 17.0707 0.576195 17.1534 0.468585C17.2981 0.28152 17.4757 0.12269 17.6775 0C17.597 0.0393769 17.1868 0.259887 16.9435 0.679251Z" fill="#AA1A17"/>
  <path d="M24.4438 7.06246C24.2245 7.26485 23.962 7.41434 23.6764 7.49954C23.6371 7.51135 23.6019 7.51726 23.5312 7.53301C23.284 7.58575 23.0335 7.62129 22.7814 7.63935C22.3752 7.67277 21.9041 7.71019 21.4999 8.05085C21.2388 8.27131 21.0896 8.55481 20.9386 8.84822C20.8817 8.96041 20.8384 9.05688 20.811 9.12386C20.4439 9.36034 20.0358 9.52531 19.6079 9.61013C20.3105 9.04509 20.7462 8.5883 21.0229 8.25951C21.1681 8.08623 21.3742 7.86177 21.7099 7.68464C21.9414 7.56254 22.1181 7.53695 22.4714 7.48379C22.9719 7.40897 22.9993 7.48379 23.3859 7.4011C23.6509 7.344 23.9001 7.28887 24.1985 7.07624C24.3923 6.93563 24.5636 6.76635 24.7068 6.57419C25.0601 6.10757 25.1955 5.60158 25.2485 5.35547C25.2249 5.54054 25.0679 6.48362 24.4438 7.06246Z" fill="#AA1A17"/>
  <path d="M23.2825 2.733C23.1307 2.73291 22.9801 2.70694 22.837 2.65621C22.8193 2.65031 22.8016 2.64243 22.7703 2.62865C22.6594 2.58225 22.5519 2.52831 22.4484 2.4672C22.2835 2.3727 22.0912 2.26441 21.8164 2.2526C21.6319 2.24473 21.4729 2.28607 21.3199 2.32545C21.0783 2.3896 20.8456 2.48351 20.6271 2.60502C20.6172 2.56761 20.6074 2.53217 20.5996 2.49476C20.7767 2.40596 20.9613 2.33283 21.1511 2.27622C21.2852 2.23338 21.4233 2.20436 21.5632 2.1896C21.7178 2.17438 21.8737 2.18101 22.0264 2.20929C22.1579 2.23488 22.2344 2.27229 22.3856 2.34907C22.6015 2.45539 22.5858 2.48296 22.7624 2.55974C22.8822 2.61093 22.9979 2.66015 23.1844 2.67787C23.3079 2.68949 23.4322 2.68751 23.5553 2.67197C23.7777 2.64334 23.9939 2.57814 24.1952 2.47902C24.1186 2.52036 23.7241 2.73496 23.2825 2.733Z" fill="#AA1A17"/>
  <path d="M9.20312 8.7769C10.1845 9.26521 12.6809 10.3914 15.5777 10.4584C16.1842 10.4721 17.1361 10.4741 18.3019 10.224C18.5747 10.1649 18.8337 10.098 20.816 9.31246C22.6393 8.58987 22.8866 8.46391 23.5735 8.30636C24.8865 8.0091 25.6362 8.09967 26.0523 8.1823C26.3742 8.24535 26.7079 8.31422 27.0277 8.53279C27.5007 8.85568 27.7088 9.34399 27.8854 9.76532C27.9928 10.0279 28.1173 10.2831 28.2583 10.5292C28.2976 10.6001 28.3172 10.6355 28.3427 10.6729C28.5252 10.9463 28.7633 11.1778 29.0414 11.3522C29.8264 11.8365 30.798 11.7125 30.9844 11.6849C30.7273 11.7046 30.1875 11.7145 29.6066 11.4841C29.3658 11.3901 29.1402 11.2607 28.9374 11.1001C28.6254 10.8501 28.4821 10.6021 28.3329 10.3382C28.1131 9.95235 28.1758 9.90117 27.9246 9.39321C27.748 9.03486 27.6577 8.85568 27.4576 8.64695C27.2273 8.41372 26.9549 8.22668 26.6549 8.09574C26.5371 8.04455 26.28 7.94211 25.8128 7.87324C25.5361 7.83189 24.8512 7.75508 23.8149 7.92639C23.2909 8.01303 22.9514 8.12325 22.2998 8.33199C21.5187 8.582 21.2439 8.72179 20.3882 9.03682C19.4912 9.36561 19.0437 9.53103 18.5178 9.66288C18.2293 9.73576 17.0282 10.0252 15.4207 9.94842C14.0155 9.88144 12.9812 9.57034 12.1137 9.3046C11.3004 9.05557 10.5088 8.74016 9.74682 8.36147C9.56429 8.4993 9.38371 8.63712 9.20312 8.7769Z" fill="#AA1A17"/>
  <path d="M32.9678 6.02088C32.7692 6.15334 32.6001 6.32562 32.4712 6.52687C32.4555 6.55247 32.4418 6.57806 32.4143 6.62728C32.3219 6.7989 32.2425 6.97725 32.1768 7.16084C32.0669 7.45223 31.9394 7.79088 31.594 8.04286C31.3604 8.21417 31.1072 8.28705 30.8619 8.35592C30.5459 8.44452 29.9708 8.57055 28.9365 8.48588C28.3948 8.44256 28.1947 8.37958 26.7384 8.06062C26.4126 7.98971 26.1457 7.93263 25.9258 7.88538C25.8415 7.95622 25.7551 8.02516 25.6648 8.08814L25.606 8.12949C25.8866 8.17674 26.181 8.23382 26.4244 8.28107C27.1073 8.41496 27.3272 8.48195 27.9493 8.58038C28.4675 8.66112 28.7383 8.70444 29.1485 8.71624C29.961 8.74179 30.485 8.63156 30.697 8.58038C31.0522 8.49571 31.2446 8.4071 31.3329 8.36182C31.4252 8.31457 31.694 8.17478 31.9177 7.93066C32.0591 7.77712 32.116 7.65109 32.2318 7.40104C32.3928 7.04664 32.3417 7.01711 32.487 6.74541C32.5851 6.56034 32.6812 6.38511 32.9049 6.19414C33.0544 6.06921 33.2202 5.96522 33.3976 5.88503C33.8313 5.68421 34.2494 5.64483 34.4496 5.63695C34.3024 5.63498 33.5428 5.63695 32.9678 6.02088Z" fill="#AA1A17"/>
  <path d="M17.099 1.87655C16.4748 2.25063 16.1372 2.79205 16.0018 3.04998C15.9665 3.11691 15.9409 3.17992 15.886 3.30789C15.6941 3.75829 15.5353 4.22222 15.4111 4.69593C15.1991 5.46575 14.9538 6.36157 14.1727 6.89513C13.6427 7.25542 13.05 7.32827 12.475 7.39324C11.9215 7.45625 11.0286 7.49759 9.57812 7.18651C9.66053 7.39128 9.74302 7.59409 9.82543 7.79882C10.9834 7.99175 11.7528 7.97013 12.1198 7.94647C12.9578 7.89332 13.4013 7.74371 13.6055 7.66689C13.8194 7.58419 14.4376 7.3263 14.9302 6.75534C15.2423 6.39307 15.3561 6.06821 15.5857 5.41652C15.9096 4.49117 15.78 4.38485 16.0764 3.68591C16.2785 3.20945 16.4748 2.76252 16.9812 2.33923C17.148 2.19944 17.519 1.91986 18.1057 1.72298C19.1087 1.38434 20.1037 1.49656 20.5826 1.57925C20.2293 1.49656 18.4099 1.09295 17.099 1.87655Z" fill="#AA1A17"/>
  <path d="M22.1758 13.1048C22.1072 13.1069 22.0386 13.1002 21.9716 13.0852C21.893 13.0669 21.8188 13.0327 21.7538 12.9848C21.6713 12.9296 21.6773 12.9119 21.5909 12.845C21.587 12.8627 21.5811 12.8784 21.5771 12.8962C21.5821 12.8996 21.5868 12.9036 21.5909 12.9079C21.6401 12.9519 21.6926 12.9921 21.7479 13.0281C21.7636 13.0379 21.7715 13.0438 21.7813 13.0497C21.8538 13.0909 21.934 13.1171 22.0168 13.1265C22.2601 13.156 22.5035 13.0458 22.5487 13.0261C22.4298 13.0738 22.3037 13.1004 22.1758 13.1048Z" fill="#AA1A17"/>
  <path d="M23.0784 9.28713C22.912 9.2925 22.7457 9.27594 22.5838 9.23791C22.3403 9.18084 22.201 9.0883 22.0558 8.9879C21.8576 8.85205 21.8694 8.81069 21.6633 8.64331C21.6535 8.68466 21.6417 8.72602 21.6299 8.76934C21.6417 8.77917 21.6535 8.79104 21.6652 8.80086C21.7852 8.9092 21.9124 9.00922 22.046 9.10009C22.0852 9.12572 22.1029 9.13948 22.1264 9.15324C22.302 9.25303 22.4954 9.3173 22.6957 9.34224C23.2824 9.41512 23.8673 9.14931 23.9792 9.09616C23.6925 9.21266 23.3875 9.2773 23.0784 9.28713Z" fill="#AA1A17"/>
  <path d="M22.2054 7.35184C22.1543 7.4383 22.0931 7.51829 22.0229 7.59009C21.915 7.69639 21.8247 7.73774 21.7285 7.78106C21.597 7.84011 21.5793 7.82045 21.4282 7.87163C21.4459 7.89129 21.4635 7.90906 21.4812 7.92871C21.491 7.92675 21.4989 7.92282 21.5087 7.92085C21.6024 7.89341 21.6941 7.85992 21.7835 7.82045C21.809 7.80858 21.8227 7.80269 21.8364 7.79679C21.9435 7.7382 22.0381 7.65927 22.1151 7.56447C22.3389 7.28687 22.3918 6.90097 22.3997 6.82812C22.3781 6.92854 22.333 7.1392 22.2054 7.35184Z" fill="#AA1A17"/>
  <path d="M18.1206 5.505C18.5246 5.268 18.9591 5.0878 19.412 4.96947C19.7221 4.88875 20.2108 4.79425 21.7731 4.86907C23.1704 4.936 23.7769 5.06004 24.5227 4.91041C24.8874 4.83203 25.2451 4.72405 25.5924 4.58752C25.7939 4.50518 25.9904 4.41118 26.1811 4.30597C26.3421 4.21738 26.4932 4.12287 27.606 3.19555C28.6285 2.34304 28.7639 2.20325 29.1663 1.97487C29.9376 1.53581 30.4184 1.49447 30.6913 1.49644C30.9013 1.49644 31.1191 1.50038 31.3526 1.62441C31.698 1.80752 31.9022 2.16388 32.0788 2.47102C32.1851 2.66039 32.3018 2.84377 32.4282 3.02032C32.4635 3.06954 32.4812 3.09513 32.5028 3.12073C32.5852 3.22115 32.7736 3.42787 33.0425 3.55388C33.6058 3.8177 34.1926 3.56963 34.3045 3.52041C34.019 3.62157 33.7109 3.63999 33.4154 3.57356C33.2464 3.53263 33.0853 3.46412 32.9385 3.37078C32.7049 3.21917 32.5773 3.04395 32.4439 2.85887C32.2476 2.5852 32.279 2.53599 32.0435 2.16978C31.8767 1.91186 31.7943 1.78389 31.6372 1.65001C31.4671 1.50404 31.2676 1.39658 31.0523 1.33499C30.9699 1.31137 30.7953 1.27002 30.495 1.28774C30.3164 1.29758 29.8768 1.3409 29.2605 1.63623C28.9484 1.78586 28.7522 1.92368 28.3793 2.18947C27.9318 2.50842 27.7826 2.66003 27.2978 3.04198C26.7915 3.44165 26.5364 3.64051 26.2302 3.82754C26.0614 3.92992 25.3588 4.34338 24.3461 4.53043C23.8416 4.62296 23.2843 4.59342 22.1872 4.52649C20.572 4.42805 19.8869 4.2725 19.0587 4.68202C18.8757 4.77237 18.7027 4.88193 18.5426 5.00885C18.3993 5.17227 18.26 5.33765 18.1206 5.505Z" fill="#AA1A17"/>
  <path d="M29.2882 2.80382C29.0784 2.77569 28.865 2.79589 28.6641 2.86288C28.6366 2.87273 28.6131 2.88257 28.566 2.90226C28.4 2.97189 28.2393 3.05348 28.0851 3.1464C27.8359 3.29209 27.5454 3.46338 27.1725 3.42991C27.0772 3.4213 26.9835 3.40012 26.8938 3.3669C26.8801 3.41613 26.8663 3.46338 26.8486 3.51063C27.0417 3.56301 27.2429 3.57772 27.4413 3.55394C27.6259 3.53032 27.7397 3.47322 27.9674 3.361C28.2892 3.19955 28.2755 3.1464 28.5346 3.03614C28.7112 2.96133 28.88 2.89044 29.1391 2.89241C29.3092 2.89468 29.478 2.92324 29.6395 2.97707C30.034 3.10505 30.3206 3.34328 30.45 3.46534C30.3618 3.37084 29.8868 2.88651 29.2882 2.80382Z" fill="#AA1A17"/>
  <path d="M28.6804 3.20735C28.6134 3.18277 28.5434 3.1669 28.4724 3.1601C28.3888 3.15292 28.3046 3.16297 28.2251 3.18964C28.127 3.21719 28.125 3.23689 28.019 3.27626C28.021 3.25854 28.021 3.23885 28.0229 3.22113C28.0288 3.21917 28.0347 3.21523 28.0406 3.21326C28.1036 3.18541 28.1685 3.16238 28.2349 3.14435C28.2478 3.14035 28.2609 3.13706 28.2742 3.13451C28.359 3.11695 28.4465 3.11695 28.5313 3.13451C28.7805 3.18373 28.9827 3.37274 29.02 3.41014C28.9207 3.32134 28.8055 3.2525 28.6804 3.20735Z" fill="#AA1A17"/>
  <path d="M14.5269 8.26907C15.2197 8.73175 16.9919 9.83432 19.1959 10.3108C19.6571 10.4112 20.3853 10.5529 21.3058 10.5648C21.5197 10.5667 21.7277 10.5608 23.3351 10.3482C24.813 10.1513 25.0171 10.106 25.5608 10.106C26.599 10.108 27.1602 10.2792 27.4704 10.3954C27.7078 10.484 27.9552 10.5785 28.173 10.7675C28.4968 11.0471 28.5969 11.3956 28.6813 11.6949C28.7328 11.883 28.7977 12.0673 28.8756 12.2462C28.8972 12.2973 28.9089 12.3229 28.9227 12.3505C29.0338 12.5623 29.1883 12.7481 29.3761 12.8959C29.9178 13.327 30.6754 13.39 30.8206 13.4019C30.6204 13.3762 30.2082 13.3034 29.7922 13.0671C29.6222 12.9725 29.4657 12.8553 29.327 12.7187C29.1189 12.5099 29.0385 12.3269 28.9541 12.1339C28.8325 11.8504 28.8874 11.8268 28.754 11.4586C28.6617 11.1987 28.6146 11.0707 28.485 10.9054C28.281 10.6454 28.0258 10.4821 27.9375 10.427C27.8531 10.3757 27.6686 10.2714 27.3212 10.1572C27.1151 10.0883 26.6009 9.93668 25.7884 9.89533C25.3782 9.87371 25.1054 9.89336 24.5814 9.93275C23.9553 9.97804 23.7296 10.0292 23.0368 10.106C22.3126 10.1867 21.9515 10.2261 21.5334 10.2339C21.3038 10.238 20.3539 10.2478 19.1331 9.9583C18.0674 9.70633 17.3157 9.34994 16.6838 9.04678C16.0959 8.76592 15.5285 8.44348 14.9861 8.08203C14.835 8.14108 14.6819 8.20413 14.5269 8.26907Z" fill="#AA1A17"/>
  <path d="M27.6908 11.756C27.5533 11.6493 27.3958 11.5716 27.2275 11.5277C27.206 11.5217 27.1844 11.5178 27.1432 11.51C27.0013 11.4824 26.8577 11.4653 26.7133 11.4588C26.4818 11.443 26.2129 11.4253 25.9617 11.2461C25.7909 11.1241 25.6869 10.9705 25.5888 10.8228C25.4926 10.6791 25.3533 10.4448 25.2276 10.0432C25.1864 10.0766 25.1452 10.1082 25.104 10.1416C25.1801 10.3562 25.2775 10.5627 25.3945 10.7579C25.4751 10.8952 25.5713 11.0226 25.681 11.1378C25.8049 11.2632 25.9497 11.3658 26.1088 11.4411C26.2482 11.5041 26.3503 11.5178 26.5524 11.5434C26.8409 11.5809 26.8488 11.5395 27.0745 11.5809C27.2275 11.6084 27.3728 11.6379 27.5553 11.7482C27.6742 11.8217 27.7824 11.9111 27.8772 12.014C28.0501 12.202 28.1836 12.4229 28.2697 12.6637C28.2383 12.5653 28.0833 12.0632 27.6908 11.756Z" fill="#AA1A17"/>
  <path d="M28.9188 10.2462C28.8442 10.1832 28.7617 10.1302 28.6735 10.0886C28.54 10.0256 28.4439 10.0158 28.3398 10.006C28.1985 9.99214 28.1907 10.0158 28.0337 10.0138C28.0434 9.99214 28.0533 9.97052 28.0651 9.94686H28.0925C28.1875 9.94368 28.2825 9.94633 28.3771 9.95479C28.4046 9.95676 28.4183 9.95872 28.434 9.96069C28.5506 9.98148 28.6623 10.0235 28.7637 10.0847C29.0601 10.2658 29.2309 10.5926 29.2623 10.6577C29.1741 10.5003 29.0577 10.3608 28.9188 10.2462Z" fill="#AA1A17"/>
  <path d="M24.5383 9.58835C24.3588 9.69283 24.1568 9.75232 23.9495 9.76155C23.9221 9.76155 23.8985 9.76155 23.8494 9.75762C23.679 9.7496 23.5096 9.72715 23.343 9.69071C23.0742 9.63756 22.7621 9.57451 22.4285 9.74582C22.2125 9.85605 22.0536 10.0352 21.8927 10.2223C21.8318 10.2932 21.7828 10.3562 21.7513 10.3995C21.5908 10.4571 21.4242 10.496 21.2548 10.5157C21.1272 10.5313 20.9984 10.5346 20.8701 10.5255C21.4452 10.2459 21.8259 9.99584 22.0771 9.8088C22.2086 9.71037 22.3912 9.58441 22.6443 9.5194C22.821 9.47411 22.9388 9.48984 23.1782 9.5194C23.5177 9.56075 23.5177 9.6198 23.7866 9.63363C23.9691 9.64346 24.1438 9.64936 24.3813 9.55289C24.5392 9.4856 24.6862 9.39466 24.817 9.28314C25.1448 9.00947 25.343 8.66495 25.4313 8.49561C25.3705 8.6236 25.0663 9.28511 24.5383 9.58835Z" fill="#AA1A17"/>
  <path d="M22.949 2.15969C22.8802 2.13699 22.8091 2.12246 22.737 2.11637C22.6548 2.1111 22.5724 2.12387 22.4956 2.15378C22.4014 2.18528 22.4033 2.20497 22.3052 2.24828C22.3033 2.2286 22.3013 2.21087 22.2993 2.19119C22.3052 2.18921 22.3111 2.18528 22.317 2.18331C22.3757 2.15284 22.4367 2.12715 22.4996 2.10652C22.5117 2.10191 22.5242 2.09797 22.5368 2.09471C22.6206 2.07513 22.7074 2.07312 22.792 2.08881C23.0451 2.13212 23.2748 2.31916 23.318 2.3546C23.2062 2.27018 23.0816 2.20437 22.949 2.15969Z" fill="#AA1A17"/>
  <path d="M25.1387 4.53641C25.3251 4.6506 25.8001 4.91837 26.3791 4.99515C26.5617 5.02128 26.7467 5.02656 26.9306 5.0109C26.9855 5.00499 27.0405 4.99909 27.4566 4.89474C27.8393 4.79827 27.8923 4.78055 28.0336 4.76676C28.3044 4.7392 28.4516 4.77464 28.5341 4.79827C28.5968 4.81795 28.6616 4.83764 28.7225 4.88686C28.8108 4.95774 28.8402 5.05618 28.8657 5.13887C28.8814 5.19058 28.9005 5.24122 28.9226 5.29048C28.9286 5.30426 28.9325 5.31213 28.9364 5.32001C28.9668 5.37625 29.009 5.42526 29.0601 5.46373C29.2072 5.57202 29.4035 5.57005 29.4428 5.57005C29.3486 5.56713 29.2561 5.54361 29.1719 5.50114C29.1265 5.47789 29.0842 5.44877 29.0463 5.41451C29.0008 5.37006 28.9653 5.31636 28.9423 5.25701C28.9069 5.17825 28.9207 5.17038 28.8814 5.06996C28.854 4.99909 28.8402 4.96168 28.8049 4.91837C28.7628 4.86915 28.7122 4.82783 28.6557 4.79629C28.6039 4.76971 28.5493 4.74923 28.4929 4.73526C28.3611 4.70432 28.2255 4.69304 28.0905 4.70179C27.9845 4.70573 27.9119 4.71951 27.7765 4.7451C27.6136 4.77464 27.5566 4.79433 27.3761 4.83568C27.1877 4.87702 27.0954 4.89867 26.9875 4.91246C26.7784 4.93635 26.567 4.93105 26.3594 4.89671C26.0788 4.8534 25.8786 4.7707 25.7118 4.70179C25.5546 4.63774 25.4029 4.56069 25.2584 4.47144C25.2172 4.4931 25.1779 4.51476 25.1387 4.53641Z" fill="#AA1A17"/>
  <path d="M24.8331 11.701C24.7447 11.3335 24.644 10.9679 24.5308 10.6043C24.4975 10.496 24.4661 10.3858 24.4347 10.2735C24.2257 10.3233 24.0115 10.3477 23.7968 10.3464C23.0923 10.3464 22.4897 10.1023 22.0108 9.61989C21.532 9.13756 21.2866 8.5233 21.2866 7.79284C21.2866 7.7003 21.2905 7.6117 21.2984 7.52309C21.1835 7.48886 21.0668 7.46061 20.949 7.43843C20.3563 7.32424 19.7577 7.37346 19.1728 7.48766C19.167 7.58803 19.1631 7.69047 19.1631 7.79284C19.1631 9.08834 19.6184 10.1968 20.5153 11.0847C20.529 11.0985 20.5428 11.1103 20.5565 11.1241C20.8078 10.9666 21.059 10.8091 21.3357 10.6949C21.7793 10.5118 22.2836 10.4566 22.6781 10.7776C22.8233 10.8957 22.947 11.0493 22.9902 11.2363C23.0294 11.4116 23 11.5907 22.9332 11.7561C22.8567 11.9471 22.7409 12.1203 22.6075 12.2799C22.9966 12.3758 23.3961 12.4234 23.7968 12.4216C24.1887 12.423 24.5793 12.378 24.9607 12.2877C24.9234 12.0948 24.8802 11.8978 24.8331 11.701Z" fill="white"/>
  <path d="M25.848 8.20043C25.6431 8.1971 25.4392 8.22976 25.2455 8.29689C25.22 8.30672 25.1984 8.31458 25.1532 8.33432C25.0016 8.39835 24.8535 8.47062 24.7097 8.55084C24.48 8.67883 24.2151 8.82648 23.8481 8.83434C23.6008 8.84024 23.3908 8.77923 23.1906 8.72018C22.9963 8.66311 22.696 8.5587 22.2858 8.31458L22.2388 8.46813C22.4683 8.59552 22.7087 8.70227 22.957 8.78709C23.1337 8.84833 23.3157 8.89248 23.5007 8.91902C23.7077 8.94449 23.9174 8.9392 24.1229 8.90329C24.2995 8.8698 24.4054 8.82058 24.6154 8.71822C24.9138 8.5745 24.8942 8.53708 25.1356 8.43471C25.3005 8.36577 25.4575 8.30082 25.7106 8.27913C25.8756 8.26605 26.0416 8.27202 26.2052 8.29689C26.4996 8.34142 26.7838 8.43736 27.0452 8.5804C26.949 8.51742 26.4387 8.20829 25.848 8.20043Z" fill="#AA1A17"/>
  <path d="M11.6006 9.26567C11.7713 9.55507 12.2227 10.2619 12.9744 10.7285C13.2112 10.8805 13.4673 10.9997 13.7359 11.0829C13.8184 11.1085 13.8988 11.1301 14.5641 11.2128C15.1765 11.2896 15.2648 11.2916 15.4748 11.3546C15.8752 11.4727 16.0557 11.6145 16.1519 11.7031C16.2245 11.77 16.3011 11.8409 16.3462 11.9531C16.4129 12.1185 16.3776 12.2878 16.3482 12.4355C16.329 12.5258 16.3153 12.6172 16.307 12.7092C16.305 12.7347 16.3031 12.7485 16.3031 12.7623C16.3007 12.866 16.3214 12.9689 16.3638 13.0635C16.4836 13.3215 16.7623 13.4376 16.8153 13.4573C16.6857 13.3965 16.5736 13.3037 16.4895 13.1876C16.4429 13.1229 16.4071 13.0511 16.3835 12.9749C16.3462 12.8548 16.3541 12.7623 16.3619 12.6658C16.3737 12.5221 16.4011 12.5182 16.4267 12.3351C16.4444 12.2051 16.4541 12.1421 16.4384 12.0516C16.421 11.951 16.3828 11.8551 16.3266 11.77C16.2769 11.6966 16.216 11.6315 16.146 11.577C16.0813 11.5219 15.9144 11.3939 15.6102 11.2837C15.4571 11.2266 15.3472 11.2049 15.1372 11.1636C14.886 11.1143 14.7879 11.1104 14.5053 11.0671C14.2089 11.0218 14.0597 11.0002 13.8988 10.9569C13.5901 10.8708 13.2967 10.7365 13.0294 10.5591C12.6702 10.3229 12.4543 10.0748 12.2757 9.8661C12.1056 9.66915 11.9539 9.45694 11.8224 9.23218C11.7478 9.24201 11.6732 9.2538 11.6006 9.26567Z" fill="#AA1A17"/>
  <path d="M22.0328 7.01897C21.6921 7.07576 21.3436 7.06236 21.0083 6.9796C20.9631 6.96778 20.9258 6.954 20.8473 6.92841C20.577 6.8382 20.3128 6.73034 20.0564 6.60552C19.6443 6.40864 19.1654 6.18024 18.555 6.25703C18.1409 6.30822 17.8092 6.48345 17.4893 6.65277C17.1811 6.81618 16.7082 7.10167 16.088 7.69626C16.0487 7.59783 16.0114 7.49937 15.9722 7.40093C16.4884 6.94613 16.8907 6.69609 17.0889 6.57993C17.5384 6.31806 17.8249 6.22159 17.9604 6.18024C18.1036 6.13693 18.5197 6.02077 18.9986 6.05227C19.3008 6.07393 19.4892 6.14875 19.8622 6.29838C20.3921 6.51101 20.3685 6.59173 20.7964 6.73546C21.0868 6.8339 21.3655 6.9225 21.7914 6.90085C22.0703 6.88353 22.3456 6.82856 22.6098 6.73743C23.2575 6.51888 23.7206 6.14677 23.9345 5.95776C23.7854 6.10346 23.0141 6.85359 22.0328 7.01897Z" fill="#AA1A17"/>
  <path d="M27.6526 1.72933C27.5856 1.83242 27.5408 1.94845 27.5211 2.06994C27.5192 2.08569 27.5172 2.10144 27.5152 2.129C27.506 2.23045 27.5039 2.33244 27.5093 2.43417C27.5152 2.59758 27.5211 2.78463 27.4112 2.97363C27.3366 3.10161 27.2326 3.18627 27.1325 3.267C27.0363 3.34378 26.8774 3.45994 26.5967 3.57807C26.6222 3.60366 26.6497 3.63123 26.6772 3.65683C26.826 3.58769 26.9679 3.50463 27.1011 3.40875C27.1943 3.34305 27.2793 3.26638 27.3543 3.18036C27.4346 3.08474 27.4983 2.97626 27.5427 2.85945C27.578 2.75707 27.58 2.68619 27.5839 2.54246C27.5898 2.33967 27.5604 2.33573 27.5741 2.17626C27.5839 2.06797 27.5937 1.96362 27.6604 1.82777C27.7044 1.73847 27.7613 1.6562 27.8292 1.58364C27.9536 1.44847 28.1029 1.33881 28.2689 1.26074C28.1982 1.28634 27.8469 1.43203 27.6526 1.72933Z" fill="#AA1A17"/>
  <path d="M15.7969 6.24953C15.4276 6.4132 15.0289 6.49962 14.6252 6.50352C14.5722 6.50352 14.5251 6.49958 14.4289 6.49367C14.0971 6.47241 13.7672 6.42768 13.4417 6.35979C12.9196 6.25741 12.3113 6.13928 11.642 6.40508C11.1887 6.58424 10.8609 6.87563 10.5488 7.16111C10.2466 7.43478 9.79318 7.89351 9.25939 8.74402C9.18674 8.64362 9.11611 8.54519 9.04541 8.44479C9.50077 7.78132 9.88347 7.38358 10.0739 7.19655C10.5076 6.76931 10.8039 6.57833 10.9453 6.4917C11.0944 6.40114 11.5341 6.14716 12.0836 6.04674C12.4329 5.98177 12.6645 6.01131 13.1316 6.07234C13.7931 6.157 13.7891 6.25544 14.3131 6.29285C14.6704 6.31844 15.0098 6.33813 15.4849 6.1885C15.7961 6.08834 16.0925 5.94663 16.3661 5.76717C17.0353 5.33205 17.4553 4.77881 17.6437 4.50317C17.52 4.70793 16.8606 5.77701 15.7969 6.24953Z" fill="#AA1A17"/>
  <path d="M33.0187 2.2876C32.8524 2.29297 32.6861 2.27642 32.5242 2.23839C32.2808 2.18129 32.1414 2.08876 31.9962 1.98834C31.798 1.8525 31.8097 1.81115 31.6036 1.6438C31.5939 1.68515 31.5821 1.72648 31.5703 1.7698C31.5821 1.77965 31.5939 1.79146 31.6057 1.80131C31.7256 1.90965 31.8528 2.00964 31.9864 2.10057C32.0257 2.12617 32.0433 2.13995 32.0669 2.15373C32.2424 2.2535 32.4358 2.31772 32.636 2.34273C33.2229 2.41558 33.8077 2.14979 33.9196 2.09663C33.6331 2.21384 33.328 2.27852 33.0187 2.2876Z" fill="#AA1A17"/>
  <path d="M33.6767 10.3679C33.6688 10.3679 32.8642 10.4034 32.2891 9.85602C31.8927 9.47801 31.6925 8.911 31.6925 8.17071V5.30801H33.8258V4.31768C33.5315 4.38462 33.1998 4.3354 32.9289 4.19561C32.507 3.98101 32.1891 3.58724 31.9791 3.16197H31.6925V0.549316L29.5474 1.84875V8.54479C29.5474 9.06258 29.6141 9.53509 29.7475 9.95642C29.9732 9.95445 30.1989 9.96632 30.4207 10.0136C31.1312 10.1612 31.6728 10.7125 31.928 11.3819C32.0245 11.6373 32.0738 11.9081 32.0732 12.1812C32.5407 12.3217 33.0258 12.394 33.5138 12.3958C33.6158 12.3958 33.6787 12.3919 33.6924 12.3919L33.8258 12.3821V10.362L33.6767 10.3679Z" fill="white"/>
  <path d="M18.6947 8.76582C18.4593 8.76491 18.2266 8.71464 18.0117 8.61817C17.9843 8.60433 17.9587 8.59254 17.9096 8.56502C17.7391 8.47264 17.5745 8.36944 17.4171 8.25589C17.1638 8.07475 16.8695 7.86609 16.4495 7.84636C16.1669 7.8326 15.9215 7.90933 15.688 7.98614C15.4623 8.06099 15.1109 8.19488 14.6262 8.5217C14.6124 8.45079 14.5967 8.37995 14.583 8.30904C14.9834 8.06492 15.2817 7.94282 15.4269 7.88968C15.7587 7.76561 15.9627 7.73416 16.0589 7.7223C16.159 7.7105 16.4534 7.68102 16.7714 7.75775C16.9715 7.80697 17.0893 7.87985 17.3229 8.02357C17.6545 8.22829 17.629 8.27948 17.8998 8.4272C18.0844 8.5276 18.261 8.62014 18.5475 8.65363C18.737 8.67487 18.9284 8.67018 19.1167 8.63979C19.5759 8.56895 19.9312 8.37398 20.098 8.27161C19.9783 8.35629 19.3738 8.76975 18.6947 8.76582Z" fill="#AA1A17"/>
  <path d="M12.1561 6.64734C11.99 6.57062 11.8154 6.51379 11.636 6.47802C11.3652 6.42683 11.1886 6.45636 11.002 6.48983C10.7469 6.53512 10.743 6.5804 10.4663 6.65325C10.4722 6.60797 10.478 6.56268 10.482 6.5174C10.4977 6.51149 10.5134 6.50755 10.5311 6.50165C10.697 6.4495 10.8661 6.40807 11.0374 6.37761C11.0865 6.36974 11.112 6.36383 11.1395 6.36186C11.3596 6.3417 11.5815 6.36443 11.793 6.4288C12.4171 6.61387 12.9058 7.12971 12.998 7.22816C12.8607 7.09624 12.5683 6.83439 12.1561 6.64734Z" fill="#AA1A17"/>
  <path d="M30.1021 7.33777C29.9225 7.3706 29.7527 7.44398 29.6055 7.55238C29.5859 7.56617 29.5682 7.5819 29.5349 7.60949C29.4147 7.70951 29.3025 7.81875 29.1993 7.93631C29.0285 8.12139 28.8303 8.33791 28.5183 8.41079C28.3063 8.46 28.114 8.42651 27.9295 8.3931C27.7509 8.35961 27.4722 8.2927 27.0698 8.08003C27.0659 8.14104 27.064 8.20213 27.062 8.2651C27.3898 8.41865 27.6292 8.4817 27.745 8.50725C28.008 8.56826 28.165 8.56826 28.2376 8.56433C28.4213 8.55889 28.6022 8.5167 28.7695 8.44035C28.9147 8.3714 28.9952 8.29663 29.1542 8.14301C29.3798 7.92649 29.3563 7.8871 29.5428 7.72758C29.6703 7.61932 29.792 7.51694 30.004 7.45C30.1433 7.40752 30.2881 7.38628 30.4338 7.387C30.787 7.387 31.0775 7.50512 31.213 7.56814C31.1128 7.51497 30.6104 7.24524 30.1021 7.33777Z" fill="#AA1A17"/>
  <path d="M26.8799 7.35193C26.825 7.33027 26.7131 7.29876 26.5659 7.2397C26.452 7.19442 26.3598 7.1511 26.299 7.12354C26.3048 7.2771 26.3068 7.43461 26.3029 7.60002C26.3009 7.67479 26.299 7.74963 26.297 7.82244C26.2989 8.10534 26.2579 8.3868 26.1753 8.65723C26.3481 8.89356 26.5541 9.10811 26.7504 9.30899C27.0735 9.63581 27.4142 9.94472 27.771 10.2343C28.2008 9.52747 28.4186 8.72028 28.4186 7.82244C28.4186 7.78509 28.4186 7.7457 28.4166 7.70828C28.1065 7.69256 27.7984 7.66103 27.5001 7.57636C27.2881 7.5114 27.0841 7.43461 26.8799 7.35193Z" fill="white"/>
  <path d="M24.5821 7.76941C24.408 7.87843 24.2248 7.97202 24.0345 8.04899C23.7538 8.16322 23.5753 8.18288 23.3888 8.20261C23.1337 8.23013 23.1337 8.19074 22.8589 8.19868C22.8608 8.23602 22.8608 8.27345 22.8628 8.31283H22.9099C23.0777 8.31593 23.2456 8.308 23.4123 8.28925C23.4614 8.28327 23.4869 8.28131 23.5164 8.27738C23.6262 8.25969 23.8775 8.20457 24.1876 8.05095C24.8412 7.7301 25.3887 7.15713 25.4927 7.04688C25.2177 7.32182 24.9122 7.56423 24.5821 7.76941Z" fill="#AA1A17"/>
  <path d="M15.5734 4.69808C15.5204 4.71777 15.4694 4.73943 15.4164 4.76108C15.4439 4.64492 15.489 4.53269 15.5557 4.36534C15.7009 4.00702 15.7539 4.02276 15.8521 3.73335C15.9188 3.53646 15.9796 3.34745 15.9659 3.06C15.956 2.87029 15.9204 2.68283 15.8599 2.50282C15.7166 2.0618 15.4674 1.74481 15.3418 1.59912C15.4399 1.69953 15.9384 2.22718 16.0464 2.89462C16.0838 3.12598 16.0731 3.3626 16.015 3.58962C16.0072 3.61915 15.9973 3.64671 15.9796 3.6979C15.9181 3.88104 15.8447 4.05994 15.7598 4.23343C15.6951 4.37519 15.6224 4.52679 15.5734 4.69808Z" fill="#AA1A17"/>
  <path d="M13.4828 4.55792C13.3398 4.64875 13.2169 4.76802 13.1217 4.90838C13.1099 4.9261 13.1001 4.94381 13.0785 4.97925C13.0094 5.10106 12.9484 5.22735 12.896 5.35727C12.8096 5.564 12.7095 5.8042 12.4623 5.97746C12.2954 6.09362 12.1168 6.14087 11.9441 6.18222C11.7793 6.22356 11.5123 6.27475 11.0923 6.26097C11.11 6.31019 11.1276 6.35744 11.1473 6.40667C11.4848 6.40273 11.7125 6.36335 11.8224 6.33972C12.0717 6.28853 12.2071 6.22947 12.2699 6.19994C12.4258 6.12728 12.5679 6.02803 12.6899 5.90658C12.7939 5.80026 12.8371 5.71167 12.9254 5.53447C13.049 5.28245 13.0157 5.2608 13.1236 5.06785C13.1982 4.93594 13.2708 4.8119 13.4317 4.68196C13.5388 4.59664 13.657 4.52643 13.7831 4.47326C14.0169 4.37519 14.2676 4.32434 14.521 4.32363C14.421 4.31576 13.895 4.29607 13.4828 4.55792Z" fill="#AA1A17"/>
  <path d="M12.6524 11.4132C12.5189 10.9309 12.254 10.5155 11.9419 10.1295C11.932 10.1168 11.9251 10.102 11.9217 10.0862C11.9184 10.0704 11.9186 10.0541 11.9223 10.0384C11.9261 10.0226 11.9334 10.008 11.9435 9.99549C11.9537 9.98301 11.9666 9.97296 11.9812 9.96616C11.829 9.8678 11.6882 9.75288 11.5612 9.62353C11.0823 9.14119 10.837 8.52693 10.837 7.79647C10.837 7.06604 11.0803 6.45175 11.5612 5.96939C11.6043 5.92607 11.6495 5.88276 11.6966 5.84338C11.6536 5.57042 11.5946 5.30022 11.52 5.03419C11.3952 4.59898 11.2039 4.18585 10.9528 3.80957C10.6309 4.00458 10.3337 4.23794 10.0676 4.50457C9.17069 5.39252 8.71533 6.50098 8.71533 7.79647C8.71533 9.09198 9.17069 10.2004 10.0676 11.0884C10.8389 11.8523 11.7633 12.2913 12.8231 12.3996C12.7897 12.0649 12.7427 11.7342 12.6524 11.4132Z" fill="white"/>
  <path d="M15.0908 5.90675C16.1369 4.90068 16.5295 4.54038 16.6335 4.45966C16.6945 4.41328 16.751 4.3612 16.8023 4.30412C16.8557 4.2463 16.9036 4.18369 16.9456 4.11708C16.9711 4.07573 16.9946 4.03438 17.1379 3.65834C17.2694 3.31379 17.2831 3.26063 17.3479 3.15431C17.4735 2.95152 17.5814 2.88852 17.6443 2.86095C17.6933 2.83929 17.7463 2.81764 17.817 2.82749C17.921 2.84127 18.0152 2.92002 18.0956 2.98696C18.1133 3.00271 18.1702 3.04799 18.2487 3.10312C18.2586 3.11049 18.2692 3.11708 18.2801 3.12281C18.3355 3.1573 18.3979 3.17884 18.4626 3.18581C18.6295 3.1996 18.7355 3.06965 18.7551 3.04406C18.7018 3.10205 18.6306 3.14023 18.5529 3.15234C18.5072 3.15942 18.4605 3.15742 18.4156 3.14644C18.341 3.12872 18.288 3.09328 18.2331 3.05587C18.1526 3.00074 18.1526 2.98302 18.0505 2.90624C17.9779 2.85308 17.9426 2.82551 17.8876 2.80386C17.8309 2.78141 17.7697 2.77264 17.709 2.77826C17.6608 2.78441 17.6141 2.79978 17.5716 2.82355C17.5304 2.84521 17.4323 2.90427 17.3263 3.04996C17.2713 3.12478 17.2438 3.18385 17.1908 3.29607C17.1261 3.43192 17.1104 3.48901 17.0456 3.64652C16.9769 3.80994 16.9436 3.89262 16.8945 3.97729C16.8572 4.04226 16.7748 4.17417 16.5412 4.37106C16.0623 4.77664 15.7032 4.82192 15.4736 5.21569C15.4653 5.23321 15.4561 5.2503 15.4461 5.26688C15.2911 5.54646 15.1714 5.76303 15.0908 5.90675Z" fill="#AA1A17"/>
  <path d="M25.309 1.67663C25.0389 1.82297 24.8038 2.02653 24.6199 2.2732C24.5954 2.30549 24.5754 2.33758 24.536 2.39979C24.3964 2.61885 24.2718 2.84717 24.1631 3.08318C23.9843 3.46041 23.7751 3.89946 23.3093 4.17884C22.9941 4.36647 22.6701 4.41983 22.3555 4.46629C22.052 4.51137 21.5693 4.55627 20.8174 4.4466C20.8441 4.54386 20.8698 4.63837 20.8959 4.73563C21.4998 4.79666 21.9147 4.76536 22.1139 4.74409C22.5684 4.69566 22.8185 4.61041 22.9347 4.56848C23.0567 4.5224 23.41 4.38104 23.7239 4.09201C23.9225 3.90753 24.0118 3.74904 24.19 3.42714C24.4424 2.97234 24.3825 2.92292 24.6021 2.57857C24.752 2.3423 24.8965 2.12218 25.203 1.90325C25.4046 1.7625 25.6254 1.652 25.8588 1.57525C26.4254 1.38447 26.95 1.41124 27.1994 1.43742C27.0209 1.40494 26.0788 1.26023 25.309 1.67663Z" fill="#AA1A17"/>
  <path d="M25.6742 0.945203C25.6438 1.08727 25.5978 1.22548 25.5368 1.35728C25.4426 1.5524 25.3444 1.64709 25.2385 1.74514C25.095 1.88041 25.0638 1.85835 24.895 1.99342C24.925 2.0131 24.9539 2.03417 24.9845 2.05248C24.9947 2.04402 25.0057 2.03811 25.0157 2.02964C25.1236 1.95412 25.2258 1.87061 25.3213 1.7798C25.341 1.76256 25.3597 1.74408 25.377 1.72447C25.4917 1.59606 25.5804 1.44655 25.6383 1.28424C25.8133 0.800495 25.7311 0.229332 25.7133 0.12085C25.7436 0.395981 25.7305 0.674202 25.6742 0.945203Z" fill="#AA1A17"/>
  <path d="M25.3368 3.86235C25.2318 3.88676 25.1227 3.88797 25.0171 3.8659C25.0022 3.86314 24.9914 3.85861 24.9657 3.85113C24.8787 3.82599 24.794 3.79372 24.7123 3.75466C24.5786 3.69559 24.4258 3.6257 24.2374 3.66055C24.11 3.68358 24.0103 3.74776 23.9149 3.80998C23.8225 3.86905 23.6825 3.9728 23.5027 4.18189C23.4877 4.1498 23.4745 4.11712 23.46 4.08345C23.5598 3.97522 23.6697 3.87678 23.7881 3.7895C23.869 3.72919 23.9571 3.67944 24.0505 3.64144C24.1524 3.60122 24.2611 3.58117 24.3706 3.58238C24.4654 3.58494 24.5247 3.60699 24.6454 3.65149C24.8157 3.7139 24.8091 3.74186 24.9469 3.7832C25.0401 3.81057 25.1278 3.83755 25.2609 3.82258C25.3475 3.81231 25.4322 3.78949 25.5123 3.75485C25.6615 3.68832 25.7956 3.59168 25.906 3.47095C25.8609 3.52568 25.6389 3.79088 25.3368 3.86235Z" fill="#AA1A17"/>
  <path d="M17.1064 0.767826C17.0667 0.77971 17.0285 0.796229 16.9926 0.81705C16.952 0.841348 16.9172 0.87428 16.8906 0.913525C16.8572 0.958802 16.8631 0.96668 16.8317 1.01984C16.8251 1.01083 16.8179 1.00228 16.8101 0.994244C16.8121 0.990305 16.814 0.98834 16.816 0.984401C16.8335 0.950539 16.8538 0.918257 16.8769 0.887926C16.8811 0.881757 16.8856 0.875837 16.8906 0.870205C16.9237 0.83378 16.9637 0.804326 17.0084 0.783581C17.1437 0.722545 17.3125 0.736327 17.3439 0.738296C17.2638 0.736429 17.1838 0.746379 17.1064 0.767826Z" fill="#AA1A17"/>
  <path d="M13.2553 12.205C13.1978 12.0963 13.1631 11.9771 13.1532 11.8546C13.1513 11.8342 13.1507 11.8139 13.1513 11.7935C13.1514 11.6921 13.158 11.5909 13.1709 11.4903C13.1905 11.3288 13.2141 11.1418 13.1199 10.943C13.0551 10.8091 12.9609 10.7165 12.8667 10.6279C12.7765 10.5413 12.6272 10.4134 12.3584 10.2715C12.3878 10.2479 12.4153 10.2243 12.4447 10.1987C12.5872 10.2804 12.7214 10.376 12.8451 10.4842C12.9844 10.6063 13.0492 10.6929 13.0767 10.7342C13.1498 10.8357 13.2037 10.9498 13.2357 11.0709C13.2632 11.1753 13.2592 11.2482 13.2494 11.3899C13.2377 11.5927 13.2082 11.5946 13.2082 11.7541C13.2082 11.8644 13.2102 11.9667 13.2651 12.1085C13.3014 12.2013 13.351 12.2881 13.4123 12.3664C13.5241 12.5124 13.6635 12.6348 13.8225 12.7267C13.7617 12.6933 13.4221 12.518 13.2553 12.205Z" fill="#AA1A17"/>
  <path d="M22.621 13.3963C22.4819 13.3876 22.3446 13.3605 22.2127 13.3155C22.0105 13.2446 21.8968 13.1501 21.777 13.0497C21.6023 12.902 21.6278 12.8686 21.4159 12.6697C21.2668 12.528 21.1921 12.459 21.0548 12.3902C20.8958 12.315 20.7252 12.2678 20.5504 12.2504C20.4797 12.2445 20.3305 12.2327 20.0774 12.2681C20.0381 12.274 19.9851 12.2819 19.9203 12.2957C19.8399 12.3803 19.7398 12.4492 19.6397 12.5123C19.6378 12.5142 19.6358 12.5142 19.6338 12.5162C19.834 12.4471 20.0414 12.4015 20.252 12.3803C20.4306 12.3626 20.6151 12.3468 20.8153 12.4019C21.1136 12.4827 21.2962 12.6815 21.4551 12.8509C21.5527 12.9584 21.6576 13.0591 21.7692 13.1521C21.7903 13.1717 21.8126 13.1901 21.8359 13.2073C21.9771 13.3095 22.1372 13.3824 22.3069 13.4218C22.7917 13.5321 23.2804 13.3332 23.3726 13.2938C23.2392 13.3352 22.9585 13.4179 22.621 13.3963Z" fill="#AA1A17"/>
</svg>
